<?xml version="1.0" standalone="no"?>
<!DOCTYPE svg PUBLIC "-//W3C//DTD SVG 20010904//EN"
 "http://www.w3.org/TR/2001/REC-SVG-20010904/DTD/svg10.dtd">
<svg version="1.0" xmlns="http://www.w3.org/2000/svg"
 width="2250.000000pt" height="2250.000000pt" viewBox="0 0 2250.000000 2250.000000"
 preserveAspectRatio="xMidYMid meet">

<g transform="translate(0.000000,2250.000000) scale(0.100000,-0.100000)"
fill="#000000" stroke="none">
<path d="M6175 17825 c-16 -8 -44 -31 -61 -50 -30 -34 -32 -40 -38 -151 -4
-64 -10 -123 -13 -130 -4 -12 -239 -14 -1482 -15 -1362 0 -1481 -1 -1542 -17
-160 -42 -284 -164 -347 -341 -15 -42 -17 -187 -19 -1523 l-3 -1478 822 -3
c591 -1 442 -3 -527 -5 -1473 -3 -1705 -8 -1842 -43 -201 -50 -353 -170 -443
-349 -49 -98 -69 -191 -81 -380 -7 -96 -16 -176 -20 -178 -12 -5 -11 -42 1
-42 7 0 10 -1310 10 -3910 0 -2600 -3 -3910 -10 -3910 -12 0 -13 -47 -1 -52 5
-1 14 -71 20 -154 7 -86 20 -183 32 -224 56 -202 181 -350 379 -450 169 -85
189 -85 1943 -82 l1487 2 0 24 c0 26 -36 136 -49 149 -4 4 -635 8 -1402 8
-1392 -1 -1677 5 -1798 34 -102 25 -186 70 -255 138 -103 101 -151 217 -166
397 -13 152 -13 8100 0 8270 14 188 61 304 164 405 115 112 224 150 476 165
207 12 2775 12 3010 0 281 -15 382 -47 507 -164 45 -41 73 -79 98 -130 60
-123 69 -175 70 -411 l0 -210 -60 -8 c-68 -9 -108 -25 -147 -60 -32 -28 -68
-106 -68 -148 0 -84 57 -171 140 -212 25 -12 45 -27 45 -34 0 -6 3 -15 8 -19
4 -4 7 -36 7 -72 0 -61 2 -67 42 -115 l42 -50 4 -1216 4 -1216 -35 -43 c-35
-41 -36 -45 -36 -128 0 -71 -4 -89 -18 -100 -10 -7 -24 -14 -31 -14 -33 -1
-93 -55 -118 -107 -68 -138 21 -292 181 -312 l50 -6 3 -1162 c1 -640 3 -1163
5 -1163 2 0 34 16 73 35 38 19 75 35 81 35 10 0 13 222 16 1058 l2 1057 3
-1057 2 -1058 98 0 c88 0 206 -10 335 -26 l47 -7 0 1026 c0 564 3 1032 6 1041
5 13 24 16 104 16 l97 0 7 -52 c3 -29 6 -94 6 -144 0 -103 1 -104 83 -104 36
0 38 -2 35 -27 -3 -27 -6 -28 -73 -36 -38 -4 -76 -9 -82 -12 -16 -6 -17 -67
-1 -83 7 -7 13 -68 15 -174 5 -193 6 -202 38 -230 18 -15 25 -32 25 -57 0 -20
7 -47 15 -61 8 -14 18 -34 23 -45 6 -11 18 -28 29 -38 32 -28 139 -67 188 -67
l45 0 0 -44 c0 -24 -7 -77 -15 -117 -9 -41 -20 -96 -26 -124 -35 -167 -45
-231 -63 -380 -24 -200 -33 -319 -27 -327 3 -3 41 -11 84 -15 94 -11 97 -8 97
95 0 38 4 93 9 123 5 30 15 92 21 139 12 89 25 166 41 237 5 22 13 70 19 105
5 34 16 97 25 138 8 41 15 94 15 118 0 49 9 54 99 66 30 4 71 16 93 27 48 24
94 97 103 160 5 35 14 54 36 73 16 14 29 32 29 39 0 6 1 110 3 230 l2 217 -32
0 c-39 0 -113 37 -113 56 0 14 21 21 75 26 l30 3 2 144 c1 90 6 148 13 155 7
7 96 12 271 14 l259 3 107 110 c107 109 108 109 156 109 80 0 165 50 202 120
21 40 28 112 15 159 -15 56 -78 124 -130 141 -23 7 -43 18 -47 22 -12 21 10
20 56 -1 54 -26 69 -22 109 24 18 20 29 25 48 21 13 -3 35 -9 48 -12 22 -5 25
-2 30 28 8 44 33 766 46 1328 12 511 19 655 30 625 9 -24 26 -443 40 -975 11
-404 23 -587 39 -618 5 -10 19 -85 31 -167 34 -241 41 -275 55 -275 19 0 33
72 50 255 23 253 27 285 36 285 15 0 18 -18 34 -176 21 -218 34 -294 52 -301
8 -3 28 8 47 26 40 39 56 39 89 1 15 -16 31 -30 37 -30 5 0 25 14 45 31 l36
32 50 -23 c40 -19 55 -34 77 -74 15 -28 34 -52 43 -54 27 -5 115 89 140 149
12 30 32 65 44 79 13 14 33 56 45 93 12 38 27 66 33 64 6 -2 20 -32 30 -68 39
-139 57 -151 101 -68 15 27 33 48 39 46 6 -2 24 -34 39 -72 16 -38 35 -73 43
-78 8 -4 27 -30 42 -58 35 -63 59 -63 90 1 35 71 38 73 82 48 21 -12 45 -19
54 -15 9 3 28 28 41 56 23 44 31 51 76 64 43 13 58 13 101 2 28 -8 62 -25 76
-39 14 -14 30 -26 35 -26 6 0 32 14 58 31 59 38 48 -31 90 609 13 193 20 250
30 250 4 0 11 -42 14 -92 3 -51 11 -172 17 -268 6 -96 16 -238 24 -316 11
-122 16 -145 39 -178 14 -22 26 -44 26 -51 0 -7 9 -24 21 -39 17 -22 28 -26
72 -26 40 1 58 6 80 25 15 13 27 30 27 36 0 7 -13 1 -28 -14 -23 -22 -37 -27
-80 -27 l-52 0 -41 85 c-38 81 -41 92 -54 242 -7 87 -19 264 -25 393 -11 231
-23 356 -35 368 -23 24 -30 -36 -60 -528 -22 -374 -28 -415 -62 -445 -45 -39
-61 -41 -97 -7 -38 38 -110 50 -184 32 -46 -11 -51 -15 -77 -66 -15 -30 -33
-54 -41 -54 -7 0 -29 9 -49 21 -43 25 -52 20 -85 -51 -13 -27 -29 -50 -37 -50
-7 0 -24 21 -37 48 -13 26 -33 54 -44 63 -17 14 -35 54 -67 147 -9 26 -40 6
-67 -43 -15 -28 -33 -50 -40 -50 -7 0 -20 26 -29 60 -26 96 -46 136 -63 129
-9 -3 -16 -7 -16 -8 -1 -24 -55 -150 -72 -169 -13 -13 -31 -49 -42 -78 -12
-36 -33 -66 -65 -95 -25 -24 -50 -43 -56 -44 -5 0 -21 21 -35 48 -20 37 -37
53 -82 77 l-57 29 -41 -33 -42 -33 -32 31 c-41 39 -64 39 -100 -1 -42 -48 -45
-38 -71 227 -21 211 -34 285 -50 285 -21 0 -25 -23 -49 -283 -12 -134 -26
-249 -31 -257 -14 -22 -24 21 -50 202 -13 92 -28 175 -33 185 -13 23 -20 154
-32 558 -18 590 -39 1179 -46 1242 -6 65 -17 86 -29 56 -8 -22 -21 -415 -35
-1038 -11 -508 -27 -974 -38 -1115 l-7 -85 -49 0 c-42 0 -52 -4 -75 -32 -32
-39 -37 -40 -95 -11 -50 24 -76 70 -76 132 0 22 -9 45 -24 63 -30 36 -32 53
-52 468 -8 176 -19 401 -24 500 -4 99 -10 480 -12 847 l-3 667 42 43 43 43 -1
77 c-1 79 11 118 37 118 22 0 91 48 111 79 38 56 58 161 33 176 -5 3 -10 16
-10 29 0 29 -79 106 -127 122 -21 8 -52 14 -69 14 -50 0 -54 11 -54 161 0 150
-11 194 -54 223 -36 23 -370 24 -404 0 -33 -23 -46 -53 -52 -119 l-5 -60 -281
-3 -281 -2 -7 232 c-5 128 -10 260 -12 293 -5 73 -4 97 5 148 0 4 134 7 296 7
190 0 295 4 295 10 0 6 -103 10 -289 10 -236 0 -291 3 -300 14 -15 18 -11 172
4 169 6 -1 10 18 10 42 0 24 -4 43 -10 42 -6 -1 -11 45 -12 118 -2 134 -28
742 -43 1020 -6 99 -10 568 -10 1043 l0 862 2059 0 c2026 0 2059 0 2083 -20
23 -17 25 -28 31 -129 4 -61 12 -119 19 -130 29 -47 16 -46 868 -49 443 -2
829 0 858 3 33 4 62 15 79 29 24 21 26 29 32 140 5 108 8 119 30 137 23 19 96
19 3748 19 3407 0 3727 -1 3756 -16 46 -23 86 -63 110 -109 l21 -40 -2 -5210
c-1 -2865 -5 -5303 -9 -5417 l-6 -208 -3328 0 c-1830 0 -3334 -3 -3343 -6 -14
-5 -16 -44 -16 -335 l0 -329 3459 0 3459 0 6 43 c3 23 8 2600 12 5727 6 5263
5 5690 -10 5749 -44 171 -170 305 -341 363 -33 11 -1170 14 -6800 18 l-6760 5
-6 123 c-5 116 -7 124 -35 158 -55 69 -134 92 -199 59z m-119 -1352 c-6 -743
-15 -1151 -36 -1658 -6 -126 -10 -531 -9 -899 0 -368 -3 -672 -8 -676 -4 -4
-57 -10 -118 -11 l-110 -4 -3 2013 -2 2012 146 0 145 0 -5 -777z m-1901 582
c0 -26 -3 -30 -29 -30 -36 0 -56 26 -36 50 8 9 24 15 39 13 22 -2 26 -8 26
-33z m660 0 c0 -24 -5 -31 -24 -33 -32 -5 -54 23 -40 50 7 13 19 18 37 16 23
-2 27 -8 27 -33z m-1435 -35 c0 -60 6 -70 27 -49 7 7 31 12 54 12 35 0 48 -6
71 -32 27 -30 28 -35 28 -137 l0 -105 -32 3 -33 3 -5 94 c-5 102 -15 119 -62
108 -35 -9 -48 -46 -48 -132 l0 -75 -35 0 -35 0 0 178 c0 98 3 182 7 185 3 4
19 7 35 7 28 0 28 -1 28 -60z m618 -92 c2 -137 4 -148 23 -158 14 -8 19 -19
17 -38 -4 -38 -48 -42 -83 -8 -25 25 -25 27 -25 191 l0 166 33 -3 32 -3 3
-147z m630 85 c3 -26 8 -32 30 -35 21 -2 27 -8 27 -28 0 -20 -6 -26 -30 -30
-29 -5 -30 -8 -33 -60 -4 -75 3 -98 36 -107 l27 -7 -35 -7 c-19 -5 -42 -6 -51
-3 -25 7 -39 49 -39 118 0 55 -3 64 -20 69 -12 3 -20 14 -20 27 0 13 8 24 20
27 14 4 20 14 20 33 0 30 12 40 45 37 15 -1 21 -11 23 -34z m-785 -73 c20 -22
27 -41 27 -70 l0 -40 -83 0 c-46 0 -87 -3 -90 -6 -12 -12 12 -42 43 -52 19 -7
41 -7 62 -1 43 12 45 12 52 -6 21 -57 -76 -84 -162 -45 -53 24 -76 71 -69 143
11 114 144 161 220 77z m586 21 c13 -9 30 -26 38 -37 13 -20 12 -21 -29 -22
-24 0 -51 -2 -62 -4 -10 -1 -22 4 -26 12 -4 8 -13 26 -19 39 -11 19 -10 25 1
32 17 12 67 2 97 -20z m654 -2 c20 -31 2 -47 -45 -42 -59 7 -92 -19 -92 -72 0
-52 32 -78 94 -73 43 3 45 2 48 -24 3 -23 -2 -30 -25 -39 -57 -22 -135 4 -169
56 -35 54 -13 169 39 196 54 30 131 28 150 -2z m220 14 c12 -3 17 -14 17 -38
l0 -33 -40 14 c-30 10 -46 11 -61 4 -27 -15 -17 -27 47 -55 84 -37 99 -104 31
-145 -38 -24 -75 -25 -122 -6 -29 13 -35 20 -35 45 0 36 -1 36 44 15 21 -11
44 -14 61 -10 39 10 28 38 -23 56 -61 23 -82 44 -82 83 0 67 68 96 163 70z
m-1145 -38 c2 -22 1 -82 -3 -133 l-7 -93 -26 3 -27 3 -3 133 -3 133 33 -3 c31
-3 33 -6 36 -43z m660 -92 l3 -133 -36 0 -35 0 0 128 c0 71 3 132 7 136 4 4
19 6 33 4 l25 -3 3 -132z m-500 84 c4 -20 -25 -34 -40 -19 -15 15 -1 44 19 40
10 -2 19 -11 21 -21z m-61 -26 c8 -13 26 -21 50 -23 35 -3 38 -6 41 -35 4 -41
-17 -53 -81 -46 l-47 6 0 42 c0 71 14 92 37 56z m201 -33 c28 -28 7 -78 -33
-78 -27 0 -45 18 -45 45 0 27 18 45 45 45 12 0 26 -5 33 -12z m-1088 -1155 c0
-12 -3 -14 -8 -6 -4 7 -37 14 -72 16 l-65 3 73 2 c63 2 72 0 72 -15z m204 -54
c-8 -13 -24 -1 -24 18 0 13 3 13 15 3 8 -7 12 -16 9 -21z m84 15 c-2 -8 -7
-15 -13 -15 -5 0 -16 -11 -23 -25 -7 -13 -17 -22 -22 -19 -15 9 -12 25 3 25 8
0 19 11 25 25 13 27 35 34 30 9z m321 -10 c-6 -8 -9 -26 -6 -40 2 -14 1 -22
-3 -17 -10 11 -20 69 -14 76 3 3 12 3 20 0 11 -4 12 -9 3 -19z m-219 2 c14
-18 10 -59 -8 -62 -7 -1 -8 0 -2 3 15 7 12 50 -5 57 -8 3 -23 3 -32 0 -15 -5
-16 -4 -3 5 21 15 35 14 50 -3z m110 -7 c6 -11 9 -30 7 -42 -4 -19 -4 -19 -6
4 -3 59 -55 59 -64 1 -3 -21 -4 -19 -6 10 -1 27 3 38 17 41 33 9 41 7 52 -14z
m203 14 c3 -5 -5 -8 -18 -8 -13 0 -21 3 -18 8 2 4 10 7 18 7 8 0 16 -3 18 -7z
m124 -55 c-2 -13 -4 -3 -4 22 0 25 2 35 4 23 2 -13 2 -33 0 -45z m102 48 c7
-8 11 -27 8 -43 -4 -27 -4 -27 -6 4 0 19 -8 36 -18 42 -10 6 -13 11 -7 11 6 0
17 -6 23 -14z m105 8 c9 -3 16 -10 16 -15 0 -5 -9 -4 -20 3 -16 10 -23 10 -36
-4 -9 -9 -14 -24 -11 -32 7 -19 38 -21 55 -4 9 9 12 8 12 -5 0 -12 -8 -17 -29
-17 -39 0 -57 23 -43 55 12 25 27 30 56 19z m-260 -19 c-4 -8 -10 -15 -15 -15
-4 0 -6 7 -3 15 4 8 10 15 15 15 4 0 6 -7 3 -15z m110 0 c-4 -8 -8 -15 -10
-15 -2 0 -4 7 -4 15 0 8 4 15 10 15 5 0 7 -7 4 -15z m-976 -9 c-7 -8 -15 -12
-17 -11 -5 6 10 25 20 25 5 0 4 -6 -3 -14z m436 -39 c7 -6 6 -7 -4 -4 -8 2
-16 14 -17 28 -1 19 -1 20 4 4 3 -11 10 -24 17 -28z m331 -6 c-6 -5 -25 10
-25 20 0 5 6 4 14 -3 8 -7 12 -15 11 -17z m-680 -20 c-7 -12 -131 -15 -138 -3
-3 4 22 5 55 4 34 -2 65 1 71 7 13 13 22 7 12 -8z m365 -401 c8 -5 11 -10 5
-10 -5 0 -17 5 -25 10 -8 5 -10 10 -5 10 6 0 17 -5 25 -10z m217 -57 c-2 -16
-4 -5 -4 22 0 28 2 40 4 28 2 -13 2 -35 0 -50z m108 6 c0 -16 -3 -29 -7 -29
-5 0 -8 17 -8 37 0 20 3 33 8 29 4 -4 7 -21 7 -37z m395 0 c0 -22 -4 -38 -8
-35 -8 5 -4 76 4 76 2 0 4 -18 4 -41z m-576 16 c3 -8 1 -15 -4 -15 -6 0 -10 7
-10 15 0 8 2 15 4 15 2 0 6 -7 10 -15z m-44 -22 c-1 -24 -2 -26 -11 -10 -5 9
-7 22 -4 27 10 17 15 11 15 -17z m372 -15 c-6 -6 -7 0 -4 19 5 21 7 23 10 9 2
-10 0 -22 -6 -28z m98 12 c0 -10 -4 -21 -9 -24 -10 -7 -23 33 -15 46 8 13 24
-1 24 -22z m92 5 c3 -14 1 -25 -3 -25 -5 0 -9 11 -9 25 0 14 2 25 4 25 2 0 6
-11 8 -25z m-385 -17 c-3 -7 -5 -2 -5 12 0 14 2 19 5 13 2 -7 2 -19 0 -25z
m105 0 c-8 -8 -9 -4 -5 13 4 13 8 18 11 10 2 -7 -1 -18 -6 -23z m-322 8 c0 -3
-4 -8 -10 -11 -5 -3 -10 -1 -10 4 0 6 5 11 10 11 6 0 10 -2 10 -4z m120 -6 c0
-5 -2 -10 -4 -10 -3 0 -8 5 -11 10 -3 6 -1 10 4 10 6 0 11 -4 11 -10z m-220
-372 c0 -28 -2 -49 -4 -47 -8 9 -13 99 -5 99 5 0 9 -23 9 -52z m247 -20 c-2
-13 -4 -5 -4 17 -1 22 1 32 4 23 2 -10 2 -28 0 -40z m-150 -20 c-3 -7 -5 -2
-5 12 0 14 2 19 5 13 2 -7 2 -19 0 -25z m193 16 c0 -8 -4 -12 -10 -9 -5 3 -10
10 -10 16 0 5 5 9 10 9 6 0 10 -7 10 -16z m-135 -14 c3 -5 1 -10 -4 -10 -6 0
-11 5 -11 10 0 6 2 10 4 10 3 0 8 -4 11 -10z m-86 -367 l-1 -48 -10 34 c-5 18
-7 40 -4 47 10 27 16 14 15 -33z m-79 16 c0 -5 -4 -9 -10 -9 -5 0 -10 7 -10
16 0 8 5 12 10 9 6 -3 10 -10 10 -16z m270 -54 c-7 -8 -18 -15 -24 -15 -6 0
-3 5 7 11 14 8 17 18 13 37 -5 26 -5 26 6 5 8 -17 8 -26 -2 -38z m-100 10 c0
-14 -4 -25 -9 -25 -4 0 -6 11 -3 25 2 14 6 25 8 25 2 0 4 -11 4 -25z m-130 5
c0 -5 -5 -10 -11 -10 -5 0 -7 5 -4 10 3 6 8 10 11 10 2 0 4 -4 4 -10z m190
-20 c0 -5 -4 -10 -10 -10 -5 0 -10 5 -10 10 0 6 5 10 10 10 6 0 10 -4 10 -10z
m655 -180 c240 -21 367 -73 501 -205 116 -114 178 -238 203 -405 13 -85 26
-307 17 -299 -4 4 -11 71 -16 150 -12 174 -30 259 -80 364 -85 178 -244 306
-440 354 -48 11 -151 25 -239 30 -84 6 -156 13 -159 16 -8 8 81 6 213 -5z
m2781 -785 c71 -18 102 -38 110 -71 8 -29 -9 -72 -31 -80 -9 -4 -31 8 -55 30
-39 35 -42 36 -124 36 -46 0 -91 3 -100 6 -24 9 -19 42 10 69 32 30 101 33
190 10z m-1096 -75 c0 -5 -7 -10 -15 -10 -8 0 -15 5 -15 10 0 6 7 10 15 10 8
0 15 -4 15 -10z m1398 -321 c35 -12 60 -63 42 -84 -8 -9 -5 -14 10 -18 26 -7
26 -44 0 -77 -19 -25 -19 -25 -64 -9 -35 13 -46 13 -46 4 0 -7 -7 -18 -15 -25
-20 -16 -57 1 -75 35 -10 19 -10 27 4 46 9 13 16 39 16 59 0 43 8 56 40 69 33
13 51 13 88 0z m-2559 -30 c35 -12 51 -35 51 -73 0 -14 5 -28 10 -31 16 -10
12 -41 -9 -66 -17 -22 -21 -22 -45 -10 -20 11 -28 12 -41 1 -8 -7 -15 -19 -15
-26 0 -23 -54 -17 -77 9 -29 32 -36 57 -17 64 12 4 14 14 9 43 -6 33 -3 39 27
62 30 23 53 35 69 37 3 1 20 -4 38 -10z m1952 -1342 c41 -32 41 -28 46 -866 4
-558 2 -814 -5 -833 -23 -57 -1 -55 -722 -62 l-665 -6 -46 43 -46 42 -7 400
c-3 220 -9 576 -12 791 -5 279 -3 400 5 425 21 65 14 64 456 67 220 1 414 4
430 6 17 1 147 3 290 4 191 1 264 -2 276 -11z m642 -2028 c30 -8 42 -18 53
-44 7 -19 18 -36 24 -40 13 -8 13 -48 -2 -80 -8 -19 -19 -25 -43 -25 -17 0
-36 -5 -43 -12 -8 -8 -15 -8 -26 1 -13 11 -18 10 -31 -3 -23 -22 -51 -5 -71
42 -14 35 -14 38 5 51 14 9 21 24 21 46 0 31 19 56 50 68 22 8 21 8 63 -4z
m-2572 -39 c21 -6 40 -19 46 -33 6 -12 16 -34 23 -48 14 -31 5 -88 -16 -96 -8
-3 -24 3 -34 12 -19 17 -20 17 -20 -1 0 -25 -18 -44 -35 -38 -7 3 -16 1 -20
-5 -11 -18 -41 -12 -69 14 -32 30 -36 79 -6 97 12 8 20 24 20 40 0 17 10 34
26 47 30 24 36 25 85 11z m1519 -1495 c0 -21 -24 -29 -49 -15 -32 16 -25 30
14 30 25 0 35 -4 35 -15z"/>
<path d="M3713 16913 c-7 -2 -13 -11 -13 -19 0 -10 14 -14 50 -14 51 0 60 6
38 28 -12 12 -52 15 -75 5z"/>
<path d="M5868 11173 c6 -2 18 -2 25 0 6 3 1 5 -13 5 -14 0 -19 -2 -12 -5z"/>
<path d="M6018 10903 c-16 -4 -18 -18 -18 -104 l0 -99 100 0 100 0 0 105 0
105 -82 -1 c-46 -1 -91 -3 -100 -6z m166 -29 c9 -22 7 -142 -1 -147 -5 -3 -42
-6 -83 -8 l-75 -4 -7 74 c-5 50 -4 79 3 88 17 20 155 18 163 -3z"/>
<path d="M6062 10803 c3 -36 5 -38 38 -38 33 0 35 2 38 38 l3 37 -41 0 -41 0
3 -37z"/>
<path d="M6257 10903 c-10 -10 -8 -61 2 -67 5 -3 11 1 15 9 3 8 17 15 31 15
16 0 25 6 25 15 0 8 9 15 20 15 12 0 20 -7 20 -17 1 -17 1 -17 11 0 5 9 7 22
4 27 -7 11 -118 14 -128 3z"/>
<path d="M6457 10882 c-10 -10 -17 -28 -17 -39 0 -12 -8 -24 -17 -27 -14 -6
-8 -15 30 -54 26 -26 47 -57 48 -67 0 -16 3 -15 10 6 8 21 19 28 49 33 22 3
40 10 40 14 0 9 -56 62 -65 62 -3 0 -5 -11 -5 -24 0 -36 -24 -38 -54 -4 -34
39 -31 72 6 76 24 3 26 5 15 23 -15 24 -20 24 -40 1z"/>
<path d="M6565 10888 c-3 -8 -1 -25 4 -39 7 -17 10 -19 10 -6 1 18 41 25 41 7
0 -5 5 -10 10 -10 6 0 10 14 10 30 0 32 -9 37 -28 18 -8 -8 -15 -8 -26 2 -13
10 -17 10 -21 -2z"/>
<path d="M6280 10810 c0 -5 17 -10 37 -10 43 0 41 7 -5 15 -19 3 -32 1 -32 -5z"/>
<path d="M6253 10729 c0 -59 -8 -69 -58 -74 -35 -3 -74 -37 -67 -59 2 -5 -5
-17 -14 -27 -17 -18 -16 -20 3 -39 14 -12 39 -20 74 -22 45 -2 54 -6 57 -23 8
-41 22 -39 22 3 l0 42 -59 0 c-44 0 -60 4 -65 16 -10 25 -8 31 24 65 l29 33
36 -38 35 -37 0 28 c0 16 6 35 12 41 10 10 10 15 -2 22 -13 8 -13 13 -2 31 10
15 11 24 3 32 -6 6 -11 19 -11 28 0 10 -4 20 -8 23 -5 3 -8 -18 -9 -45z"/>
<path d="M6320 10740 c0 -5 9 -10 20 -10 11 0 20 5 20 10 0 6 -9 10 -20 10
-11 0 -20 -4 -20 -10z"/>
<path d="M6351 10656 c-1 -31 -8 -46 -37 -72 -28 -27 -32 -35 -20 -40 22 -8
23 -99 1 -108 -16 -6 -21 -46 -6 -46 5 0 14 7 21 15 12 14 17 12 45 -15 35
-34 45 -37 45 -14 0 8 -16 30 -35 48 -28 26 -35 41 -35 70 0 23 5 39 15 42 8
4 15 16 15 28 0 26 17 46 40 46 8 0 23 9 33 20 16 19 16 21 -1 40 -17 21 -17
21 -22 -7 -7 -40 -43 -39 -51 2 -6 28 -7 28 -8 -9z"/>
<path d="M6597 10653 c-11 -10 -8 -33 4 -33 15 0 39 26 32 34 -8 8 -28 8 -36
-1z"/>
<path d="M6477 10623 c-4 -3 1 -11 10 -18 9 -7 13 -17 9 -23 -10 -17 -36 -15
-36 3 0 8 -4 15 -10 15 -5 0 -10 -14 -10 -30 0 -26 -5 -31 -30 -36 -16 -4 -27
-10 -24 -15 10 -16 59 -9 77 11 11 13 29 20 53 20 35 0 36 1 22 18 -9 9 -19
27 -22 40 -7 21 -26 29 -39 15z"/>
<path d="M6004 10576 c-3 -8 -4 -25 -2 -38 2 -18 10 -24 36 -26 18 -2 32 1 32
7 0 6 -11 11 -25 11 -18 0 -25 5 -25 20 0 11 7 20 16 20 8 0 12 5 9 10 -9 15
-35 12 -41 -4z"/>
<path d="M6608 10569 c-17 -18 -17 -19 7 -19 18 0 25 5 25 20 0 25 -10 24 -32
-1z"/>
<path d="M6010 10456 c-12 -16 -10 -203 3 -198 4 1 49 2 100 2 l93 0 1 93 c0
50 -4 97 -9 104 -14 17 -173 16 -188 -1z m178 -94 c3 -70 2 -72 -23 -82 -29
-11 -105 -13 -129 -4 -13 5 -16 22 -16 85 l0 80 83 -3 82 -3 3 -73z"/>
<path d="M6062 10363 c3 -37 4 -38 43 -38 39 0 40 1 40 35 0 34 -1 35 -43 38
l-43 3 3 -38z"/>
<path d="M6440 10365 l0 -106 103 3 102 3 0 90 c0 50 -1 96 -3 103 -3 8 -33
12 -103 12 l-99 0 0 -105z m179 81 c7 -9 11 -42 9 -88 l-3 -73 -80 0 -80 0 0
80 0 80 65 6 c36 3 68 6 71 7 4 1 12 -4 18 -12z"/>
<path d="M6513 10403 c-7 -2 -13 -20 -13 -39 0 -33 1 -34 40 -34 l40 0 0 40
c0 37 -2 40 -27 39 -16 0 -34 -3 -40 -6z"/>
<path d="M6387 10303 c-11 -10 -8 -43 3 -43 6 0 10 11 10 25 0 26 -2 29 -13
18z"/>
<path d="M6268 10173 c7 -3 16 -2 19 1 4 3 -2 6 -13 5 -11 0 -14 -3 -6 -6z"/>
<path d="M6514 10028 c-10 -15 1 -19 26 -10 l24 9 -22 5 c-12 4 -25 2 -28 -4z"/>
<path d="M6602 10018 c-24 -24 -14 -40 21 -33 55 11 67 16 67 27 0 5 -7 8 -15
4 -8 -3 -15 -1 -15 4 0 14 -44 12 -58 -2z"/>
<path d="M6721 9994 c0 -11 3 -14 6 -6 3 7 2 16 -1 19 -3 4 -6 -2 -5 -13z"/>
<path d="M6817 10003 c-4 -3 -7 -17 -7 -30 0 -20 2 -22 14 -11 9 8 11 17 5 24
-5 6 -6 14 -2 17 3 4 4 7 1 7 -2 0 -8 -3 -11 -7z"/>
<path d="M6510 9966 c0 -14 5 -26 10 -26 6 0 10 9 10 19 0 11 -4 23 -10 26 -6
4 -10 -5 -10 -19z"/>
<path d="M6566 9965 c-3 -8 -1 -15 4 -15 6 0 10 7 10 15 0 8 -2 15 -4 15 -2 0
-6 -7 -10 -15z"/>
<path d="M6602 9953 c-15 -27 -15 -33 -1 -33 6 0 17 -7 25 -15 19 -18 40 -10
40 15 0 14 -7 20 -22 20 -13 0 -24 7 -26 18 -3 15 -5 14 -16 -5z"/>
<path d="M18315 17077 c-59 -35 -84 -62 -95 -103 -28 -97 12 -188 95 -219 202
-78 328 217 134 315 -43 22 -104 25 -134 7z m144 -34 c14 -10 37 -41 50 -67
22 -45 23 -52 12 -95 -18 -70 -33 -80 -71 -47 -44 36 -107 36 -143 0 -34 -34
-53 -26 -67 28 -14 49 -7 109 17 144 40 61 143 80 202 37z m-31 -219 c12 -8
22 -21 22 -29 0 -32 -75 -46 -125 -23 -30 14 -31 22 -5 48 24 24 77 26 108 4z"/>
<path d="M18331 16994 c-12 -15 -21 -35 -21 -45 0 -28 36 -59 69 -59 55 0 81
70 41 110 -28 28 -64 25 -89 -6z m65 -2 c34 -23 20 -82 -21 -82 -55 0 -51 82
5 89 3 0 10 -3 16 -7z"/>
<path d="M18911 17003 c1 -30 4 -38 6 -20 2 15 9 25 14 22 10 -7 12 6 3 29
-12 32 -24 15 -23 -31z"/>
<path d="M18996 17034 c-9 -22 -8 -24 9 -24 8 0 15 9 15 20 0 24 -15 27 -24 4z"/>
<path d="M19283 17000 c0 -30 2 -43 4 -27 2 15 2 39 0 55 -2 15 -4 2 -4 -28z"/>
<path d="M19596 17032 c-2 -4 -1 -14 3 -21 6 -10 10 -9 14 3 6 16 -8 32 -17
18z"/>
<path d="M16515 16988 c-19 -18 -37 -45 -41 -60 -6 -29 -5 -30 51 -30 14 0 29
0 33 1 4 1 7 22 6 49 -1 26 3 53 8 60 23 27 -23 11 -57 -20z"/>
<path d="M19334 17005 c-3 -8 -4 -20 -2 -27 3 -7 7 -1 10 15 6 29 1 36 -8 12z"/>
<path d="M19370 17010 c0 -5 5 -10 11 -10 5 0 7 5 4 10 -3 6 -8 10 -11 10 -2
0 -4 -4 -4 -10z"/>
<path d="M18820 17000 c0 -5 5 -10 10 -10 6 0 10 5 10 10 0 6 -4 10 -10 10 -5
0 -10 -4 -10 -10z"/>
<path d="M18950 16981 c0 -5 5 -13 10 -16 6 -3 10 -2 10 4 0 5 -4 13 -10 16
-5 3 -10 2 -10 -4z"/>
<path d="M19600 16971 c0 -6 4 -13 10 -16 6 -3 7 1 4 9 -7 18 -14 21 -14 7z"/>
<path d="M18710 16960 c0 -5 5 -10 11 -10 5 0 7 5 4 10 -3 6 -8 10 -11 10 -2
0 -4 -4 -4 -10z"/>
<path d="M18750 16960 c-9 -6 -10 -10 -3 -10 6 0 15 5 18 10 8 12 4 12 -15 0z"/>
<path d="M9565 15685 c0 -401 1 -564 2 -362 2 203 2 531 0 730 -1 199 -2 34
-2 -368z"/>
<path d="M7163 15983 c13 -3 17 -16 19 -51 l1 -47 4 45 c3 24 10 48 16 52 7 4
-4 7 -23 7 -19 -1 -27 -3 -17 -6z"/>
<path d="M7577 15983 c-3 -5 8 -8 24 -9 15 -1 26 3 23 7 -6 11 -41 12 -47 2z"/>
<path d="M7336 15971 c-3 -4 -2 -28 3 -52 l9 -44 1 53 c1 51 -2 61 -13 43z"/>
<path d="M7473 15935 c0 -27 2 -38 4 -22 2 15 2 37 0 50 -2 12 -4 0 -4 -28z"/>
<path d="M8056 15933 c9 -52 14 -54 14 -5 0 23 -5 42 -10 42 -7 0 -8 -14 -4
-37z"/>
<path d="M7963 15920 c0 -25 2 -35 4 -22 2 12 2 32 0 45 -2 12 -4 2 -4 -23z"/>
<path d="M7431 15938 c-1 -11 -9 -18 -20 -18 -25 0 -37 -18 -22 -33 8 -8 11
-6 11 6 0 22 27 22 33 0 4 -17 4 -17 12 0 4 10 3 28 -3 40 -9 18 -11 19 -11 5z"/>
<path d="M11216 15941 c-4 -7 -5 -15 -2 -18 9 -9 19 4 14 18 -4 11 -6 11 -12
0z"/>
<path d="M7670 15916 c0 -14 4 -27 8 -30 5 -3 6 8 4 25 -5 35 -12 38 -12 5z"/>
<path d="M7718 15915 c-6 -30 -3 -43 8 -33 3 4 4 19 2 35 l-3 28 -7 -30z"/>
<path d="M7870 15917 c0 -9 9 -12 30 -9 36 5 35 7 -2 16 -20 4 -28 3 -28 -7z"/>
<path d="M8022 15910 c0 -14 2 -19 5 -12 2 6 2 18 0 25 -3 6 -5 1 -5 -13z"/>
<path d="M10155 15915 c-124 -66 -172 -215 -111 -338 114 -226 447 -147 450
106 1 82 -40 167 -102 211 -39 28 -53 31 -125 34 -61 2 -90 -1 -112 -13z m123
-152 c2 -32 8 -44 24 -49 16 -5 19 -12 14 -37 -18 -89 -77 -140 -84 -72 -2 17
-13 37 -24 46 -20 16 -20 17 -3 70 25 76 34 91 53 87 12 -2 18 -15 20 -45z"/>
<path d="M10240 15695 c0 -8 4 -15 9 -15 5 0 11 -8 13 -17 3 -16 4 -16 10 -2
4 10 -1 23 -13 32 -16 14 -19 15 -19 2z"/>
<path d="M10712 15910 c0 -14 2 -19 5 -12 2 6 2 18 0 25 -3 6 -5 1 -5 -13z"/>
<path d="M10920 15920 c0 -5 7 -7 15 -4 8 4 15 8 15 10 0 2 -7 4 -15 4 -8 0
-15 -4 -15 -10z"/>
<path d="M10980 15919 c0 -5 5 -7 10 -4 6 3 10 8 10 11 0 2 -4 4 -10 4 -5 0
-10 -5 -10 -11z"/>
<path d="M11034 15915 c-8 -20 4 -65 16 -65 6 0 5 8 -1 19 -7 10 -9 26 -6 35
7 17 37 22 37 6 0 -5 5 -10 11 -10 8 0 8 5 -1 15 -16 19 -49 19 -56 0z"/>
<path d="M11120 15895 c0 -19 2 -35 4 -35 2 0 6 16 8 35 2 19 0 35 -4 35 -4 0
-8 -16 -8 -35z"/>
<path d="M11150 15926 c0 -2 7 -7 16 -10 8 -3 12 -2 9 4 -6 10 -25 14 -25 6z"/>
<path d="M10870 15864 c0 -8 5 -12 10 -9 6 3 10 10 10 16 0 5 -4 9 -10 9 -5 0
-10 -7 -10 -16z"/>
<path d="M10760 15860 c-23 -7 -23 -8 -3 -9 12 -1 25 4 28 9 3 6 5 10 3 9 -2
-1 -14 -5 -28 -9z"/>
<path d="M6677 15813 c-2 -5 -12 -32 -22 -62 -16 -49 -16 -55 -1 -63 9 -5 16
-22 16 -37 0 -16 7 -34 15 -41 13 -10 17 -7 30 24 26 61 29 92 11 99 -11 4
-16 19 -16 47 0 28 -4 40 -14 40 -8 0 -17 -3 -19 -7z m34 -96 c15 -14 17 -21
7 -42 -14 -30 -28 -33 -28 -5 0 11 -7 23 -15 26 -18 7 -19 14 -3 51 10 25 12
26 16 8 2 -11 13 -28 23 -38z"/>
<path d="M7171 15681 c-14 -11 -21 -23 -17 -30 6 -9 11 -9 22 0 19 15 23 1 26
-86 2 -54 6 -70 18 -70 12 0 15 18 15 100 0 93 -1 100 -20 102 -11 2 -31 -5
-44 -16z"/>
<path d="M7388 15689 c-19 -11 -25 -39 -8 -39 6 0 19 5 29 12 26 16 53 3 49
-24 -2 -15 -11 -24 -25 -26 -30 -4 -29 -20 1 -32 30 -11 38 -23 30 -44 -8 -20
-38 -20 -68 0 -31 20 -45 1 -20 -27 24 -26 87 -26 114 1 24 24 25 38 4 69 -12
17 -13 26 -5 34 17 17 13 52 -7 70 -21 19 -68 22 -94 6z"/>
<path d="M7566 15684 c-9 -8 -16 -22 -16 -30 0 -19 29 -18 36 1 8 19 38 19 54
0 15 -18 0 -45 -55 -98 -19 -19 -35 -42 -35 -51 0 -15 10 -16 68 -14 72 3 92
21 30 26 -21 2 -38 6 -38 9 0 2 16 23 35 46 41 47 48 99 16 117 -29 15 -77 12
-95 -6z"/>
<path d="M7717 15694 c-14 -14 6 -24 49 -24 24 0 44 -5 44 -10 0 -6 -16 -42
-35 -80 -39 -78 -42 -90 -20 -90 19 0 111 183 100 199 -7 12 -127 15 -138 5z"/>
<path d="M7954 15679 c-14 -16 -19 -36 -19 -84 0 -78 19 -105 76 -105 43 0 62
21 72 76 8 41 -8 106 -29 121 -28 20 -78 16 -100 -8z m90 -47 c19 -69 -19
-135 -59 -102 -19 15 -20 111 -3 128 22 22 52 9 62 -26z"/>
<path d="M8144 15679 c-14 -16 -19 -36 -19 -84 0 -48 5 -68 19 -84 25 -27 86
-29 109 -3 36 39 33 136 -4 173 -26 26 -80 25 -105 -2z m86 -28 c5 -11 10 -36
10 -56 0 -46 -15 -75 -40 -75 -25 0 -40 29 -40 75 0 46 15 75 40 75 11 0 24
-9 30 -19z"/>
<path d="M8447 15693 c-7 -12 -67 -186 -67 -195 0 -19 31 -6 42 17 9 20 18 25
50 25 32 0 40 -4 48 -25 10 -25 41 -35 39 -12 0 6 -15 53 -32 102 -26 72 -36
91 -54 93 -11 2 -23 0 -26 -5z m43 -105 c0 -11 -7 -18 -20 -18 -21 0 -24 10
-13 49 6 23 7 23 20 6 7 -11 13 -27 13 -37z"/>
<path d="M8600 15595 c0 -81 3 -106 13 -103 7 3 14 28 17 59 4 48 8 54 29 57
31 5 41 -12 41 -70 0 -36 4 -48 15 -48 12 0 15 14 15 63 0 77 -20 103 -69 92
-27 -6 -30 -4 -33 21 -2 15 -9 29 -15 32 -10 3 -13 -22 -13 -103z"/>
<path d="M10717 15673 c-16 -15 -4 -23 33 -23 25 0 43 -5 46 -13 3 -8 -11 -47
-31 -87 -33 -70 -35 -103 -5 -85 17 10 90 170 90 195 0 18 -7 20 -63 20 -35 0
-67 -3 -70 -7z"/>
<path d="M10950 15660 c-11 -11 -20 -24 -20 -30 0 -5 9 -10 20 -10 11 0 20 4
20 9 0 13 27 21 45 15 24 -10 18 -43 -10 -54 -33 -13 -32 -26 5 -39 33 -11 37
-22 15 -44 -15 -15 -55 -12 -55 4 0 5 -9 9 -20 9 -27 0 -25 -25 2 -44 33 -23
75 -20 103 9 29 28 31 42 9 74 -12 17 -13 26 -5 34 30 30 -8 87 -59 87 -17 0
-39 -9 -50 -20z"/>
<path d="M11137 15662 c-18 -20 -23 -52 -9 -52 5 0 17 9 27 20 23 25 41 25 54
2 12 -22 0 -42 -61 -110 -21 -23 -36 -47 -33 -52 8 -13 132 -13 140 1 10 15 0
21 -41 28 l-37 6 37 43 c40 49 47 89 18 115 -25 22 -75 21 -95 -1z"/>
<path d="M11425 15671 c-11 -19 -65 -180 -65 -196 0 -24 30 -17 40 9 17 45 78
46 98 1 12 -26 42 -35 42 -12 -1 6 -16 55 -34 107 -26 74 -38 96 -54 98 -11 2
-23 -2 -27 -7z m39 -83 c9 -35 8 -38 -14 -38 -20 0 -25 15 -14 44 9 23 21 20
28 -6z"/>
<path d="M11575 15668 c-3 -8 -4 -57 -3 -109 2 -76 6 -94 18 -94 11 0 16 16
20 60 5 56 7 60 30 60 23 0 25 -4 30 -60 4 -44 9 -60 20 -60 16 0 26 79 15
122 -7 28 -41 44 -72 32 -19 -7 -22 -4 -25 23 -3 33 -24 49 -33 26z"/>
<path d="M7867 15524 c-14 -14 -7 -35 11 -32 9 2 17 10 17 17 0 16 -18 25 -28
15z"/>
<path d="M7286 15478 c-3 -17 -3 -34 0 -37 8 -9 34 30 34 51 0 31 -27 20 -34
-14z"/>
<path d="M10860 15494 c-9 -10 -10 -18 -2 -26 12 -12 32 -2 32 17 0 21 -16 26
-30 9z"/>
<path d="M16197 14343 c-13 -12 -8 -368 5 -381 9 -9 74 -12 230 -12 l218 0 0
200 0 200 -223 0 c-123 0 -227 -3 -230 -7z m193 -135 c0 -9 3 -9 12 0 19 19
66 14 88 -8 41 -41 10 -110 -49 -110 -17 0 -33 5 -36 10 -5 8 -11 8 -19 1 -17
-14 -26 -4 -26 31 0 16 -6 31 -15 34 -19 8 -19 19 1 38 18 19 44 21 44 4z"/>
<path d="M16440 14155 c0 -17 5 -25 13 -22 6 2 12 12 12 22 0 10 -6 20 -12 23
-8 2 -13 -6 -13 -23z"/>
<path d="M7360 14170 l0 -51 36 3 c46 4 62 26 48 65 -8 23 -16 29 -47 31 l-37
3 0 -51z m60 25 c7 -9 10 -25 6 -41 -9 -33 -49 -31 -54 4 -7 48 21 69 48 37z"/>
<path d="M8205 14184 c-22 -52 -20 -67 5 -52 16 10 24 10 40 0 11 -6 22 -12
25 -12 10 0 -30 93 -42 97 -7 3 -19 -12 -28 -33z m35 -15 c0 -5 -4 -9 -10 -9
-5 0 -10 7 -10 16 0 8 5 12 10 9 6 -3 10 -10 10 -16z"/>
<path d="M8480 14170 c0 -27 5 -50 10 -50 6 0 10 23 10 50 0 28 -4 50 -10 50
-5 0 -10 -22 -10 -50z"/>
<path d="M7564 14179 c3 -17 6 -38 6 -45 0 -8 3 -14 8 -14 4 0 8 20 9 45 1 35
-2 45 -14 45 -12 0 -14 -7 -9 -31z"/>
<path d="M7485 14190 c-3 -5 1 -10 9 -10 23 0 20 -17 -4 -23 -11 -3 -20 -12
-20 -21 0 -12 10 -16 35 -16 29 0 35 4 35 21 0 44 -37 77 -55 49z m30 -50 c3
-5 -3 -10 -15 -10 -12 0 -18 5 -15 10 3 6 10 10 15 10 5 0 12 -4 15 -10z"/>
<path d="M7635 14190 c-3 -5 0 -10 8 -10 8 0 17 -11 19 -25 4 -17 1 -25 -9
-25 -9 0 -13 6 -9 15 7 19 -8 20 -23 2 -14 -18 -4 -27 31 -27 34 0 45 21 30
56 -12 25 -36 32 -47 14z"/>
<path d="M8318 14193 c-13 -3 -18 -15 -18 -39 0 -19 5 -34 10 -34 6 0 10 14
10 30 0 41 27 39 39 -2 l9 -33 1 31 c1 27 -14 56 -28 53 -4 -1 -14 -3 -23 -6z"/>
<path d="M8410 14190 c-13 -8 -12 -10 3 -10 9 0 17 -4 17 -9 0 -5 3 -16 6 -25
4 -11 1 -16 -11 -16 -12 0 -15 5 -11 16 4 10 1 14 -6 12 -7 -3 -14 -12 -16
-21 -3 -13 4 -17 32 -17 34 0 36 2 36 34 0 22 -6 36 -16 40 -19 7 -16 8 -34
-4z"/>
<path d="M8577 14194 c-4 -4 -7 -16 -7 -26 0 -24 -17 -23 -25 2 -3 11 -10 20
-15 20 -5 0 -4 -14 2 -30 5 -17 8 -42 5 -56 -8 -42 17 -21 36 31 17 46 19 74
4 59z"/>
<path d="M8623 14184 c-4 -11 1 -22 13 -31 10 -8 18 -19 17 -24 -2 -5 2 -9 7
-9 6 0 10 9 10 20 0 11 -7 20 -15 20 -8 0 -15 7 -15 15 0 9 6 12 17 8 11 -4
14 -3 9 5 -11 17 -36 15 -43 -4z"/>
<path d="M8753 14193 c-20 -7 -15 -31 7 -38 27 -8 25 -23 -2 -28 -17 -3 -14
-5 10 -6 36 -1 44 20 15 39 -13 8 -14 13 -5 16 6 3 10 10 6 15 -6 10 -12 10
-31 2z"/>
<path d="M17401 14184 c0 -11 3 -14 6 -6 3 7 2 16 -1 19 -3 4 -6 -2 -5 -13z"/>
<path d="M17481 14184 c0 -11 3 -14 6 -6 3 7 2 16 -1 19 -3 4 -6 -2 -5 -13z"/>
<path d="M17921 14184 c0 -11 3 -14 6 -6 3 7 2 16 -1 19 -3 4 -6 -2 -5 -13z"/>
<path d="M17996 14185 c-3 -8 -1 -15 4 -15 6 0 10 7 10 15 0 8 -2 15 -4 15 -2
0 -6 -7 -10 -15z"/>
<path d="M6762 14170 c0 -14 2 -19 5 -12 2 6 2 18 0 25 -3 6 -5 1 -5 -13z"/>
<path d="M8703 14155 c0 -22 2 -30 4 -17 2 12 2 30 0 40 -3 9 -5 -1 -4 -23z"/>
<path d="M2438 13796 c-78 -28 -120 -73 -133 -142 -15 -84 48 -178 136 -203
32 -9 168 -11 514 -9 464 3 471 3 512 25 66 36 88 75 88 158 0 85 -22 122 -93
157 l-47 23 -470 2 c-375 2 -478 0 -507 -11z"/>
<path d="M4060 13630 c0 -63 2 -71 18 -68 14 3 17 14 17 68 0 54 -3 65 -17 68
-16 3 -18 -5 -18 -68z"/>
<path d="M4213 13684 c-18 -9 -33 -20 -33 -24 0 -16 14 -18 41 -5 36 19 79 19
105 0 21 -14 34 -11 34 7 0 12 -64 38 -92 38 -13 0 -38 -8 -55 -16z"/>
<path d="M1582 13674 c-28 -19 -29 -39 -2 -24 19 10 20 8 20 -45 0 -30 5 -55
10 -55 12 0 14 127 2 134 -5 3 -18 -2 -30 -10z"/>
<path d="M1252 13668 c-18 -18 -15 -27 8 -21 18 5 20 0 20 -46 0 -28 5 -51 10
-51 6 0 10 28 10 65 0 56 -3 65 -18 65 -10 0 -23 -5 -30 -12z"/>
<path d="M1343 13673 c-7 -2 -13 -12 -13 -20 0 -12 3 -13 14 -3 13 10 15 3 18
-42 4 -73 22 -67 26 10 3 64 -4 72 -45 55z"/>
<path d="M1484 13664 c-19 -15 -18 -15 4 -11 21 5 22 2 22 -49 0 -30 5 -54 10
-54 6 0 10 28 10 65 0 70 -9 79 -46 49z"/>
<path d="M4521 13666 c-8 -10 -9 -15 -1 -18 6 -2 12 -16 13 -31 3 -44 22 -31
22 15 0 44 -14 58 -34 34z"/>
<path d="M4582 13663 c-14 -26 -4 -43 24 -43 15 0 23 -4 19 -10 -4 -6 -15 -8
-26 -5 -10 4 -19 2 -19 -4 0 -5 10 -13 22 -17 25 -7 48 17 48 51 0 42 -50 62
-68 28z m40 -18 c0 -5 -5 -11 -11 -13 -6 -2 -11 4 -11 13 0 9 5 15 11 13 6 -2
11 -8 11 -13z"/>
<path d="M1426 13663 c-11 -11 -6 -23 9 -23 8 0 15 4 15 9 0 13 -16 22 -24 14z"/>
<path d="M4007 13664 c-4 -4 -7 -29 -7 -56 0 -42 3 -49 18 -46 13 3 17 14 17
52 0 46 -12 66 -28 50z"/>
<path d="M4224 13635 c-22 -17 -24 -16 44 -18 58 -2 74 6 43 22 -28 15 -64 14
-87 -4z"/>
<path d="M3947 13634 c-4 -4 -7 -23 -7 -41 0 -27 4 -34 18 -31 12 2 17 13 17
37 0 33 -13 49 -28 35z"/>
<path d="M3882 13588 c2 -13 10 -23 18 -23 8 0 16 10 18 23 3 17 -2 22 -18 22
-16 0 -21 -5 -18 -22z"/>
<path d="M1426 13591 c-4 -5 -2 -12 3 -15 5 -4 12 -2 15 3 4 5 2 12 -3 15 -5
4 -12 2 -15 -3z"/>
<path d="M4253 13588 c2 -7 10 -13 17 -13 7 0 15 6 18 13 2 7 -5 12 -18 12
-13 0 -20 -5 -17 -12z"/>
<path d="M581 13394 c0 -11 3 -14 6 -6 3 7 2 16 -1 19 -3 4 -6 -2 -5 -13z"/>
<path d="M1042 13133 c9 -10 19 -28 23 -41 5 -18 11 -21 33 -16 15 3 42 8 59
11 28 4 31 8 23 23 -12 23 -61 40 -113 40 -37 0 -39 -1 -25 -17z"/>
<path d="M973 13094 c-6 -17 14 -36 32 -31 6 2 11 13 13 25 3 17 -2 22 -18 22
-11 0 -23 -7 -27 -16z"/>
<path d="M920 13060 c0 -5 5 -10 11 -10 5 0 7 5 4 10 -3 6 -8 10 -11 10 -2 0
-4 -4 -4 -10z"/>
<path d="M1630 13040 c0 -5 5 -10 10 -10 6 0 10 5 10 10 0 6 -4 10 -10 10 -5
0 -10 -4 -10 -10z"/>
<path d="M1855 13040 c-3 -5 -1 -10 4 -10 6 0 11 5 11 10 0 6 -2 10 -4 10 -3
0 -8 -4 -11 -10z"/>
<path d="M2171 13009 c-27 -63 -34 -89 -23 -89 6 0 12 7 16 15 3 8 17 15 31
15 14 0 28 -7 31 -15 4 -8 10 -15 15 -15 9 0 -27 110 -41 124 -6 6 -17 -7 -29
-35z m38 -31 c1 -5 -6 -8 -14 -8 -16 0 -19 9 -8 36 6 16 7 16 14 -2 4 -10 8
-22 8 -26z"/>
<path d="M1350 12980 c0 -33 4 -60 10 -60 6 0 10 11 10 25 0 21 5 25 30 25 25
0 30 -4 30 -25 0 -14 5 -25 10 -25 6 0 10 27 10 60 0 33 -4 60 -10 60 -5 0
-10 -11 -10 -25 0 -21 -5 -25 -30 -25 -25 0 -30 4 -30 25 0 14 -4 25 -10 25
-6 0 -10 -27 -10 -60z"/>
<path d="M1587 12988 c-3 -29 -1 -57 4 -62 5 -6 9 15 9 52 0 34 -2 62 -4 62
-2 0 -6 -24 -9 -52z"/>
<path d="M1788 13019 c-2 -7 -1 -30 2 -53 4 -31 10 -41 25 -43 11 -2 14 0 8 3
-16 7 -17 74 -2 74 6 0 4 7 -5 15 -18 18 -23 19 -28 4z"/>
<path d="M2403 13012 c-21 -3 -23 -9 -23 -63 0 -33 4 -59 10 -59 6 0 10 8 10
19 0 14 6 17 25 14 19 -4 27 0 36 20 20 43 -9 78 -58 69z m45 -35 c5 -23 -16
-47 -34 -40 -14 5 -19 44 -7 57 12 12 38 1 41 -17z"/>
<path d="M1491 12996 c-34 -40 14 -102 56 -71 17 13 16 14 -11 12 -16 -1 -31
4 -33 11 -3 8 6 12 27 12 27 0 31 3 28 23 -4 27 -48 36 -67 13z m47 -14 c2 -7
-6 -12 -17 -12 -21 0 -27 11 -14 24 9 9 26 2 31 -12z"/>
<path d="M1630 12965 c0 -25 5 -45 10 -45 6 0 10 20 10 45 0 25 -4 45 -10 45
-5 0 -10 -20 -10 -45z"/>
<path d="M1679 12989 c-16 -30 3 -69 34 -69 29 0 47 17 47 45 0 45 -60 63 -81
24z m56 -24 c0 -23 -4 -30 -20 -30 -21 0 -31 25 -21 51 11 28 41 12 41 -21z"/>
<path d="M1850 12965 c0 -25 5 -45 10 -45 6 0 10 20 10 45 0 25 -4 45 -10 45
-5 0 -10 -20 -10 -45z"/>
<path d="M1900 12985 c-14 -37 3 -67 37 -63 15 2 29 10 31 18 5 13 3 13 -12 1
-15 -12 -19 -12 -33 1 -9 10 -13 24 -8 37 7 24 25 27 44 9 11 -11 13 -10 9 2
-3 8 -17 16 -31 18 -21 3 -29 -2 -37 -23z"/>
<path d="M2004 12995 c-8 -20 4 -35 27 -35 11 0 19 -7 19 -16 0 -13 -6 -15
-27 -9 -21 5 -25 4 -17 -5 17 -17 58 -8 62 12 2 12 -6 21 -22 28 -35 13 -34
34 0 26 17 -5 23 -3 19 4 -9 15 -55 12 -61 -5z"/>
<path d="M2270 12944 c0 -41 4 -63 10 -59 6 3 10 14 10 24 0 14 6 17 25 14 19
-4 27 0 36 20 17 38 -3 67 -46 67 l-35 0 0 -66z m68 30 c3 -23 -21 -49 -38
-39 -11 7 -14 48 -3 59 13 13 38 1 41 -20z"/>
<path d="M1044 12521 c-128 -58 -139 -236 -19 -306 l43 -26 584 3 584 3 38 25
c109 73 101 241 -14 300 -38 19 -58 20 -607 20 -533 0 -571 -2 -609 -19z m156
-157 c21 -57 19 -83 -4 -51 -16 21 -56 23 -56 2 0 -8 -5 -15 -11 -15 -13 0 -7
28 16 83 8 20 19 37 24 37 5 0 19 -25 31 -56z m50 6 c0 -47 2 -50 25 -50 14 0
25 -4 25 -10 0 -5 -16 -10 -35 -10 l-35 0 0 60 c0 33 4 60 10 60 6 0 10 -22
10 -50z m90 0 c0 -47 2 -50 25 -50 14 0 25 -4 25 -10 0 -5 -16 -10 -35 -10
l-35 0 0 60 c0 33 4 60 10 60 6 0 10 -22 10 -50z m188 32 c3 -9 -3 -11 -21 -7
-14 4 -28 2 -31 -4 -4 -6 4 -13 19 -17 35 -9 50 -38 29 -58 -20 -20 -48 -20
-64 -1 -16 19 -5 34 12 17 16 -16 38 -15 38 2 0 8 -11 17 -25 20 -31 8 -42 31
-24 52 14 17 60 15 67 -4z m92 8 c0 -5 -11 -10 -25 -10 -16 0 -25 -6 -25 -15
0 -9 9 -15 25 -15 14 0 25 -4 25 -10 0 -5 -11 -10 -25 -10 -16 0 -25 -6 -25
-15 0 -10 10 -15 32 -15 23 0 29 -3 21 -11 -6 -6 -23 -9 -39 -7 -28 3 -29 5
-32 61 l-3 57 36 0 c19 0 35 -4 35 -10z m72 -27 l23 -38 3 38 c5 61 22 42 22
-25 l-1 -63 -34 39 -35 39 0 -31 c0 -17 -4 -34 -10 -37 -6 -4 -10 17 -10 54 0
34 4 61 9 61 5 0 20 -17 33 -37z m146 19 c3 -9 -3 -11 -21 -7 -36 9 -42 -11
-7 -24 23 -7 30 -16 30 -35 0 -33 -43 -47 -68 -23 -19 20 -9 35 12 18 15 -13
36 -7 36 9 0 4 -13 13 -30 19 -32 11 -38 29 -18 49 16 16 60 12 66 -6z m117
-6 c26 -39 0 -96 -44 -96 -19 0 -51 39 -51 62 0 53 67 78 95 34z m105 3 c9
-15 8 -24 -1 -35 -10 -12 -10 -20 -1 -34 18 -29 -4 -33 -22 -5 -19 28 -36 25
-36 -6 0 -11 -4 -17 -10 -14 -5 3 -10 31 -10 61 l0 54 35 0 c24 0 37 -6 45
-21z m100 6 c11 -13 8 -14 -19 -9 -38 8 -43 -12 -6 -26 34 -13 43 -39 20 -56
-25 -18 -40 -18 -60 2 -21 21 -13 29 15 14 15 -8 25 -9 32 -2 7 7 0 16 -21 26
-29 15 -40 43 -24 59 12 12 50 7 63 -8z"/>
<path d="M1160 12366 c0 -9 5 -16 10 -16 6 0 10 4 10 9 0 6 -4 13 -10 16 -5 3
-10 -1 -10 -9z"/>
<path d="M1885 12380 c-6 -19 9 -60 23 -60 26 1 44 36 30 63 -12 23 -45 22
-53 -3z"/>
<path d="M2000 12385 c0 -8 9 -15 20 -15 11 0 20 7 20 15 0 8 -9 15 -20 15
-11 0 -20 -7 -20 -15z"/>
<path d="M3681 12414 c-24 -17 -29 -72 -9 -92 19 -19 55 -14 72 10 18 26 13
38 -17 38 -20 -1 -21 -2 -5 -14 20 -15 14 -26 -13 -26 -26 0 -43 35 -29 60 11
21 35 27 45 10 9 -14 28 -13 23 2 -7 21 -44 27 -67 12z"/>
<path d="M3909 12423 c-9 -2 -21 -15 -28 -29 -27 -61 48 -115 84 -60 30 45 -6
100 -56 89z m41 -28 c20 -24 4 -65 -25 -65 -18 0 -26 7 -31 25 -7 27 9 55 31
55 7 0 18 -7 25 -15z"/>
<path d="M4117 12423 c-11 -10 -8 -113 3 -113 6 0 10 9 10 20 0 13 7 20 18 20
45 0 57 55 16 70 -30 12 -38 12 -47 3z m51 -36 c2 -12 -3 -17 -17 -17 -15 0
-21 6 -21 21 0 25 33 22 38 -4z"/>
<path d="M4293 12423 c-7 -2 -13 -12 -13 -21 0 -12 3 -13 12 -4 7 7 18 12 25
12 21 0 15 -25 -12 -50 -35 -33 -32 -50 10 -50 19 0 35 5 35 10 0 6 -10 10
-21 10 -20 0 -21 1 -5 23 28 38 30 49 11 63 -20 15 -23 15 -42 7z"/>
<path d="M4790 12410 c-11 -11 -20 -29 -20 -40 0 -23 33 -60 54 -60 19 0 46
27 46 46 0 8 -10 14 -22 14 -17 0 -19 -3 -9 -9 15 -10 7 -31 -13 -31 -23 0
-39 28 -32 55 7 27 34 33 54 13 6 -6 15 -8 19 -4 9 9 -24 36 -44 36 -7 0 -22
-9 -33 -20z"/>
<path d="M4890 12375 c0 -30 5 -55 10 -55 6 0 10 9 10 19 0 11 6 22 13 24 10
4 10 6 0 6 -15 1 -18 41 -3 41 6 0 10 5 10 10 0 6 -9 10 -20 10 -18 0 -20 -7
-20 -55z"/>
<path d="M2602 12408 c-17 -17 -15 -73 2 -87 8 -7 27 -11 43 -9 22 2 29 9 31
31 2 19 -1 27 -12 27 -8 0 -18 -4 -21 -10 -3 -5 2 -10 12 -10 16 0 16 -2 2
-15 -28 -28 -69 8 -53 48 7 20 35 30 48 17 16 -16 30 -12 16 5 -15 18 -51 20
-68 3z"/>
<path d="M2700 12366 c0 -31 5 -56 10 -56 6 0 10 9 10 20 0 26 17 26 39 -1 16
-20 17 -19 16 33 l0 53 -37 3 -38 3 0 -55z m59 31 c13 -16 5 -27 -21 -27 -18
0 -25 20 -11 33 10 10 19 8 32 -6z"/>
<path d="M2820 12405 c-16 -20 -16 -61 0 -80 20 -25 63 -15 78 18 12 24 11 31
-2 53 -19 27 -57 32 -76 9z m60 -14 c14 -27 13 -37 -6 -55 -20 -21 -54 -4 -54
27 0 44 41 63 60 28z"/>
<path d="M2926 12406 c-5 -10 -5 -34 0 -55 8 -30 14 -37 39 -39 19 -3 33 2 42
14 15 21 18 94 3 94 -5 0 -10 -17 -10 -39 0 -79 -56 -77 -62 2 -3 33 -6 38
-12 23z"/>
<path d="M3040 12365 c0 -30 5 -55 10 -55 6 0 10 9 10 20 0 13 7 20 19 20 26
0 44 25 36 50 -5 15 -15 20 -41 20 l-34 0 0 -55z m55 20 c0 -11 -8 -21 -17
-23 -14 -3 -18 3 -18 23 0 20 4 26 18 23 9 -2 17 -12 17 -23z"/>
<path d="M3193 12413 c-7 -2 -13 -9 -13 -14 0 -4 7 -6 15 -3 12 5 15 -3 15
-42 0 -34 3 -45 11 -37 13 13 8 95 -6 99 -5 1 -16 0 -22 -3z"/>
<path d="M3770 12371 c0 -27 5 -53 10 -56 6 -3 10 3 10 14 0 27 26 27 40 1 6
-11 15 -20 21 -20 6 0 7 5 2 13 -4 6 -8 30 -8 52 0 39 -1 40 -37 43 l-38 3 0
-50z m63 25 c7 -18 -1 -26 -25 -26 -11 0 -18 7 -18 20 0 23 35 28 43 6z"/>
<path d="M4001 12379 c-1 -53 16 -74 53 -65 24 6 36 30 36 79 0 44 -19 31 -22
-15 -2 -36 -7 -44 -25 -46 -23 -3 -26 3 -36 68 -3 14 -5 4 -6 -21z"/>
<path d="M13140 12366 c-5 -14 -7 -55 -4 -93 9 -139 35 -584 44 -766 5 -104
13 -193 16 -199 4 -6 6 -78 5 -158 -2 -145 -2 -147 21 -153 12 -4 24 -4 26 -2
7 7 3 173 -8 335 -14 221 -28 457 -46 760 -8 151 -17 281 -19 288 -7 20 -25
14 -35 -12z"/>
<path d="M565 12370 c-3 -5 -1 -10 4 -10 6 0 11 5 11 10 0 6 -2 10 -4 10 -3 0
-8 -4 -11 -10z"/>
<path d="M4210 12370 c0 -5 9 -10 20 -10 11 0 20 5 20 10 0 6 -9 10 -20 10
-11 0 -20 -4 -20 -10z"/>
<path d="M13004 12228 c7 -164 24 -477 52 -943 10 -164 21 -293 27 -297 6 -3
17 -4 25 0 17 6 16 56 -28 727 -5 83 -14 242 -20 355 -15 294 -17 310 -42 310
-21 0 -21 -2 -14 -152z"/>
<path d="M11802 12343 c-13 -23 -28 -318 -42 -808 -17 -575 -38 -1016 -49
-1028 -10 -12 -31 -218 -52 -507 -6 -85 -13 -158 -15 -162 -7 -10 -84 72 -95
100 -5 14 -16 106 -25 206 -24 295 -42 448 -53 459 -28 28 -39 -35 -66 -385
-4 -49 -11 -88 -16 -88 -19 0 -40 51 -44 111 -3 35 -12 176 -21 314 -9 137
-20 258 -26 268 -13 24 -24 141 -43 437 -19 309 -35 484 -46 501 -6 11 -11 11
-20 2 -14 -14 -23 -169 -38 -683 -6 -201 -14 -434 -17 -519 l-6 -154 -70 72
c-59 61 -74 72 -95 68 -20 -4 -36 4 -69 35 -52 48 -58 43 -11 -8 36 -40 40
-62 15 -78 -13 -8 -23 -8 -39 2 -11 7 -24 11 -27 8 -3 -3 0 -6 6 -6 7 0 12 -9
12 -21 0 -14 -10 -24 -30 -32 -16 -6 -30 -15 -30 -19 0 -4 -7 -8 -15 -8 -30 0
-28 -3 199 -243 72 -76 134 -146 138 -155 6 -17 2 -134 -8 -238 -5 -50 -6 -52
-41 -59 -23 -4 -51 0 -83 11 -58 21 -72 13 -102 -53 -33 -75 -34 -74 -74 100
-9 42 -22 85 -29 93 -12 17 -77 44 -107 44 -17 0 -47 -66 -69 -155 -7 -26 -17
-45 -25 -45 -8 0 -28 -25 -45 -56 -22 -38 -36 -53 -46 -50 -43 17 -66 19 -61
5 2 -8 21 -18 41 -23 43 -11 59 -1 88 55 10 21 27 43 37 48 11 6 28 41 42 88
36 119 31 114 85 94 l45 -16 21 -95 c42 -189 62 -207 117 -103 l33 63 36 -15
c52 -22 140 -20 152 3 5 10 13 73 17 140 4 67 10 122 13 122 9 0 211 -213 211
-222 0 -4 8 -8 18 -8 11 0 49 -35 90 -82 93 -109 225 -237 284 -277 63 -42
258 -281 397 -484 18 -26 51 -67 74 -91 23 -24 51 -56 63 -72 18 -25 29 -29
90 -34 38 -4 71 -5 73 -3 2 1 -10 34 -27 71 -18 38 -32 76 -32 84 0 36 -310
447 -595 789 -55 67 -106 129 -113 138 -10 15 -10 54 3 212 31 405 36 455 50
504 14 53 28 319 45 865 17 554 22 675 31 690 5 10 9 -5 9 -40 0 -30 7 -338
15 -685 39 -1658 39 -1655 65 -1655 16 0 36 52 59 153 12 53 26 97 30 97 5 0
18 -35 31 -77 13 -43 32 -85 45 -97 12 -12 32 -39 43 -62 40 -79 66 -81 110
-9 15 25 31 45 37 45 5 0 32 -8 59 -19 l49 -18 29 -88 c16 -48 37 -122 47
-164 10 -42 27 -97 38 -121 19 -42 52 -144 90 -280 17 -61 31 -104 43 -135 5
-11 21 -58 36 -105 15 -47 32 -90 37 -97 11 -15 177 -22 177 -8 -2 30 -27 104
-34 98 -4 -4 -5 13 -1 39 4 26 3 69 -3 95 -6 26 -16 83 -23 126 -6 42 -16 77
-20 77 -5 0 -9 13 -9 29 0 16 -7 34 -15 41 -10 8 -13 21 -8 39 6 23 5 25 -10
13 -9 -8 -22 -12 -29 -9 -9 4 -7 6 4 6 14 1 16 11 14 67 -2 36 -8 70 -15 77
-6 6 -11 29 -11 52 0 30 -5 43 -21 53 -17 11 -18 16 -8 28 9 11 10 17 2 22 -6
4 -15 20 -18 35 -4 15 -11 30 -16 33 -5 3 -9 20 -9 39 0 41 -9 67 -21 59 -5
-3 -9 12 -8 33 0 21 -3 60 -7 86 -11 82 10 76 41 -10 15 -43 32 -83 37 -90 11
-14 94 -7 114 9 19 14 27 169 64 1238 10 287 17 387 26 377 2 -2 11 -66 19
-143 21 -194 35 -287 46 -300 13 -15 25 -163 44 -529 16 -319 33 -550 40 -575
3 -8 20 -25 38 -38 41 -29 52 -8 12 24 -28 22 -29 25 -41 186 -7 90 -17 264
-23 388 -17 349 -31 512 -47 550 -14 34 -19 71 -49 355 -16 151 -30 208 -48
202 -7 -2 -15 -24 -19 -48 -7 -44 -28 -548 -48 -1164 -11 -315 -22 -491 -33
-501 -3 -3 -23 -8 -44 -11 l-38 -5 -24 73 c-13 41 -28 80 -33 87 -15 18 -45
15 -53 -5 -5 -14 -11 -8 -28 27 -11 25 -20 57 -18 72 1 14 -2 29 -8 33 -6 3
-11 15 -11 26 0 26 -16 24 -24 -3 -4 -18 -8 -20 -17 -11 -10 10 -9 17 6 33 12
14 15 23 8 32 -6 7 -13 24 -16 38 -3 14 -22 81 -42 150 -20 69 -40 139 -45
155 -4 17 -18 59 -29 95 -12 36 -31 99 -42 140 -21 83 -105 365 -149 505 -16
50 -43 136 -60 193 -25 83 -34 103 -48 100 -26 -5 -26 -39 2 -130 61 -200 119
-395 126 -423 13 -50 92 -309 100 -330 4 -11 18 -54 30 -95 11 -41 28 -97 36
-124 49 -157 73 -276 58 -276 -5 0 -18 28 -28 63 -11 34 -25 76 -32 92 -7 17
-29 84 -49 150 -21 66 -48 152 -60 190 -12 39 -33 104 -45 145 -13 41 -27 79
-32 85 -4 5 -8 16 -8 25 1 20 -62 222 -115 375 -23 66 -48 141 -56 168 -7 26
-19 47 -25 47 -9 0 -10 -8 -4 -27 30 -95 81 -265 91 -303 6 -25 15 -54 19 -65
7 -18 49 -155 101 -330 12 -38 25 -81 29 -95 15 -46 60 -194 71 -235 6 -22 15
-49 19 -60 9 -22 40 -127 66 -222 9 -34 14 -69 11 -78 -7 -17 -37 -21 -37 -5
0 6 -4 10 -10 10 -5 0 -10 -9 -10 -19 0 -11 -5 -21 -10 -23 -6 -2 -2 -31 11
-73 36 -125 51 -186 46 -192 -3 -3 -26 3 -52 12 -45 18 -46 18 -69 -5 -14 -12
-30 -35 -36 -51 -18 -42 -33 -36 -60 21 -13 27 -33 56 -44 64 -14 9 -29 41
-45 95 -44 152 -69 136 -115 -71 -14 -62 -24 -20 -30 125 -7 150 -32 1183 -42
1692 -7 380 -22 727 -33 738 -6 6 -13 2 -19 -10z m-578 -1013 c19 -305 35
-478 46 -500 4 -8 10 -35 14 -60 11 -81 37 -543 30 -549 -3 -3 -39 30 -80 73
l-74 79 0 102 c0 161 30 1077 36 1104 3 13 7 22 9 20 2 -2 11 -123 19 -269z
m255 -957 c23 -259 29 -348 22 -356 -4 -4 -22 11 -41 34 l-33 41 7 127 c10
192 18 281 26 281 4 0 13 -57 19 -127z m958 -300 c7 -16 18 -47 25 -70 9 -30
18 -43 31 -43 10 0 16 -3 14 -7 -9 -15 31 -217 45 -228 15 -12 38 -92 38 -134
0 -16 5 -31 11 -33 6 -2 9 -17 7 -33 -3 -28 -6 -25 -34 35 -17 36 -37 85 -44
110 -6 25 -18 59 -25 75 -8 17 -17 48 -21 70 -3 22 -15 52 -25 68 -16 22 -18
31 -8 48 7 13 7 24 2 28 -6 3 -13 18 -17 34 -3 15 -13 27 -21 27 -8 0 -15 5
-15 10 0 6 5 10 11 10 7 0 8 11 4 30 -8 38 6 39 22 3z m143 -558 c0 -8 -4 -15
-10 -15 -5 0 -10 7 -10 15 0 8 5 15 10 15 6 0 10 -7 10 -15z m87 -122 c-3 -15
1 -27 9 -30 11 -4 12 -9 4 -18 -9 -10 -6 -16 10 -25 19 -10 20 -13 7 -23 -25
-20 -25 -50 1 -71 17 -13 20 -21 11 -26 -6 -5 -9 -17 -6 -29 4 -16 0 -21 -13
-21 -10 0 -23 6 -29 14 -10 11 -8 16 8 21 30 9 26 31 -9 45 -29 12 -39 33 -21
44 16 10 4 139 -14 148 -15 9 -21 49 -9 61 12 12 56 -66 51 -90z m-80 40 c-3
-10 -5 -4 -5 12 0 17 2 24 5 18 2 -7 2 -21 0 -30z m148 -293 c3 -5 1 -10 -4
-10 -6 0 -11 5 -11 10 0 6 2 10 4 10 3 0 8 -4 11 -10z m-15 -60 c0 -5 -7 -10
-15 -10 -8 0 -15 5 -15 10 0 6 7 10 15 10 8 0 15 -4 15 -10z m40 -9 c0 -11 -4
-23 -10 -26 -5 -3 -10 -16 -11 -28 0 -12 -3 -16 -6 -9 -7 19 6 82 17 82 6 0
10 -9 10 -19z m7 -68 c-3 -10 -5 -4 -5 12 0 17 2 24 5 18 2 -7 2 -21 0 -30z
m27 -55 c-3 -11 0 -33 7 -49 9 -23 9 -33 0 -42 -6 -6 -12 -22 -13 -36 0 -15
-4 6 -7 44 -7 78 -3 118 11 109 5 -3 6 -15 2 -26z"/>
<path d="M15941 12342 c-12 -22 -27 -322 -41 -807 -17 -575 -38 -1016 -49
-1028 -9 -11 -31 -227 -46 -437 -11 -164 -27 -305 -35 -313 -4 -5 -16 12 -25
38 -10 26 -27 57 -37 70 -21 28 -31 94 -53 380 -25 321 -37 387 -66 358 -12
-12 -32 -205 -49 -473 -20 -325 -33 -328 -49 -10 -20 382 -43 684 -53 703 -13
24 -24 141 -43 437 -19 302 -35 484 -45 500 -13 21 -29 2 -34 -43 -7 -50 -21
-440 -41 -1157 -14 -517 -21 -675 -31 -776 -5 -50 -6 -52 -41 -59 -23 -4 -51
0 -83 11 -58 21 -72 13 -102 -53 -33 -75 -34 -74 -74 100 -21 93 -29 105 -80
123 -58 20 -73 18 -80 -13 -9 -35 -52 -93 -70 -93 -7 0 -28 -13 -46 -29 -25
-22 -46 -30 -83 -32 l-50 -4 -25 52 c-51 107 -75 105 -111 -5 -36 -111 -39
-108 -63 53 -22 143 -35 206 -45 219 -16 20 -31 321 -51 1026 -11 405 -27 767
-36 818 -7 44 -27 36 -35 -14 -7 -38 -29 -676 -50 -1439 -5 -214 -14 -451 -18
-527 -8 -135 -8 -137 -42 -180 -44 -56 -46 -58 -99 -58 -41 0 -48 3 -64 33
-11 17 -27 41 -37 53 -24 26 -34 105 -54 439 -18 293 -33 482 -41 508 -7 24
-23 21 -33 -6 -10 -24 -26 -189 -41 -422 -18 -275 -31 -378 -51 -405 -10 -14
-26 -50 -35 -80 -25 -81 -27 -82 -87 -52 -29 15 -66 36 -82 48 -39 27 -75 36
-75 19 0 -8 10 -17 23 -21 12 -3 29 -12 37 -19 28 -24 130 -75 150 -75 23 0
30 12 60 103 13 37 26 67 31 67 20 0 31 83 54 410 25 370 36 411 49 185 13
-223 35 -560 42 -622 5 -54 13 -70 56 -127 52 -69 57 -72 130 -60 28 5 47 18
80 57 40 48 43 56 50 132 4 44 14 319 23 610 26 899 36 1209 40 1213 8 8 15
-120 25 -433 30 -999 36 -1115 60 -1195 11 -36 29 -126 41 -200 11 -74 28
-146 36 -158 13 -22 16 -22 32 -8 10 9 28 50 41 91 13 41 26 75 30 75 3 0 19
-28 36 -62 l30 -63 60 0 c44 0 68 5 88 20 16 11 37 25 48 31 32 19 78 67 78
82 0 7 4 22 10 32 9 17 12 17 55 1 l45 -16 21 -95 c42 -189 62 -207 117 -103
l33 63 36 -15 c51 -22 140 -20 151 3 15 29 21 140 47 1013 15 464 30 850 35
859 8 12 9 12 10 -5 0 -11 7 -130 15 -265 18 -299 34 -469 45 -491 13 -23 27
-189 45 -524 21 -387 33 -527 49 -543 30 -31 40 46 82 646 4 50 10 92 14 92 8
0 15 -55 35 -320 18 -232 29 -307 49 -329 8 -9 25 -41 39 -71 13 -30 31 -61
40 -68 32 -27 41 14 62 288 30 398 36 456 50 505 14 53 28 319 45 865 17 554
22 675 31 690 5 10 9 -5 9 -40 0 -30 7 -338 15 -685 39 -1658 39 -1655 65
-1655 16 0 36 52 59 153 12 53 26 97 30 97 5 0 18 -35 31 -77 13 -43 32 -85
45 -97 12 -12 32 -39 43 -62 40 -79 66 -81 110 -9 30 50 34 51 85 30 46 -19
119 -19 185 0 48 15 52 18 71 70 11 30 23 66 27 80 11 45 21 36 49 -43 15 -42
32 -82 37 -89 11 -14 94 -7 114 9 19 14 27 169 64 1238 10 287 17 387 26 377
2 -2 11 -66 19 -143 21 -194 35 -287 46 -300 13 -15 25 -163 44 -534 9 -168
20 -357 25 -420 6 -63 10 -123 10 -132 0 -20 51 -70 96 -94 17 -9 39 -30 50
-46 25 -39 51 -53 70 -37 8 6 26 49 40 95 14 46 27 84 29 84 7 0 105 -48 117
-57 28 -23 130 -73 148 -73 23 0 30 12 60 103 13 37 26 67 31 67 20 0 31 83
54 410 25 370 36 411 49 185 13 -223 35 -560 42 -622 5 -54 13 -70 56 -127 52
-69 57 -72 130 -60 28 5 47 18 80 57 40 48 43 56 50 132 4 44 14 319 23 610
26 899 36 1209 40 1213 8 8 15 -120 25 -433 30 -999 36 -1115 60 -1195 11 -36
29 -126 41 -200 11 -74 28 -146 36 -158 13 -22 16 -22 32 -8 10 9 28 50 41 91
13 41 26 75 30 75 3 0 19 -28 36 -62 l30 -63 61 0 c49 0 68 5 90 23 15 12 37
26 48 31 33 15 70 60 58 72 -7 7 -15 2 -27 -15 -9 -15 -23 -26 -31 -26 -8 0
-29 -13 -47 -29 -25 -22 -46 -30 -83 -32 l-50 -4 -25 52 c-51 107 -75 105
-111 -5 -36 -111 -39 -108 -63 53 -22 143 -35 206 -45 219 -16 20 -31 321 -51
1026 -11 405 -27 767 -36 818 -7 44 -27 36 -35 -14 -7 -38 -29 -676 -50 -1439
-5 -214 -14 -451 -18 -527 -8 -135 -8 -137 -42 -180 -44 -56 -46 -58 -99 -58
-41 0 -48 3 -64 33 -11 17 -27 41 -37 53 -24 26 -34 105 -54 439 -18 293 -33
482 -41 508 -7 24 -23 21 -33 -6 -10 -24 -26 -189 -41 -422 -18 -275 -31 -378
-51 -405 -10 -14 -26 -50 -35 -80 -25 -81 -27 -82 -87 -52 -29 15 -66 37 -84
50 -17 12 -37 22 -45 22 -7 0 -24 7 -36 16 -45 32 -64 17 -96 -76 -16 -47 -31
-87 -33 -90 -3 -3 -21 14 -41 38 -20 23 -41 42 -47 43 -5 0 -28 15 -49 35
l-40 34 -12 163 c-7 89 -17 266 -23 392 -17 340 -31 506 -47 545 -14 34 -19
71 -49 355 -16 151 -30 208 -48 202 -7 -2 -15 -24 -19 -48 -7 -44 -28 -548
-48 -1164 -11 -315 -22 -491 -33 -501 -3 -3 -23 -8 -44 -11 l-38 -5 -24 73
c-26 84 -36 99 -62 99 -17 0 -46 -61 -65 -135 -13 -52 -149 -74 -241 -39 -43
17 -44 16 -67 -6 -14 -12 -30 -35 -36 -51 -18 -42 -33 -36 -60 21 -13 27 -33
56 -44 64 -14 9 -29 41 -45 95 -44 152 -69 136 -115 -71 -14 -60 -23 -22 -30
115 -3 78 -13 446 -21 817 -36 1611 -39 1678 -74 1612z"/>
<path d="M573 12295 c0 -27 2 -38 4 -22 2 15 2 37 0 50 -2 12 -4 0 -4 -28z"/>
<path d="M568 12124 c-1 -36 0 -68 5 -71 4 -2 7 28 7 66 0 39 -2 71 -4 71 -2
0 -6 -30 -8 -66z"/>
<path d="M550 11719 c-7 -11 -9 -23 -6 -27 3 -3 6 0 6 6 0 6 7 9 15 6 10 -4
15 0 15 15 0 27 -16 27 -30 0z"/>
<path d="M560 11383 c0 -201 -3 -283 -11 -273 -8 12 -9 10 -7 -10 2 -14 10
-26 19 -28 14 -2 15 29 15 298 -1 165 -4 300 -8 300 -5 0 -8 -129 -8 -287z"/>
<path d="M4024 11600 c-48 -19 -34 -112 17 -118 16 -2 31 4 39 15 12 15 12 16
0 6 -21 -19 -47 -16 -64 9 -21 30 -20 44 4 68 24 24 34 25 54 4 9 -8 16 -11
16 -5 0 6 -9 15 -19 21 -22 11 -19 11 -47 0z"/>
<path d="M4123 11540 c0 -36 2 -50 4 -32 2 17 2 47 0 65 -2 17 -4 3 -4 -33z"/>
<path d="M4530 11585 c0 -8 -5 -15 -11 -15 -8 0 -8 -5 1 -15 7 -8 10 -26 8
-40 -3 -14 -1 -28 3 -31 5 -3 9 22 9 55 0 34 -2 61 -5 61 -3 0 -5 -7 -5 -15z"/>
<path d="M4170 11554 c-10 -11 -11 -23 -4 -42 11 -31 45 -40 63 -18 16 19 10
68 -9 73 -12 4 -12 3 -2 -5 21 -14 11 -67 -12 -67 -28 0 -44 30 -28 55 15 24
10 26 -8 4z"/>
<path d="M4277 11563 c-15 -14 -6 -33 18 -39 35 -9 34 -38 -1 -31 -16 3 -22 1
-16 -5 15 -15 46 -5 50 15 2 11 -6 20 -23 27 -18 7 -25 15 -21 25 6 16 3 19
-7 8z"/>
<path d="M4370 11554 c-29 -34 22 -96 54 -64 8 8 7 10 -7 4 -33 -12 -55 29
-33 64 10 17 1 15 -14 -4z"/>
<path d="M4417 11558 c7 -8 10 -18 6 -21 -3 -4 -1 -7 6 -7 17 0 10 32 -9 38
-12 4 -13 3 -3 -10z"/>
<path d="M4464 11546 c-7 -30 11 -66 34 -66 13 0 12 3 -6 16 -24 17 -29 43
-10 62 9 9 9 12 0 12 -6 0 -14 -11 -18 -24z"/>
<path d="M9908 11483 c7 -3 16 -2 19 1 4 3 -2 6 -13 5 -11 0 -14 -3 -6 -6z"/>
<path d="M9882 11436 c3 -16 158 -180 158 -168 0 4 -17 26 -38 48 -20 23 -53
62 -72 87 -35 47 -54 59 -48 33z"/>
<path d="M11921 11334 c0 -11 3 -14 6 -6 3 7 2 16 -1 19 -3 4 -6 -2 -5 -13z"/>
<path d="M10096 11299 c16 -20 31 -34 33 -32 3 2 -10 18 -29 36 l-34 32 30
-36z"/>
<path d="M11961 11214 c0 -11 3 -14 6 -6 3 7 2 16 -1 19 -3 4 -6 -2 -5 -13z"/>
<path d="M11982 11150 c0 -14 2 -19 5 -12 2 6 2 18 0 25 -3 6 -5 1 -5 -13z"/>
<path d="M12001 11084 c0 -11 3 -14 6 -6 3 7 2 16 -1 19 -3 4 -6 -2 -5 -13z"/>
<path d="M1330 11000 c0 -5 5 -10 11 -10 5 0 7 5 4 10 -3 6 -8 10 -11 10 -2 0
-4 -4 -4 -10z"/>
<path d="M1620 11000 c0 -5 5 -10 10 -10 6 0 10 5 10 10 0 6 -4 10 -10 10 -5
0 -10 -4 -10 -10z"/>
<path d="M2092 10990 c-5 -14 -14 -36 -20 -50 -9 -24 -10 -24 -21 18 -18 66
-31 50 -14 -18 10 -37 21 -60 29 -60 8 0 14 6 14 14 0 8 5 27 11 43 l12 28 12
-39 c6 -22 17 -42 23 -44 10 -3 42 84 42 115 0 27 -19 2 -26 -32 -7 -38 -24
-57 -24 -28 -1 10 -7 32 -14 48 l-13 30 -11 -25z"/>
<path d="M2215 10994 c-21 -22 -15 -36 23 -54 17 -8 32 -21 32 -28 0 -19 -28
-26 -45 -12 -18 15 -34 5 -18 -11 6 -6 26 -9 44 -7 29 2 34 7 34 28 0 19 -8
29 -32 39 -18 8 -33 18 -33 23 0 15 32 21 51 9 21 -13 26 -2 7 17 -17 17 -44
15 -63 -4z"/>
<path d="M2332 10998 c-7 -7 -12 -17 -12 -22 0 -6 5 -5 12 2 17 17 48 15 48
-3 0 -9 -7 -18 -16 -22 -14 -5 -13 -8 6 -23 19 -15 20 -18 6 -29 -13 -11 -19
-11 -31 -1 -17 14 -31 8 -20 -9 3 -6 19 -11 35 -11 33 0 54 27 40 51 -5 7 -7
22 -4 32 11 36 -37 62 -64 35z"/>
<path d="M2444 10984 c-25 -38 -9 -98 27 -102 33 -4 51 18 51 65 0 60 -48 84
-78 37z m58 -19 c12 -27 -2 -75 -22 -75 -17 0 -33 46 -26 74 8 33 33 33 48 1z"/>
<path d="M2567 10999 c-21 -12 -23 -31 -2 -23 12 5 15 -4 15 -45 0 -28 5 -51
10 -51 12 0 14 116 2 124 -4 2 -15 0 -25 -5z"/>
<path d="M1170 10940 c0 -33 4 -60 10 -60 6 0 10 17 10 38 l1 37 20 -37 c11
-21 23 -38 27 -38 4 0 14 17 24 38 l16 37 1 -37 c2 -63 21 -42 21 22 0 72 -20
82 -40 19 -8 -22 -17 -42 -21 -45 -4 -2 -15 16 -25 41 -25 66 -44 59 -44 -15z"/>
<path d="M1370 10940 c0 -33 4 -60 10 -60 6 0 10 27 10 60 0 33 -4 60 -10 60
-6 0 -10 -27 -10 -60z"/>
<path d="M1780 10940 c0 -66 17 -83 22 -22 2 25 8 37 18 37 10 0 16 -12 18
-37 2 -21 8 -38 13 -38 6 0 9 19 7 43 -3 38 -6 42 -30 45 -16 2 -28 9 -28 18
0 8 -4 14 -10 14 -6 0 -10 -27 -10 -60z"/>
<path d="M1894 10985 c-16 -33 -2 -99 21 -103 16 -3 18 -1 8 9 -7 7 -13 26
-13 41 0 16 6 28 13 28 8 0 9 3 1 8 -6 4 -13 14 -16 22 -4 12 -7 11 -14 -5z"/>
<path d="M1330 10925 c0 -25 5 -45 10 -45 6 0 10 20 10 45 0 25 -4 45 -10 45
-5 0 -10 -20 -10 -45z"/>
<path d="M1424 10956 c-3 -8 -4 -27 -2 -43 2 -22 9 -29 32 -31 16 -2 33 1 39
7 7 7 2 10 -18 8 -15 -1 -30 4 -32 11 -3 8 6 12 26 12 31 0 36 6 25 34 -8 20
-63 21 -70 2z m54 -14 c2 -7 -6 -12 -17 -12 -21 0 -27 11 -14 24 9 9 26 2 31
-12z"/>
<path d="M1523 10954 c-7 -18 4 -31 30 -36 27 -5 20 -23 -9 -21 -13 1 -22 -2
-19 -8 9 -14 62 -11 68 5 6 15 -6 29 -36 39 -25 9 -10 29 15 21 14 -4 18 -2
14 5 -11 17 -56 13 -63 -5z"/>
<path d="M1620 10925 c0 -25 5 -45 10 -45 6 0 10 20 10 45 0 25 -4 45 -10 45
-5 0 -10 -20 -10 -45z"/>
<path d="M1669 10949 c-17 -33 4 -73 36 -66 17 3 25 0 25 -9 0 -14 -11 -18
-44 -14 -11 1 -15 -3 -12 -9 9 -15 49 -14 64 1 7 7 12 36 12 65 l0 53 -35 0
c-25 0 -37 -6 -46 -21z m59 -19 c4 -27 -17 -44 -35 -28 -16 13 -17 30 -1 46
17 17 32 10 36 -18z"/>
<path d="M1950 10930 c0 -5 11 -10 24 -10 14 0 28 5 31 10 4 6 -7 10 -24 10
-17 0 -31 -4 -31 -10z"/>
<path d="M12052 10905 c0 -16 2 -22 5 -12 2 9 2 23 0 30 -3 6 -5 -1 -5 -18z"/>
<path d="M547 10848 c-4 -12 -4 -24 -2 -27 3 -2 5 1 5 7 0 6 7 9 15 6 10 -4
15 0 15 15 0 28 -26 27 -33 -1z"/>
<path d="M10633 10846 c13 -13 33 -36 45 -51 12 -16 24 -26 27 -23 6 6 -76 98
-87 98 -5 0 2 -11 15 -24z"/>
<path d="M12067 10864 c-7 -11 1 -46 32 -149 12 -38 26 -88 32 -110 6 -22 15
-49 19 -60 4 -11 13 -38 19 -60 24 -88 53 -175 58 -175 6 0 -1 39 -16 90 -5
19 -14 51 -19 70 -11 38 -60 204 -92 310 -10 36 -21 72 -23 80 -2 8 -6 10 -10
4z"/>
<path d="M19287 10818 c-3 -18 -13 -163 -22 -323 -9 -159 -22 -361 -30 -448
-14 -156 -15 -159 -47 -197 -18 -21 -42 -42 -53 -46 -11 -3 -35 -20 -53 -35
-26 -23 -42 -29 -81 -29 -46 0 -49 1 -64 38 -13 33 -15 34 -16 12 -2 -44 25
-70 70 -70 64 0 140 44 210 121 40 45 39 38 59 299 15 194 41 702 37 707 -3 2
-7 -11 -10 -29z"/>
<path d="M560 10513 c0 -201 -3 -283 -11 -273 -8 12 -9 10 -7 -10 2 -14 10
-26 19 -28 14 -2 15 29 15 298 -1 165 -4 300 -8 300 -5 0 -8 -129 -8 -287z"/>
<path d="M10720 10756 c0 -2 8 -10 18 -17 15 -13 16 -12 3 4 -13 16 -21 21
-21 13z"/>
<path d="M1174 10736 c-7 -19 14 -58 28 -54 19 7 32 34 25 52 -8 20 -46 21
-53 2z m32 -23 c-10 -10 -19 5 -10 18 6 11 8 11 12 0 2 -7 1 -15 -2 -18z"/>
<path d="M10780 10690 c0 -5 5 -10 11 -10 5 0 7 5 4 10 -3 6 -8 10 -11 10 -2
0 -4 -4 -4 -10z"/>
<path d="M10815 10650 c10 -11 20 -20 22 -20 2 0 -2 9 -9 20 -7 11 -17 20 -22
20 -5 0 -1 -9 9 -20z"/>
<path d="M2420 10390 c-9 -6 -10 -10 -3 -10 6 0 14 -17 16 -37 3 -35 4 -34 5
10 1 26 1 47 0 47 -2 0 -10 -5 -18 -10z"/>
<path d="M2280 10379 c0 -5 5 -7 10 -4 6 3 10 8 10 11 0 2 -4 4 -10 4 -5 0
-10 -5 -10 -11z"/>
<path d="M2550 10380 c-1 -8 -2 -22 -1 -32 2 -21 -18 -33 -32 -19 -9 9 -8 17
2 34 13 20 13 21 -3 8 -20 -17 -18 -55 4 -58 28 -5 42 13 37 48 -2 19 -5 27
-7 19z"/>
<path d="M2608 10369 c10 -14 9 -17 -8 -22 -29 -7 -27 -39 3 -35 28 4 34 40
10 59 -16 13 -17 12 -5 -2z m7 -39 c-3 -5 -10 -10 -16 -10 -5 0 -9 5 -9 10 0
6 7 10 16 10 8 0 12 -4 9 -10z"/>
<path d="M2727 10373 c-13 -12 -7 -33 8 -33 21 0 19 -18 -2 -23 -16 -4 -16 -5
-1 -6 25 -2 34 20 14 35 -10 7 -15 17 -11 23 7 12 2 15 -8 4z"/>
<path d="M2966 10371 c-3 -5 2 -8 12 -7 11 1 18 -7 20 -23 3 -20 0 -23 -19
-18 -16 4 -19 3 -11 -5 15 -15 42 -2 42 20 0 30 -32 54 -44 33z"/>
<path d="M2650 10359 c0 -8 7 -24 15 -35 19 -25 19 -14 0 22 -8 16 -15 22 -15
13z"/>
<path d="M2685 10359 c-4 -6 -5 -12 -2 -15 2 -3 7 2 10 11 7 17 1 20 -8 4z"/>
<path d="M2842 10355 c-7 -9 -8 -15 -2 -15 5 0 10 -4 10 -10 0 -13 -27 -13
-33 0 -3 6 -4 5 -3 -2 1 -7 12 -14 24 -16 19 -3 22 1 22 27 0 35 0 36 -18 16z"/>
<path d="M2881 10349 c-1 -17 5 -29 15 -33 13 -5 14 -3 6 6 -5 7 -12 22 -15
33 -4 16 -5 14 -6 -6z"/>
<path d="M2923 10345 c0 -14 3 -28 8 -31 5 -3 9 9 9 25 0 17 -4 31 -9 31 -5 0
-8 -11 -8 -25z"/>
<path d="M2185 10320 c-3 -5 -1 -10 4 -10 6 0 11 5 11 10 0 6 -2 10 -4 10 -3
0 -8 -4 -11 -10z"/>
<path d="M12232 10270 c0 -14 2 -19 5 -12 2 6 2 18 0 25 -3 6 -5 1 -5 -13z"/>
<path d="M12250 10208 c0 -15 5 -30 10 -33 6 -3 11 -21 11 -38 1 -22 3 -25 6
-10 2 12 -3 41 -11 65 -13 36 -15 39 -16 16z"/>
<path d="M12287 10098 c-2 -7 -1 -22 4 -33 6 -16 8 -14 8 13 1 33 -4 41 -12
20z"/>
<path d="M4033 9513 c-7 -2 -13 -12 -13 -20 0 -14 2 -15 18 -1 19 17 42 14 42
-6 0 -6 -13 -27 -30 -46 -16 -19 -29 -38 -30 -42 0 -5 18 -8 41 -8 24 0 38 4
34 10 -3 6 -15 10 -26 10 -24 0 -24 12 1 35 42 38 14 89 -37 68z"/>
<path d="M4137 9513 c-14 -14 -6 -23 12 -14 14 8 22 7 31 -3 9 -12 4 -23 -24
-54 -20 -22 -36 -42 -36 -46 0 -3 18 -6 40 -6 22 0 40 5 40 10 0 6 -12 10 -27
10 l-27 0 27 28 c29 31 34 51 15 70 -13 13 -41 16 -51 5z"/>
<path d="M4290 9490 c0 -25 4 -30 25 -30 30 0 43 -24 25 -45 -9 -11 -17 -12
-32 -4 -16 9 -19 8 -16 -3 6 -19 43 -22 57 -4 21 26 10 61 -21 64 -35 4 -38
32 -4 32 14 0 28 5 31 10 4 6 -8 10 -29 10 -33 0 -36 -2 -36 -30z"/>
<path d="M4447 9513 c-12 -12 -7 -41 7 -46 19 -7 40 18 32 38 -6 15 -28 20
-39 8z m33 -24 c0 -5 -7 -9 -15 -9 -15 0 -20 12 -9 23 8 8 24 -1 24 -14z"/>
<path d="M4536 9504 c-23 -22 -20 -77 4 -99 16 -15 26 -17 47 -9 14 5 29 16
31 24 4 13 3 13 -11 2 -25 -21 -60 -11 -72 22 -8 24 -6 31 14 47 22 18 26 18
47 4 25 -16 33 -8 12 13 -17 17 -54 15 -72 -4z"/>
<path d="M4230 9400 c0 -5 5 -10 10 -10 6 0 10 5 10 10 0 6 -4 10 -10 10 -5 0
-10 -4 -10 -10z"/>
<path d="M1170 8904 c0 -41 4 -63 10 -59 6 3 10 23 10 43 l0 37 20 -44 c22
-48 25 -48 51 7 l17 37 1 -42 c2 -70 21 -49 21 22 0 79 -16 85 -46 17 l-21
-47 -21 48 c-12 26 -26 47 -32 47 -6 0 -10 -27 -10 -66z"/>
<path d="M1370 8905 c0 -37 4 -65 10 -65 6 0 10 28 10 65 0 37 -4 65 -10 65
-6 0 -10 -28 -10 -65z"/>
<path d="M1783 8905 c0 -54 1 -61 6 -30 5 31 10 40 26 40 16 0 21 -8 23 -38 4
-41 22 -42 22 -1 0 42 -18 67 -45 60 -19 -5 -24 -2 -28 16 -2 13 -4 -8 -4 -47z"/>
<path d="M2040 8905 l0 -65 35 0 c19 0 35 5 35 10 0 6 -14 10 -31 10 -42 0
-37 33 6 39 l30 4 -30 6 c-42 9 -47 41 -6 41 17 0 31 5 31 10 0 6 -16 10 -35
10 l-35 0 0 -65z"/>
<path d="M2140 8911 c0 -33 5 -63 10 -66 6 -4 10 11 10 37 l1 43 23 -45 23
-44 21 39 21 40 1 -32 c0 -17 5 -35 10 -38 6 -4 10 18 10 59 0 36 -4 66 -10
66 -5 0 -19 -21 -31 -47 l-22 -48 -20 48 c-29 66 -47 62 -47 -12z"/>
<path d="M2310 8956 c-15 -18 -7 -20 21 -6 27 15 39 -16 14 -34 -17 -12 -17
-13 5 -19 33 -9 19 -32 -19 -30 -26 1 -30 -1 -20 -13 25 -30 89 -3 74 32 -5
10 -9 33 -9 49 -1 25 -6 31 -27 33 -14 2 -31 -4 -39 -12z"/>
<path d="M2432 8958 c-15 -15 -16 -90 0 -106 37 -37 87 15 72 76 -7 29 -14 38
-34 40 -14 2 -31 -3 -38 -10z m58 -55 c0 -22 -6 -36 -16 -40 -23 -9 -47 26
-39 57 14 54 55 42 55 -17z"/>
<path d="M2540 8951 c-23 -44 -1 -111 38 -111 35 0 59 89 30 118 -18 18 -56
14 -68 -7z m60 -22 c10 -34 -6 -71 -27 -67 -22 4 -30 62 -12 84 16 20 31 13
39 -17z"/>
<path d="M2741 8956 c-16 -20 -4 -43 30 -55 36 -12 39 -41 5 -41 -13 0 -26 6
-29 13 -2 6 -8 9 -12 5 -12 -12 15 -38 39 -38 54 0 62 53 11 74 -19 8 -35 19
-35 24 0 16 32 23 47 11 15 -13 28 -6 18 10 -9 16 -60 14 -74 -3z"/>
<path d="M2852 8908 l3 -63 38 -3 c21 -2 37 1 37 7 0 6 -13 11 -30 11 -30 0
-30 1 -30 55 0 32 -4 55 -10 55 -7 0 -10 -24 -8 -62z"/>
<path d="M2952 8908 c3 -57 5 -63 26 -66 13 -2 34 4 48 12 19 13 24 25 24 56
0 44 -18 60 -70 60 l-31 0 3 -62z m78 21 c16 -29 -4 -69 -35 -69 -23 0 -25 4
-25 43 0 24 3 46 6 49 10 10 44 -4 54 -23z"/>
<path d="M1887 8948 c-2 -7 -1 -33 2 -58 5 -34 11 -46 26 -49 17 -3 18 -1 6
13 -8 10 -12 29 -9 49 6 35 1 57 -12 57 -4 0 -10 -6 -13 -12z"/>
<path d="M1333 8890 c0 -30 2 -43 4 -27 2 15 2 39 0 55 -2 15 -4 2 -4 -28z"/>
<path d="M1426 8917 c-9 -12 -13 -32 -9 -45 8 -33 73 -43 73 -11 0 6 -7 6 -19
0 -14 -8 -22 -7 -31 4 -11 13 -7 15 24 15 40 0 47 17 20 44 -22 22 -41 20 -58
-7z m54 -7 c0 -5 -12 -10 -26 -10 -14 0 -23 4 -19 10 3 6 15 10 26 10 10 0 19
-4 19 -10z"/>
<path d="M1531 8931 c-18 -12 -7 -41 19 -48 11 -3 20 -9 20 -12 0 -16 -14 -20
-32 -10 -16 9 -19 8 -16 -3 3 -7 18 -13 34 -13 22 0 30 5 32 22 3 17 -3 24
-22 29 -33 8 -34 28 -1 22 28 -6 34 6 9 16 -20 8 -26 7 -43 -3z"/>
<path d="M1620 8890 c0 -27 5 -50 10 -50 6 0 10 23 10 50 0 28 -4 50 -10 50
-5 0 -10 -22 -10 -50z"/>
<path d="M1675 8924 c-32 -32 -3 -91 37 -78 15 4 19 2 16 -7 -3 -8 -17 -13
-32 -12 -14 1 -26 -2 -26 -7 0 -15 38 -22 60 -10 17 9 20 21 20 69 0 58 0 58
-30 59 -16 0 -37 -6 -45 -14z m50 -34 c0 -29 -32 -41 -41 -16 -9 24 4 48 23
44 12 -2 18 -12 18 -28z"/>
<path d="M4032 8927 c-21 -25 -25 -66 -8 -92 28 -43 81 -24 74 27 -2 19 -9 23
-35 23 -35 0 -43 15 -18 35 12 10 19 10 27 2 17 -17 33 -15 18 3 -15 18 -44
19 -58 2z m51 -61 c3 -8 -1 -22 -8 -33 -13 -16 -15 -17 -30 -2 -9 9 -13 23 -9
32 8 21 40 22 47 3z"/>
<path d="M4135 8924 l-20 -16 20 4 c17 3 21 -4 26 -52 l6 -55 1 68 c1 37 -1
67 -5 67 -5 0 -17 -8 -28 -16z"/>
<path d="M4276 8924 c-33 -32 -11 -114 29 -114 18 0 45 39 45 65 0 26 -27 65
-45 65 -7 0 -21 -7 -29 -16z m42 -6 c16 -16 15 -73 -1 -86 -28 -23 -54 27 -38
72 12 29 21 32 39 14z"/>
<path d="M4431 8913 c1 -23 2 -24 6 -5 2 12 8 22 13 22 5 0 11 -10 13 -22 5
-20 5 -20 4 2 -1 15 -9 26 -19 28 -14 3 -18 -3 -17 -25z"/>
<path d="M4494 8903 c-11 -16 -24 -35 -29 -43 -7 -12 -6 -13 6 -3 14 11 53 73
46 73 -2 0 -12 -12 -23 -27z"/>
<path d="M2663 8903 c9 -2 25 -2 35 0 9 3 1 5 -18 5 -19 0 -27 -2 -17 -5z"/>
<path d="M1963 8893 c9 -2 23 -2 30 0 6 3 -1 5 -18 5 -16 0 -22 -2 -12 -5z"/>
<path d="M4502 8861 c-19 -11 -11 -45 11 -49 9 -2 20 4 23 13 9 21 -16 47 -34
36z m20 -33 c-15 -15 -26 -4 -18 18 5 13 9 15 18 6 9 -9 9 -15 0 -24z"/>
<path d="M4215 8820 c3 -5 8 -10 11 -10 2 0 4 5 4 10 0 6 -5 10 -11 10 -5 0
-7 -4 -4 -10z"/>
<path d="M1173 8704 c-6 -17 12 -64 24 -64 15 0 34 41 28 61 -8 23 -43 25 -52
3z m37 -14 c0 -5 -4 -10 -10 -10 -5 0 -10 5 -10 10 0 6 5 10 10 10 6 0 10 -4
10 -10z"/>
<path d="M13280 8683 c-60 -11 -59 -47 4 -108 23 -22 51 -55 61 -73 11 -17 22
-32 26 -32 7 0 1 185 -6 208 -4 12 -36 14 -85 5z"/>
<path d="M9690 8501 c0 -9 93 -18 335 -31 88 -5 273 -16 410 -25 138 -8 345
-19 460 -25 116 -5 230 -12 255 -15 25 -3 133 -10 240 -15 107 -6 314 -17 460
-25 146 -9 380 -22 520 -30 140 -8 343 -19 450 -25 107 -6 212 -16 232 -21 36
-9 36 -9 44 -77 7 -63 2 -957 -12 -2122 -6 -469 -8 -526 -23 -538 -13 -11 -14
-14 -2 -21 20 -13 41 -2 52 25 6 17 14 2431 9 2731 0 26 -47 33 -321 48 -156
8 -315 17 -354 20 -38 3 -270 17 -515 30 -644 37 -932 53 -1220 70 -140 8
-383 21 -540 29 -157 9 -329 18 -382 21 -54 3 -98 1 -98 -4z"/>
<path d="M2414 8348 c-4 -6 -3 -8 4 -4 7 4 12 -7 15 -31 l4 -38 1 43 c2 40 -9
55 -24 30z"/>
<path d="M2618 8320 c-2 -22 0 -40 4 -40 5 0 8 18 8 40 0 22 -2 40 -4 40 -2 0
-6 -18 -8 -40z"/>
<path d="M2582 8328 c-17 -17 -15 -33 5 -49 15 -13 15 -12 3 8 -11 18 -12 24
-1 37 16 19 10 21 -7 4z"/>
<path d="M2673 8334 c14 -4 18 -13 14 -30 -2 -13 0 -24 5 -24 5 0 8 12 6 27
-2 19 -9 28 -23 30 -17 2 -18 1 -2 -3z"/>
<path d="M2755 8321 c-3 -12 -10 -21 -15 -21 -5 0 -7 -7 -3 -16 4 -12 9 -8 20
16 7 18 11 35 9 37 -2 3 -7 -5 -11 -16z"/>
<path d="M2795 8329 c-11 -16 -1 -19 13 -3 7 8 8 14 3 14 -5 0 -13 -5 -16 -11z"/>
<path d="M2906 8333 c7 -4 14 -19 17 -33 4 -22 5 -21 4 4 -1 17 -9 31 -17 33
-10 3 -11 2 -4 -4z"/>
<path d="M2999 8338 c-5 -16 -3 -61 3 -71 4 -7 8 7 8 31 0 23 -2 42 -5 42 -3
0 -5 -1 -6 -2z"/>
<path d="M3036 8331 c-3 -5 3 -7 14 -4 15 4 20 0 20 -14 0 -10 -6 -25 -12 -32
-11 -10 -9 -11 5 -5 12 4 17 15 15 33 -3 26 -31 41 -42 22z"/>
<path d="M2460 8314 c0 -8 5 -12 10 -9 6 4 8 11 5 16 -9 14 -15 11 -15 -7z"/>
<path d="M2500 8321 c12 -8 13 -14 3 -30 -11 -17 -10 -19 3 -14 19 7 15 45 -6
50 -13 4 -13 3 0 -6z"/>
<path d="M2950 8306 c0 -8 4 -17 9 -20 5 -4 7 3 4 14 -6 23 -13 26 -13 6z"/>
<path d="M2654 8299 c-3 -6 -2 -15 3 -20 5 -5 9 -1 9 11 0 23 -2 24 -12 9z"/>
<path d="M2816 8295 c4 -8 8 -15 10 -15 2 0 4 7 4 15 0 8 -4 15 -10 15 -5 0
-7 -7 -4 -15z"/>
<path d="M2886 8301 c-3 -5 2 -15 12 -22 15 -12 16 -12 5 2 -7 9 -10 19 -6 22
3 4 4 7 0 7 -3 0 -8 -4 -11 -9z"/>
<path d="M2180 8280 c0 -5 5 -10 10 -10 6 0 10 5 10 10 0 6 -4 10 -10 10 -5 0
-10 -4 -10 -10z"/>
<path d="M8120 8270 c0 -5 28 -11 63 -13 l62 -4 -65 -1 c-36 0 -71 -1 -77 -1
-10 -1 -13 -37 -13 -145 0 -129 2 -145 18 -149 16 -4 16 -5 -1 -6 -16 -1 -17
-29 -15 -478 l3 -478 220 -5 220 -6 -222 -2 -223 -2 0 -754 c0 -594 3 -755 13
-758 6 -3 145 1 307 8 162 7 348 13 413 13 l117 1 1 153 c1 370 0 528 -6 537
-4 6 -138 11 -353 12 l-347 3 350 5 350 5 2 140 c1 77 -1 460 -4 851 l-6 712
-156 7 c-86 3 -235 9 -331 13 -139 6 -166 9 -129 15 25 5 97 6 160 3 63 -3
192 -9 287 -12 l172 -6 0 156 c0 86 -1 156 -2 157 -6 1 -735 38 -770 39 -21 0
-38 -4 -38 -10z m240 -98 c0 -9 -87 -9 -96 1 -4 4 16 7 44 7 29 0 52 -3 52 -8z
m31 -52 c10 0 19 -4 19 -10 0 -5 -11 -10 -25 -10 -16 0 -25 -6 -25 -15 0 -8
-7 -15 -15 -15 -9 0 -15 -9 -15 -25 0 -23 3 -25 35 -21 19 3 37 0 40 -5 4 -5
-16 -9 -43 -9 -48 0 -49 1 -55 34 -10 61 10 92 51 80 8 -2 22 -4 33 -4z m-104
-36 c-3 -3 -12 -4 -19 -1 -8 3 -5 6 6 6 11 1 17 -2 13 -5z m273 -244 c0 -5 -6
-10 -14 -10 -8 0 -18 5 -21 10 -3 6 3 10 14 10 12 0 21 -4 21 -10z m65 0 c-3
-5 -10 -10 -16 -10 -5 0 -9 5 -9 10 0 6 7 10 16 10 8 0 12 -4 9 -10z m131 -5
c4 -9 3 -41 -2 -73 l-8 -57 -6 60 -5 60 -37 3 c-53 4 -47 22 7 22 32 0 47 -5
51 -15z m58 5 c22 -8 26 -15 25 -47 -1 -21 -4 -49 -9 -63 -6 -20 -9 -13 -15
38 -5 42 -12 62 -21 62 -8 0 -14 5 -14 10 0 12 2 12 34 0z m-147 -82 c-2 -13
-4 -3 -4 22 0 25 2 35 4 23 2 -13 2 -33 0 -45z m-244 -205 l-33 -4 0 -120 0
-120 53 3 52 3 5 120 6 120 2 -138 2 -138 -67 3 -68 3 -3 124 c-1 69 0 131 2
138 3 8 20 12 43 11 37 -1 37 -1 6 -5z m245 -142 l3 -132 -68 3 -68 3 0 75 0
75 59 3 58 3 -4 55 c-3 36 -1 53 6 51 7 -2 12 -52 14 -136z m-512 -256 c-3 -9
0 -15 9 -15 10 0 15 -9 14 -27 -1 -17 -3 -21 -6 -10 -2 9 -11 17 -19 17 -8 0
-14 10 -14 25 0 14 5 25 11 25 6 0 9 -7 5 -15z m101 -62 c-2 -16 -4 -5 -4 22
0 28 2 40 4 28 2 -13 2 -35 0 -50z m-37 22 c0 -14 -4 -25 -10 -25 -5 0 -10 11
-10 25 0 14 5 25 10 25 6 0 10 -11 10 -25z m110 5 c0 -11 -4 -20 -10 -20 -5 0
-10 9 -10 20 0 11 5 20 10 20 6 0 10 -9 10 -20z m60 -15 c0 -19 -4 -35 -10
-35 -11 0 -14 53 -3 63 11 12 13 8 13 -28z m-77 -42 c-7 -2 -19 -2 -25 0 -7 3
-2 5 12 5 14 0 19 -2 13 -5z m420 -348 c-2 -5 -25 -11 -53 -13 l-50 -3 0 -55
0 -54 55 0 55 0 0 -64 c0 -36 -4 -68 -10 -71 -6 -4 -10 17 -10 54 l0 61 -55 0
-55 0 0 74 c0 84 1 85 80 83 25 -1 44 -6 43 -12z m165 -105 c2 -58 -1 -116 -7
-130 -7 -19 -10 5 -10 98 l-1 122 -45 0 -45 0 0 -120 c0 -73 -4 -120 -10 -120
-10 0 -15 252 -6 261 3 2 31 2 63 -1 l58 -5 3 -105z m-741 -247 c-4 -3 0 -14
9 -24 9 -10 14 -26 11 -36 -4 -15 -5 -15 -6 3 -1 13 -9 24 -21 27 -21 5 -18
37 3 37 6 0 7 -3 4 -7z m100 -65 c-2 -13 -4 -3 -4 22 0 25 2 35 4 23 2 -13 2
-33 0 -45z m-37 12 c0 -10 -4 -22 -10 -25 -6 -4 -10 7 -10 25 0 18 4 29 10 25
6 -3 10 -15 10 -25z m158 5 c0 -14 -4 -28 -9 -31 -5 -3 -9 9 -9 25 0 17 4 31
9 31 5 0 9 -11 9 -25z m-48 0 c0 -10 -9 -15 -27 -14 -17 1 -21 3 -10 6 9 2 17
9 17 14 0 5 5 9 10 9 6 0 10 -7 10 -15z m380 -185 c0 -18 43 -70 57 -70 7 0
13 -4 13 -10 0 -5 -9 -10 -20 -10 -11 0 -20 -7 -20 -15 0 -9 -7 -18 -15 -21
-8 -4 -15 -12 -15 -20 0 -8 -4 -14 -10 -14 -5 0 -10 7 -10 15 0 9 -7 18 -15
21 -8 4 -15 16 -15 27 0 21 0 21 16 -1 20 -29 37 -28 54 2 11 21 10 27 -3 40
-20 20 -26 20 -49 -1 -16 -14 -18 -14 -18 -1 0 9 7 21 15 28 8 7 15 19 15 26
0 8 5 14 10 14 6 0 10 -5 10 -10z m-65 -80 c-3 -5 -10 -10 -16 -10 -5 0 -9 5
-9 10 0 6 7 10 16 10 8 0 12 -4 9 -10z m-358 -392 c-2 -29 -3 -6 -3 52 0 58 1
81 3 53 2 -29 2 -77 0 -105z m73 43 c0 -58 3 -70 18 -74 10 -3 6 -5 -11 -6
l-28 -1 3 75 c3 94 18 99 18 6z m111 -71 c19 0 21 5 17 54 -1 30 0 52 5 49 4
-2 7 -29 7 -59 0 -53 0 -54 -30 -54 l-30 0 2 63 2 62 3 -57 c4 -51 7 -58 24
-58z m127 33 c3 -40 1 -43 -22 -43 -24 0 -26 3 -26 46 0 41 2 45 23 42 18 -2
23 -10 25 -45z m92 -13 c0 -25 -4 -30 -25 -30 -20 0 -25 5 -25 23 0 28 7 37
32 37 13 0 18 -8 18 -30z"/>
<path d="M8330 8089 c0 -5 5 -7 10 -4 6 3 10 8 10 11 0 2 -4 4 -10 4 -5 0 -10
-5 -10 -11z"/>
<path d="M8550 7360 l0 -60 49 0 49 0 4 60 3 60 -52 0 -53 0 0 -60z"/>
<path d="M9775 8150 c39 -4 93 -7 120 -7 47 0 46 0 -15 7 -36 4 -90 7 -120 7
-54 0 -53 0 15 -7z"/>
<path d="M10100 8034 c0 -13 3 -14 14 -5 7 6 22 8 31 4 13 -4 16 -3 11 5 -11
18 -56 15 -56 -4z"/>
<path d="M10152 7970 c0 -19 2 -27 5 -17 2 9 2 25 0 35 -3 9 -5 1 -5 -18z"/>
<path d="M10311 7914 c0 -11 3 -14 6 -6 3 7 2 16 -1 19 -3 4 -6 -2 -5 -13z"/>
<path d="M10141 7910 c-8 -4 -21 -6 -29 -2 -10 3 -13 1 -8 -6 9 -15 43 -16 51
-1 10 15 2 20 -14 9z"/>
<path d="M9945 7718 c-3 -8 -4 -79 -3 -158 l3 -145 75 0 75 0 3 144 c1 80 -1
148 -5 152 -4 4 -38 10 -76 14 -52 5 -68 4 -72 -7z m127 -143 c2 -69 2 -130 0
-135 -5 -14 -86 -12 -100 2 -13 13 -18 239 -5 251 3 4 28 7 54 7 l48 0 3 -125z"/>
<path d="M10132 7708 c3 -8 27 -14 61 -16 l57 -3 0 -55 0 -55 -52 1 c-29 1
-59 1 -65 1 -9 -1 -13 -24 -13 -81 0 -56 4 -82 13 -85 21 -6 121 -12 135 -8 9
4 12 43 12 153 0 169 5 160 -92 160 -43 0 -59 -3 -56 -12z m118 -213 l0 -65
-50 0 c-27 0 -50 5 -51 10 0 6 0 30 0 55 0 25 0 50 0 55 1 6 24 10 51 10 l50
0 0 -65z"/>
<path d="M10757 7693 c-9 -8 -9 -266 -1 -287 5 -12 21 -16 75 -16 l69 0 0 149
0 148 -52 7 c-68 8 -83 8 -91 -1z m121 -82 l-3 -56 -35 -3 c-19 -1 -41 2 -48
7 -15 9 -23 90 -11 106 4 6 28 9 54 7 l46 -4 -3 -57z m0 -138 l-3 -58 -38 -3
c-52 -4 -63 8 -61 65 1 26 3 49 3 51 1 1 24 2 51 2 l51 0 -3 -57z"/>
<path d="M10936 7683 c-3 -3 -6 -39 -6 -79 l0 -73 58 -3 57 -3 3 -57 3 -58
-61 0 c-33 0 -60 -4 -60 -10 0 -6 30 -10 70 -10 l70 0 0 80 0 80 -59 0 -58 0
-6 53 c-2 28 -1 57 5 64 10 12 -4 27 -16 16z"/>
<path d="M12050 7639 c0 -5 5 -7 10 -4 6 3 10 8 10 11 0 2 -4 4 -10 4 -5 0
-10 -5 -10 -11z"/>
<path d="M12101 7646 c12 -10 59 -15 59 -6 0 5 -14 10 -32 10 -17 0 -29 -2
-27 -4z"/>
<path d="M12465 7620 c3 -5 8 -10 11 -10 2 0 4 5 4 10 0 6 -5 10 -11 10 -5 0
-7 -4 -4 -10z"/>
<path d="M12311 7504 c0 -11 3 -14 6 -6 3 7 2 16 -1 19 -3 4 -6 -2 -5 -13z"/>
<path d="M12205 7500 c-7 -12 2 -12 30 0 19 8 19 9 -2 9 -12 1 -25 -3 -28 -9z"/>
<path d="M12410 7500 l-55 -7 63 -1 c36 -1 62 2 62 8 0 6 -3 9 -7 8 -5 -1 -33
-4 -63 -8z"/>
<path d="M4027 7474 c-14 -14 -7 -25 11 -16 20 11 42 5 42 -10 0 -6 -13 -27
-30 -48 -16 -21 -30 -41 -30 -44 0 -3 16 -6 35 -6 19 0 35 5 35 10 0 6 -9 10
-20 10 -26 0 -25 12 0 35 30 27 23 69 -10 73 -14 2 -29 0 -33 -4z"/>
<path d="M4134 7464 c-16 -13 -16 -15 -1 -10 15 5 17 -2 17 -49 0 -30 5 -55
10 -55 6 0 10 28 10 65 0 69 -4 75 -36 49z"/>
<path d="M4269 7464 c-29 -35 -9 -114 30 -114 28 0 41 21 41 65 0 60 -39 87
-71 49z m52 -18 c17 -37 4 -78 -24 -74 -17 2 -23 11 -25 36 -3 32 11 62 29 62
5 0 14 -11 20 -24z"/>
<path d="M4427 7473 c-12 -12 -7 -41 7 -46 19 -7 40 18 32 38 -6 15 -28 20
-39 8z m33 -24 c0 -5 -7 -9 -15 -9 -15 0 -20 12 -9 23 8 8 24 -1 24 -14z"/>
<path d="M4517 7462 c-41 -45 -3 -125 50 -106 14 5 28 16 31 24 4 12 2 13 -9
3 -34 -32 -88 2 -74 46 11 36 32 45 60 27 26 -17 34 -9 13 12 -18 18 -53 15
-71 -6z"/>
<path d="M1237 7394 c-7 -7 2 -34 12 -34 4 0 7 9 7 20 0 20 -7 25 -19 14z"/>
<path d="M1537 7379 c4 -13 9 -17 15 -11 11 11 3 32 -12 32 -4 0 -6 -9 -3 -21z"/>
<path d="M12040 7379 c0 -5 21 -9 47 -9 25 0 44 2 42 4 -10 8 -89 13 -89 5z"/>
<path d="M12145 7381 c-6 -11 9 -23 19 -14 9 9 7 23 -3 23 -6 0 -12 -4 -16 -9z"/>
<path d="M12306 7375 c-3 -8 -1 -15 4 -15 6 0 10 7 10 15 0 8 -2 15 -4 15 -2
0 -6 -7 -10 -15z"/>
<path d="M12205 7369 c4 -5 22 -9 42 -9 45 0 40 5 -10 13 -22 3 -35 2 -32 -4z"/>
<path d="M12360 7370 c0 -5 5 -10 10 -10 6 0 10 5 10 10 0 6 -4 10 -10 10 -5
0 -10 -4 -10 -10z"/>
<path d="M4210 7359 c0 -5 5 -7 10 -4 6 3 10 8 10 11 0 2 -4 4 -10 4 -5 0 -10
-5 -10 -11z"/>
<path d="M9670 7255 c0 -18 5 -25 20 -25 14 0 20 -7 20 -21 0 -11 4 -18 10
-14 5 3 6 13 3 21 -4 10 -1 15 8 14 31 -5 50 0 43 11 -4 7 -21 9 -40 6 -29 -5
-34 -3 -34 14 0 10 -7 19 -15 19 -9 0 -15 -9 -15 -25z"/>
<path d="M9830 7211 c0 -42 13 -54 24 -25 4 9 2 22 -4 29 -8 9 -8 15 0 20 14
9 30 -3 24 -19 -3 -8 10 -19 36 -29 38 -14 40 -14 40 2 0 14 -6 17 -24 14 -20
-4 -25 0 -28 18 -2 19 -10 25 -35 27 -32 3 -33 2 -33 -37z"/>
<path d="M9663 7078 c-2 -5 121 -7 274 -6 307 2 286 6 -50 10 -121 2 -221 0
-224 -4z"/>
<path d="M10295 7063 c153 -6 985 -8 963 -1 -13 3 -250 6 -528 5 -278 -1 -473
-2 -435 -4z"/>
<path d="M11305 7061 c-6 -11 9 -23 19 -14 9 9 7 23 -3 23 -6 0 -12 -4 -16 -9z"/>
<path d="M10917 6973 c-14 -13 -7 -25 8 -13 8 6 23 9 36 5 14 -5 19 -4 15 4
-8 12 -49 15 -59 4z"/>
<path d="M11101 6976 c2 -2 18 -6 34 -10 22 -5 26 -4 15 4 -14 9 -59 15 -49 6z"/>
<path d="M11060 6935 c0 -21 -5 -25 -30 -25 -16 0 -30 -5 -30 -11 0 -6 9 -8
20 -4 12 4 27 1 35 -5 13 -11 15 -6 15 29 0 22 -2 41 -5 41 -3 0 -5 -11 -5
-25z"/>
<path d="M19445 6946 c-48 -21 -55 -50 -55 -220 0 -159 9 -209 40 -226 10 -6
98 -10 195 -10 239 0 225 -14 225 233 l0 184 -26 24 c-25 23 -32 24 -187 26
-119 2 -170 -1 -192 -11z m209 -205 c16 -16 25 -34 22 -40 -9 -13 -103 -15
-110 -2 -6 10 40 71 53 71 4 0 20 -13 35 -29z"/>
<path d="M1178 6920 c19 -8 22 -17 22 -65 0 -35 4 -54 10 -50 6 3 10 30 10 60
0 48 2 54 23 58 12 2 -3 5 -33 5 -42 1 -50 -1 -32 -8z"/>
<path d="M1280 6864 c0 -41 4 -63 10 -59 6 3 10 22 10 41 0 27 4 34 20 34 16
0 20 -7 20 -34 0 -19 5 -38 10 -41 12 -8 13 64 1 84 -5 8 -18 12 -30 8 -16 -4
-21 -1 -21 14 0 10 -4 19 -10 19 -6 0 -10 -29 -10 -66z"/>
<path d="M2411 6918 c0 -10 -6 -18 -12 -18 -6 0 -8 -8 -4 -19 3 -11 2 -22 -4
-25 -11 -7 -3 -46 10 -46 5 0 9 7 9 15 0 25 30 17 31 -7 0 -22 1 -22 11 2 6
14 10 31 9 39 -1 8 2 17 9 21 7 4 8 14 1 31 -8 21 -10 22 -16 7 -4 -10 -13
-18 -20 -18 -8 0 -16 8 -18 18 -4 16 -5 16 -6 0z m33 -53 c-7 -17 -20 -20 -28
-6 -7 10 3 21 20 21 8 0 11 -6 8 -15z"/>
<path d="M2513 6923 c-7 -2 -13 -9 -13 -15 0 -6 7 -8 15 -4 12 4 15 -4 15 -44
0 -28 5 -50 10 -50 6 0 10 27 10 60 0 60 -5 67 -37 53z"/>
<path d="M11231 6916 c-11 -13 -11 -20 -3 -28 15 -15 24 -5 20 23 -3 21 -4 21
-17 5z"/>
<path d="M2099 6908 c-5 -63 18 -125 38 -104 5 5 2 11 -4 13 -15 6 -17 59 -3
68 6 4 5 12 -4 21 -18 17 -26 18 -27 2z"/>
<path d="M11180 6900 c0 -5 5 -10 10 -10 6 0 10 5 10 10 0 6 -4 10 -10 10 -5
0 -10 -4 -10 -10z"/>
<path d="M1402 6888 c-7 -7 -12 -24 -12 -38 0 -45 43 -67 69 -36 10 12 7 14
-16 13 -40 -3 -45 17 -5 21 17 2 32 9 32 16 0 17 -21 36 -40 36 -9 0 -21 -5
-28 -12z m48 -19 c0 -5 -9 -9 -20 -9 -19 0 -26 11 -14 23 8 8 34 -3 34 -14z"/>
<path d="M1490 6854 c0 -23 5 -46 10 -49 6 -4 10 8 10 30 0 22 6 38 15 41 23
9 18 22 -10 22 -23 0 -25 -4 -25 -44z"/>
<path d="M1560 6854 c0 -54 18 -68 22 -17 2 27 8 39 21 41 14 3 17 -4 17 -38
0 -25 4 -39 10 -35 6 3 10 22 10 41 0 28 4 35 18 32 11 -2 19 -16 23 -43 7
-38 7 -38 5 10 l-1 50 -62 1 -63 2 0 -44z"/>
<path d="M1732 6888 c-7 -7 -12 -25 -12 -40 0 -21 7 -32 26 -40 23 -11 29 -10
45 11 38 47 -17 111 -59 69z m56 -42 c-2 -13 -12 -22 -25 -24 -20 -3 -23 1
-23 26 0 17 6 32 13 35 19 7 38 -14 35 -37z"/>
<path d="M1830 6848 c0 -30 4 -47 10 -43 6 3 10 22 10 41 0 28 4 35 18 32 11
-2 19 -16 23 -43 l5 -40 5 40 c3 28 9 41 22 43 13 3 17 -4 17 -32 0 -19 5 -38
11 -41 7 -5 9 9 7 42 l-3 48 -62 1 -63 1 0 -49z"/>
<path d="M2004 6892 c-20 -14 -25 -45 -9 -68 18 -28 33 -30 61 -10 18 14 17
14 -11 13 -41 -3 -48 17 -7 21 33 3 41 19 20 40 -13 13 -38 15 -54 4z m46 -23
c0 -5 -12 -9 -26 -9 -22 0 -24 2 -14 14 12 15 40 11 40 -5z"/>
<path d="M2172 6888 c-22 -22 -14 -67 13 -80 21 -10 29 -9 43 5 16 16 15 17
-16 11 -25 -5 -32 -3 -32 10 0 11 9 16 30 16 18 0 30 5 30 13 0 18 -21 37 -40
37 -9 0 -21 -5 -28 -12z m48 -19 c0 -5 -9 -9 -20 -9 -22 0 -27 16 -7 23 15 5
27 -1 27 -14z"/>
<path d="M2264 6891 c-8 -9 -4 -80 6 -86 6 -4 10 8 10 28 0 25 7 39 23 50 l22
16 -28 -2 c-15 -1 -30 -3 -33 -6z"/>
<path d="M4039 6853 l-30 -48 28 -3 c15 -2 32 -11 37 -20 9 -15 10 -15 15 1 9
24 1 117 -10 117 -5 0 -23 -21 -40 -47z m31 -13 c0 -24 -4 -30 -21 -30 -20 0
-20 1 -2 30 9 17 19 30 20 30 2 0 3 -13 3 -30z"/>
<path d="M4140 6885 c-14 -17 0 -21 17 -4 6 6 16 8 22 5 20 -12 12 -42 -19
-71 -16 -16 -30 -32 -30 -37 0 -4 19 -8 43 -7 40 1 41 1 14 11 l-27 10 25 30
c28 33 31 48 13 66 -16 16 -43 15 -58 -3z"/>
<path d="M4296 6875 c-9 -34 -2 -43 27 -38 30 6 45 -24 22 -46 -12 -12 -17
-12 -27 -3 -17 17 -33 15 -18 -3 27 -33 75 -7 68 37 -2 17 -11 24 -31 26 -35
4 -33 33 3 43 23 7 23 7 -6 8 -26 1 -33 -4 -38 -24z"/>
<path d="M4457 6893 c-10 -10 -8 -43 2 -43 5 0 7 9 4 20 -3 11 0 20 6 20 6 0
11 -10 11 -22 0 -18 2 -20 9 -9 17 26 -11 56 -32 34z"/>
<path d="M4490 6825 c-17 -25 -29 -45 -26 -45 3 0 19 20 36 45 17 25 29 45 26
45 -3 0 -19 -20 -36 -45z"/>
<path d="M10910 6847 c0 -10 8 -17 18 -17 9 0 13 4 7 8 -5 4 -13 11 -17 16 -5
5 -8 2 -8 -7z"/>
<path d="M11141 6840 c-8 -4 -20 -6 -28 -3 -7 3 -13 0 -13 -6 0 -14 47 -14 55
0 10 15 2 20 -14 9z"/>
<path d="M10950 6830 c0 -5 4 -10 9 -10 6 0 13 5 16 10 3 6 -1 10 -9 10 -9 0
-16 -4 -16 -10z"/>
<path d="M4520 6815 c-16 -19 -5 -47 17 -43 22 4 29 43 9 51 -8 3 -20 -1 -26
-8z m25 -25 c-5 -8 -11 -8 -17 -2 -6 6 -7 16 -3 22 5 8 11 8 17 2 6 -6 7 -16
3 -22z"/>
<path d="M4240 6779 c0 -5 5 -7 10 -4 6 3 10 8 10 11 0 2 -4 4 -10 4 -5 0 -10
-5 -10 -11z"/>
<path d="M5342 6778 c-146 -16 -280 -116 -351 -263 -23 -47 -41 -89 -41 -93 0
-15 84 -22 96 -9 6 7 24 45 39 85 32 83 74 131 145 167 69 35 137 43 255 29
55 -7 103 -10 107 -8 8 5 31 74 26 79 -9 9 -221 19 -276 13z"/>
<path d="M10212 6698 l3 -83 63 -3 63 -3 -3 -57 -3 -57 -62 -3 c-89 -4 -78
-22 12 -22 l76 0 -3 83 -3 82 -63 3 -63 3 3 57 3 57 60 1 c34 1 61 6 63 13 2
7 -20 11 -73 11 l-76 0 3 -82z"/>
<path d="M10390 6625 l0 -155 70 0 c85 0 82 -6 78 175 l-3 130 -72 3 -73 3 0
-156z m118 127 c9 -7 12 -39 10 -128 l-3 -119 -45 -6 c-25 -4 -48 -5 -52 -2
-10 5 -11 247 -1 256 9 10 75 8 91 -1z"/>
<path d="M10622 6628 l3 -153 58 -3 c86 -4 87 -2 87 148 0 71 -3 135 -6 144
-5 12 -21 16 -75 16 l-70 0 3 -152z m113 122 c4 -6 6 -63 6 -128 l1 -117 -51
-3 -51 -3 0 124 c0 68 3 127 7 130 10 11 81 8 88 -3z"/>
<path d="M1172 6668 c-10 -14 0 -52 17 -62 14 -9 43 38 35 58 -7 19 -37 21
-52 4z m38 -12 c0 -11 -19 -15 -25 -6 -3 5 1 10 9 10 9 0 16 -2 16 -4z"/>
<path d="M6729 6639 c-11 -6 -11 -11 -2 -20 12 -12 43 -6 43 10 0 14 -25 20
-41 10z"/>
<path d="M6702 6558 c-7 -18 -42 -112 -78 -208 -36 -96 -72 -191 -79 -210 -8
-19 -44 -116 -80 -215 -97 -263 -91 -250 -112 -249 -24 1 -361 42 -448 54 -61
9 -267 35 -680 85 -66 9 -208 26 -315 39 -113 14 -199 20 -204 15 -17 -15 -61
-9 604 -90 85 -10 193 -23 240 -29 403 -51 571 -72 665 -81 61 -6 120 -18 132
-25 30 -19 45 -18 42 4 -3 17 4 37 67 202 18 47 69 184 114 305 45 121 97 258
115 305 18 47 36 95 39 108 11 34 -8 26 -22 -10z"/>
<path d="M13500 6496 c0 -31 5 -56 10 -56 6 0 10 22 10 49 0 28 -4 53 -10 56
-6 4 -10 -15 -10 -49z"/>
<path d="M13675 6531 c-9 -15 6 -91 19 -91 9 0 12 36 7 93 -1 10 -19 9 -26 -2z"/>
<path d="M12719 6513 c-1 -4 0 -54 1 -110 1 -68 -2 -103 -9 -103 -7 0 -11 30
-11 81 0 50 -4 78 -10 74 -6 -4 -7 -35 -3 -80 4 -54 3 -75 -6 -75 -7 0 -11 27
-11 80 0 53 -4 80 -11 80 -7 0 -10 -12 -7 -32 3 -18 2 -55 -2 -83 l-7 -50 -2
61 c-1 59 -2 62 -26 60 -23 -1 -25 -5 -25 -54 0 -29 4 -51 8 -48 5 3 7 21 6
40 -2 20 1 38 6 41 6 4 10 -15 10 -44 0 -44 -3 -51 -20 -51 -16 0 -20 7 -20
35 l0 36 -116 -2 -116 -1 5 -33 c5 -29 2 -34 -19 -38 -22 -4 -24 -1 -24 34 0
22 -4 39 -10 39 -5 0 -10 -16 -10 -35 0 -19 -4 -35 -9 -35 -5 0 -7 24 -5 54 3
32 1 57 -6 61 -6 4 -10 -17 -10 -61 0 -84 -17 -75 -23 11 l-3 60 -2 -62 c-3
-81 -22 -83 -22 -2 0 40 -4 58 -11 54 -6 -4 -9 -29 -8 -56 2 -27 0 -52 -4 -55
-4 -4 -7 34 -7 84 0 129 -19 119 -22 -10 l-2 -103 -3 98 c-2 53 -8 97 -13 97
-6 0 -11 -39 -12 -87 l-2 -88 -5 88 c-3 48 -10 88 -15 90 -5 1 -8 -37 -7 -85
1 -57 -2 -88 -8 -88 -6 0 -11 21 -11 50 0 40 -3 48 -15 44 -9 -4 -15 0 -15 8
0 10 -11 15 -30 15 l-30 0 0 -66 c0 -47 -3 -62 -11 -54 -6 6 -10 33 -8 62 2
28 1 51 -3 51 -5 0 -8 -27 -8 -61 0 -41 -4 -58 -11 -53 -6 3 -9 29 -7 60 2 30
-1 54 -7 54 -5 0 -9 -23 -7 -51 1 -28 -3 -59 -8 -68 -7 -12 -9 -3 -10 32 0 58
-17 62 -23 5 l-4 -43 -1 43 c-2 52 -22 48 -22 -4 0 -23 -4 -33 -11 -28 -6 3
-9 19 -5 35 3 15 1 31 -4 34 -6 4 -10 -11 -10 -35 0 -25 -4 -39 -10 -35 -5 3
-10 22 -10 41 0 21 -4 33 -10 29 -5 -3 -10 -20 -10 -37 0 -17 -3 -28 -7 -25
-3 4 -5 28 -5 53 3 70 -22 51 -29 -22 -5 -51 -6 -53 -7 -16 -2 54 -22 55 -22
0 0 -23 -3 -38 -7 -34 -4 4 -6 22 -5 41 1 18 -2 36 -8 40 -6 4 -10 -9 -10 -34
0 -23 -4 -41 -10 -41 -5 0 -10 18 -10 41 0 24 -4 38 -10 34 -6 -3 -7 -17 -4
-30 3 -13 1 -32 -5 -42 -8 -14 -10 -6 -11 40 0 35 -4 56 -10 52 -5 -3 -7 -25
-4 -49 4 -27 2 -46 -5 -50 -12 -8 -14 0 -11 62 1 24 -3 42 -9 42 -7 0 -11 -23
-11 -56 0 -34 -4 -53 -10 -49 -5 3 -10 38 -10 77 0 39 -3 68 -7 64 -5 -4 -8
-37 -8 -72 0 -36 -4 -64 -10 -64 -6 0 -10 33 -10 79 0 133 -22 114 -28 -24 -3
-63 -3 -61 -5 22 -3 126 -22 133 -22 9 0 -61 -4 -96 -11 -96 -5 0 -7 -5 -4
-11 5 -6 47 -8 123 -5 65 3 364 8 667 12 302 3 550 6 550 7 0 1 -1 46 -3 100
-3 83 -6 97 -20 95 -9 -2 -18 7 -23 22 -4 14 -7 -24 -8 -87 -1 -69 -5 -113
-11 -113 -7 0 -9 39 -7 106 2 58 -1 107 -5 110 -4 3 -9 2 -9 -3z m61 -133 c0
-44 -3 -80 -7 -80 -5 0 -7 35 -6 77 2 88 1 83 8 83 3 0 5 -36 5 -80z m-744 -6
c-3 -9 -6 -29 -6 -45 0 -16 -4 -29 -10 -29 -5 0 -10 20 -10 45 0 35 4 45 16
45 11 0 14 -5 10 -16z m34 -44 c0 -21 -5 -30 -16 -30 -11 0 -14 5 -10 16 3 9
6 22 6 30 0 8 5 14 10 14 6 0 10 -13 10 -30z m386 5 c4 -8 12 -15 19 -15 8 0
17 -4 20 -10 4 -6 -13 -10 -44 -10 -43 0 -51 3 -51 18 0 10 3 22 7 25 12 13
44 7 49 -8z m74 -2 c0 -15 2 -14 15 3 14 18 14 18 15 -8 0 -23 -4 -28 -25 -28
-20 0 -25 5 -25 25 0 14 5 25 10 25 6 0 10 -8 10 -17z m-140 -23 c0 -5 -4 -10
-10 -10 -5 0 -10 5 -10 10 0 6 5 10 10 10 6 0 10 -4 10 -10z"/>
<path d="M13412 6508 c-27 -27 -6 -68 35 -68 13 0 23 4 23 9 0 5 -9 7 -20 4
-11 -3 -20 0 -20 6 0 6 9 11 19 11 26 0 36 17 21 35 -15 18 -42 19 -58 3z m38
-8 c0 -5 -2 -10 -4 -10 -3 0 -8 5 -11 10 -3 6 -1 10 4 10 6 0 11 -4 11 -10z"/>
<path d="M13540 6481 c0 -23 5 -41 10 -41 6 0 10 15 10 34 0 19 -4 38 -10 41
-6 4 -10 -10 -10 -34z"/>
<path d="M13584 6506 c-3 -8 -4 -25 -2 -38 2 -18 9 -23 33 -23 28 0 30 3 30
35 0 31 -3 35 -28 38 -17 2 -29 -2 -33 -12z m46 -27 c0 -20 -24 -26 -35 -9 -8
13 14 42 26 34 5 -3 9 -14 9 -25z"/>
<path d="M13730 6480 c0 -22 5 -40 10 -40 6 0 10 18 10 40 0 22 -4 40 -10 40
-5 0 -10 -18 -10 -40z"/>
<path d="M13780 6506 c-19 -24 -8 -61 19 -64 13 -2 28 1 34 7 8 8 3 11 -17 11
-23 0 -27 4 -24 23 2 16 9 21 26 20 13 -2 21 1 17 7 -9 15 -41 12 -55 -4z"/>
<path d="M13864 6508 c-4 -6 2 -19 14 -29 25 -20 29 -34 7 -25 -8 3 -15 1 -15
-4 0 -6 11 -10 25 -10 18 0 25 5 25 20 0 11 -7 23 -15 26 -20 8 -19 21 3 27
11 3 7 5 -10 6 -15 0 -30 -4 -34 -11z"/>
<path d="M10562 6488 c6 -18 28 -21 28 -4 0 9 -7 16 -16 16 -9 0 -14 -5 -12
-12z"/>
<path d="M9670 6360 c0 -13 7 -20 20 -20 14 0 20 -7 21 -22 1 -19 2 -20 6 -5
4 15 12 18 34 15 18 -3 29 0 29 8 0 16 -28 26 -51 19 -12 -4 -21 -1 -25 9 -9
23 -34 20 -34 -4z"/>
<path d="M9801 6364 c0 -11 3 -14 6 -6 3 7 2 16 -1 19 -3 4 -6 -2 -5 -13z"/>
<path d="M12320 6345 c0 -14 5 -25 10 -25 6 0 10 11 10 25 0 14 -4 25 -10 25
-5 0 -10 -11 -10 -25z"/>
<path d="M9838 6349 c-13 -8 -6 -71 8 -76 7 -2 10 10 7 37 -2 24 0 40 7 40 5
0 10 -9 10 -20 0 -11 7 -20 15 -20 8 0 15 7 15 16 0 12 7 14 31 9 24 -6 30 -4
27 6 -5 14 -100 20 -120 8z"/>
<path d="M12960 6350 c-13 -8 -12 -10 3 -10 9 0 17 5 17 10 0 12 -1 12 -20 0z"/>
<path d="M2414 6308 c-4 -6 -3 -8 4 -4 7 4 12 -7 15 -31 l4 -38 1 43 c2 40 -9
55 -24 30z"/>
<path d="M2507 6293 c-14 -13 -7 -51 11 -58 14 -5 15 -4 5 6 -7 7 -13 21 -13
30 0 10 6 20 13 22 6 3 7 6 1 6 -6 1 -14 -2 -17 -6z"/>
<path d="M2542 6270 c0 -19 2 -27 5 -17 2 9 2 25 0 35 -3 9 -5 1 -5 -18z"/>
<path d="M2592 6294 c9 -3 19 -16 21 -30 4 -21 4 -21 3 3 -1 20 -7 28 -21 30
-14 1 -15 0 -3 -3z"/>
<path d="M2646 6285 c4 -11 8 -32 8 -48 1 -24 2 -25 14 -10 14 20 16 33 4 33
-5 0 -14 10 -21 23 -8 15 -10 16 -5 2z"/>
<path d="M2717 6293 c-12 -12 -7 -22 13 -28 11 -4 18 -10 15 -15 -3 -5 -13 -7
-23 -4 -14 5 -14 4 -3 -4 15 -11 41 -5 41 9 0 4 -10 14 -22 20 -22 12 -22 12
-3 20 15 5 16 8 4 8 -9 1 -19 -2 -22 -6z"/>
<path d="M2844 6269 c0 -16 3 -29 8 -29 4 0 8 11 8 24 0 14 -4 27 -8 30 -5 3
-8 -8 -8 -25z"/>
<path d="M2921 6280 c-2 -14 -4 -35 -5 -48 -2 -13 1 -19 6 -14 5 5 8 27 5 48
-2 25 -5 30 -6 14z"/>
<path d="M2984 6288 c13 -10 17 -21 12 -34 -6 -15 -5 -17 6 -6 14 14 2 43 -23
50 -8 2 -5 -2 5 -10z"/>
<path d="M12895 6290 c3 -5 10 -10 16 -10 5 0 9 5 9 10 0 6 -7 10 -16 10 -8 0
-12 -4 -9 -10z"/>
<path d="M2951 6269 c-1 -9 7 -23 17 -30 15 -12 16 -12 6 1 -6 8 -14 22 -17
30 -5 13 -6 12 -6 -1z"/>
<path d="M2576 6261 c-3 -5 2 -15 12 -22 15 -13 16 -12 4 3 -10 13 -10 17 0
21 9 4 9 6 1 6 -6 1 -14 -3 -17 -8z"/>
<path d="M2814 6259 c-3 -6 -2 -15 3 -20 5 -5 9 -1 9 11 0 23 -2 24 -12 9z"/>
<path d="M2880 6250 c0 -5 5 -10 11 -10 5 0 7 5 4 10 -3 6 -8 10 -11 10 -2 0
-4 -4 -4 -10z"/>
<path d="M2180 6240 c0 -5 5 -10 11 -10 5 0 7 5 4 10 -3 6 -8 10 -11 10 -2 0
-4 -4 -4 -10z"/>
<path d="M11305 6211 c-6 -11 9 -23 19 -14 9 9 7 23 -3 23 -6 0 -12 -4 -16 -9z"/>
<path d="M11068 6203 c29 -2 74 -2 100 0 26 2 2 3 -53 3 -55 0 -76 -1 -47 -3z"/>
<path d="M10343 6193 c75 -2 199 -2 275 0 75 1 13 3 -138 3 -151 0 -213 -2
-137 -3z"/>
<path d="M9670 6183 c0 -5 75 -7 167 -5 272 4 294 8 56 10 -123 1 -223 -1
-223 -5z"/>
<path d="M12936 6171 c-4 -5 -2 -12 3 -15 5 -4 12 -2 15 3 4 5 2 12 -3 15 -5
4 -12 2 -15 -3z"/>
<path d="M12906 6133 c-9 -23 -7 -29 5 -13 9 12 10 11 6 -5 -3 -11 -8 -29 -13
-39 -5 -14 -4 -17 4 -12 8 5 12 0 12 -13 0 -10 -6 -21 -12 -24 -10 -3 -10 -8
1 -18 10 -11 15 -11 18 -1 3 6 9 12 15 12 6 0 8 -7 4 -15 -7 -19 5 -19 30 0
12 10 15 17 8 22 -6 5 -14 16 -17 27 -6 14 -3 17 8 12 8 -3 15 -1 15 5 0 5 -7
12 -15 15 -8 4 -15 16 -15 29 0 27 -45 42 -54 18z"/>
<path d="M10307 6133 c-5 -7 -6 -17 -3 -21 5 -9 -49 -64 -73 -73 -14 -6 -13
-8 4 -15 20 -8 70 -62 70 -75 0 -4 3 -11 8 -15 4 -4 7 1 7 10 0 18 56 81 72
81 4 0 8 5 8 10 0 6 -4 10 -9 10 -15 0 -69 59 -73 80 -2 14 -6 16 -11 8z m33
-78 c14 -17 5 -51 -17 -59 -33 -13 -57 36 -31 62 16 16 33 15 48 -3z"/>
<path d="M12073 6095 c-13 -25 -23 -53 -23 -63 0 -22 30 -52 52 -52 23 0 48
33 48 63 0 31 -31 97 -45 96 -5 0 -20 -20 -32 -44z m50 -9 c15 -22 15 -25 -2
-40 -36 -32 -60 -12 -41 35 15 35 23 36 43 5z"/>
<path d="M10940 6111 c0 -5 5 -13 10 -16 6 -3 10 -2 10 4 0 5 -4 13 -10 16 -5
3 -10 2 -10 -4z"/>
<path d="M10990 6113 c0 -5 13 -8 29 -8 16 0 27 3 24 8 -2 4 -15 7 -29 7 -13
0 -24 -3 -24 -7z"/>
<path d="M11197 6109 c8 -8 16 -8 30 0 16 9 14 10 -11 11 -22 0 -27 -3 -19
-11z"/>
<path d="M10240 6099 c0 -5 5 -7 10 -4 6 3 10 8 10 11 0 2 -4 4 -10 4 -5 0
-10 -5 -10 -11z"/>
<path d="M11143 6055 c0 -27 2 -38 4 -22 2 15 2 37 0 50 -2 12 -4 0 -4 -28z"/>
<path d="M12530 6025 c0 -8 5 -15 10 -15 6 0 10 7 10 15 0 8 -4 15 -10 15 -5
0 -10 -7 -10 -15z"/>
<path d="M12490 5990 c20 -13 33 -13 25 0 -3 6 -14 10 -23 10 -15 0 -15 -2 -2
-10z"/>
<path d="M11030 5980 c-13 -8 -12 -10 3 -10 9 0 17 5 17 10 0 12 -1 12 -20 0z"/>
<path d="M10900 5970 c0 -5 5 -10 10 -10 6 0 10 5 10 10 0 6 -4 10 -10 10 -5
0 -10 -4 -10 -10z"/>
<path d="M10938 5973 c7 -3 16 -2 19 1 4 3 -2 6 -13 5 -11 0 -14 -3 -6 -6z"/>
<path d="M10240 5960 c0 -5 5 -10 10 -10 6 0 10 5 10 10 0 6 -4 10 -10 10 -5
0 -10 -4 -10 -10z"/>
<path d="M10370 5960 c0 -5 5 -10 10 -10 6 0 10 5 10 10 0 6 -4 10 -10 10 -5
0 -10 -4 -10 -10z"/>
<path d="M12823 5923 l-43 -4 0 -74 0 -74 53 -3 c49 -3 52 -5 55 -32 2 -15 1
-39 -2 -52 -6 -21 -12 -24 -57 -24 -35 0 -49 -4 -47 -12 6 -16 110 -11 121 5
4 7 6 39 5 72 l-3 60 -55 5 -54 5 0 50 0 50 52 3 c36 2 52 7 49 15 -4 14 -15
15 -74 10z"/>
<path d="M12632 5908 c-11 -15 -16 -212 -6 -252 6 -24 10 -26 65 -26 l59 0 0
145 0 145 -54 0 c-31 0 -58 -5 -64 -12z m103 -128 l0 -115 -47 -3 -48 -3 0
114 c0 62 3 117 7 121 4 4 25 6 48 4 l40 -3 0 -115z"/>
<path d="M11797 5894 c-4 -4 -7 -70 -7 -146 0 -103 3 -140 13 -144 7 -2 37 -1
66 3 l53 8 1 140 2 140 -60 3 c-34 2 -64 0 -68 -4z m111 -71 c3 -48 1 -53 -21
-59 -14 -3 -36 -4 -48 -2 -20 3 -24 10 -27 47 -5 65 1 73 50 69 l43 -3 3 -52z
m0 -135 l-3 -53 -47 -3 -48 -3 0 49 c0 27 3 52 7 55 3 4 26 7 50 7 l44 0 -3
-52z"/>
<path d="M11955 5890 c3 -5 31 -10 61 -10 l55 0 -3 -52 -3 -53 -55 -5 -55 -5
0 -75 0 -75 54 -3 c78 -5 101 11 26 18 l-60 5 -3 53 -3 52 44 0 c67 0 79 14
75 90 l-3 65 -68 3 c-46 2 -67 -1 -62 -8z"/>
<path d="M12488 5873 c6 -2 18 -2 25 0 6 3 1 5 -13 5 -14 0 -19 -2 -12 -5z"/>
<path d="M12476 5792 c-2 -4 11 -6 30 -4 19 2 34 6 34 8 0 8 -59 4 -64 -4z"/>
<path d="M10650 5773 c0 -13 3 -14 11 -6 6 6 18 9 25 6 8 -3 14 0 14 6 0 6
-11 11 -25 11 -17 0 -25 -6 -25 -17z"/>
<path d="M9797 5764 c-10 -10 -9 -222 1 -228 5 -3 18 -2 31 1 21 5 22 9 19
117 -3 103 -4 111 -23 114 -12 2 -24 0 -28 -4z m41 -118 c2 -89 1 -97 -15 -94
-15 3 -18 16 -21 78 -3 85 3 123 21 117 8 -2 13 -36 15 -101z"/>
<path d="M10760 5740 c0 -6 5 -8 10 -5 6 4 18 1 27 -7 14 -11 16 -11 11 2 -5
18 -48 27 -48 10z"/>
<path d="M9928 5723 c-15 -4 -18 -15 -16 -71 l2 -67 3 63 c3 53 7 63 21 60 14
-3 17 -15 17 -71 0 -79 -6 -97 -29 -78 -14 11 -16 11 -16 -3 0 -13 7 -17 28
-14 l27 3 0 89 c0 89 -4 98 -37 89z"/>
<path d="M11467 5724 c-4 -4 17 -32 46 -63 53 -58 67 -69 67 -54 -1 15 -106
124 -113 117z"/>
<path d="M11542 5719 c2 -6 8 -10 13 -10 5 0 11 4 13 10 2 6 -4 11 -13 11 -9
0 -15 -5 -13 -11z"/>
<path d="M12475 5720 c-3 -5 1 -10 10 -10 9 0 13 5 10 10 -3 6 -8 10 -10 10
-2 0 -7 -4 -10 -10z"/>
<path d="M10877 5714 c-13 -13 -7 -19 18 -19 14 0 24 5 22 10 -4 12 -31 18
-40 9z"/>
<path d="M11620 5696 c0 -9 5 -16 10 -16 6 0 10 4 10 9 0 6 -4 13 -10 16 -5 3
-10 -1 -10 -9z"/>
<path d="M10027 5684 c-4 -4 -7 -14 -7 -23 1 -13 3 -13 15 3 21 28 35 10 35
-49 0 -38 -4 -54 -15 -59 -8 -3 -15 -1 -15 4 0 6 -5 10 -11 10 -6 0 -9 -6 -6
-12 2 -7 15 -13 28 -13 23 0 24 3 24 70 0 63 -2 70 -20 73 -12 2 -24 0 -28 -4z"/>
<path d="M10977 5673 c-4 -3 -7 -16 -6 -27 0 -19 1 -19 10 3 10 24 8 36 -4 24z"/>
<path d="M11000 5670 c0 -5 5 -10 10 -10 6 0 10 5 10 10 0 6 -4 10 -10 10 -5
0 -10 -4 -10 -10z"/>
<path d="M6424 5651 c6 -8 69 -19 251 -41 44 -5 152 -19 240 -30 88 -12 216
-28 285 -36 69 -8 154 -19 190 -24 66 -9 76 -8 66 8 -7 11 -25 14 -577 82
-425 52 -464 56 -455 41z"/>
<path d="M12580 5645 c0 -8 5 -15 10 -15 6 0 10 7 10 15 0 8 -4 15 -10 15 -5
0 -10 -7 -10 -15z"/>
<path d="M10140 5600 c0 -47 2 -50 25 -50 23 0 25 3 25 50 0 47 -2 50 -25 50
-23 0 -25 -3 -25 -50z"/>
<path d="M11080 5610 c0 -25 4 -30 25 -30 21 0 25 5 25 30 0 25 -4 30 -25 30
-21 0 -25 -5 -25 -30z"/>
<path d="M12488 5633 c7 -3 16 -2 19 1 4 3 -2 6 -13 5 -11 0 -14 -3 -6 -6z"/>
<path d="M11485 5620 c-4 -6 -3 -16 3 -22 6 -6 12 -6 17 2 4 6 3 16 -3 22 -6
6 -12 6 -17 -2z"/>
<path d="M11622 5620 c3 -10 19 -15 44 -16 29 -1 32 -1 9 3 -16 3 -36 10 -44
16 -11 10 -13 9 -9 -3z"/>
<path d="M11740 5615 c0 -9 5 -15 11 -13 6 2 11 8 11 13 0 5 -5 11 -11 13 -6
2 -11 -4 -11 -13z"/>
<path d="M10263 5613 c-7 -2 -13 -18 -13 -34 0 -27 3 -30 28 -27 20 2 28 9 30
27 5 31 -16 46 -45 34z"/>
<path d="M6332 5569 c-11 -24 -31 -78 -45 -119 -30 -87 -36 -104 -113 -310
-123 -333 -185 -512 -180 -518 8 -7 42 70 86 193 57 163 164 460 205 570 68
186 78 216 72 222 -4 3 -15 -14 -25 -38z"/>
<path d="M10800 5591 c0 -8 -8 -11 -20 -8 -11 3 -20 1 -20 -4 0 -13 37 -11 45
2 4 6 4 13 1 16 -3 4 -6 1 -6 -6z"/>
<path d="M10871 5587 c-1 -13 5 -18 21 -15 12 2 23 9 26 16 3 11 0 12 -16 3
-15 -8 -22 -8 -25 2 -3 7 -6 4 -6 -6z"/>
<path d="M10975 5590 c3 -5 8 -10 11 -10 2 0 4 5 4 10 0 6 -5 10 -11 10 -5 0
-7 -4 -4 -10z"/>
<path d="M11005 5590 c-3 -5 -2 -10 4 -10 5 0 13 5 16 10 3 6 2 10 -4 10 -5 0
-13 -4 -16 -10z"/>
<path d="M10650 5579 c0 -14 20 -20 36 -11 14 8 12 10 -10 14 -14 3 -26 2 -26
-3z"/>
<path d="M22180 5381 c0 -193 -12 -259 -55 -304 -24 -24 -65 -93 -65 -108 0
-18 23 -9 52 22 26 27 73 114 87 159 7 24 12 363 6 388 -3 12 -10 22 -15 22
-6 0 -10 -69 -10 -179z"/>
<path d="M11311 5498 c-1 -29 3 -38 15 -38 12 0 14 3 6 13 -5 6 -12 23 -15 37
-3 18 -5 15 -6 -12z"/>
<path d="M2464 5396 c-17 -8 -42 -29 -55 -47 -21 -30 -24 -45 -24 -126 0 -50
3 -94 6 -97 8 -9 259 17 259 26 0 4 27 8 61 8 45 0 58 -3 53 -12 -4 -7 2 -5
13 5 12 10 36 17 62 17 50 0 68 15 73 61 4 49 31 45 42 -8 l8 -41 57 4 c89 8
121 14 121 24 0 6 7 10 15 10 8 0 15 -4 15 -9 0 -4 33 -6 73 -4 39 2 84 4 99
4 14 -1 39 4 55 11 38 16 63 18 64 4 0 -6 5 0 10 13 23 59 -33 151 -101 165
-18 3 -222 6 -454 6 -331 -1 -428 -4 -452 -14z"/>
<path d="M4493 5353 c-3 -10 -8 -22 -10 -28 -3 -5 3 -1 11 9 16 20 21 36 11
36 -3 0 -8 -8 -12 -17z"/>
<path d="M4457 5253 c-8 -26 -27 -79 -41 -118 -42 -115 -32 -187 37 -257 52
-54 125 -82 266 -103 57 -8 105 -14 105 -12 1 1 10 20 19 41 11 24 15 42 9 48
-5 5 -56 16 -112 24 -122 17 -172 41 -206 100 -33 55 -31 109 6 196 41 95 40
108 -8 108 -21 0 -43 5 -49 11 -8 8 -15 -2 -26 -38z"/>
<path d="M1079 5229 c-8 -16 -8 -28 0 -46 9 -19 17 -24 43 -21 37 4 53 26 44
61 -5 23 -12 27 -41 27 -25 0 -37 -6 -46 -21z m76 -8 c10 -31 -5 -52 -34 -49
-21 2 -27 9 -29 36 -3 30 -1 32 27 32 20 0 32 -6 36 -19z"/>
<path d="M1204 5226 c-3 -13 -3 -34 1 -46 5 -17 13 -21 43 -18 36 3 37 4 37
43 0 39 -1 40 -37 43 -33 3 -38 0 -44 -22z m71 -21 c0 -25 -4 -31 -26 -33 -29
-3 -44 18 -33 50 4 14 13 18 32 16 23 -2 27 -8 27 -33z"/>
<path d="M1098 5123 c-46 -12 -27 -93 20 -93 36 0 52 17 52 52 0 21 -6 31 -26
38 -14 6 -26 9 -27 9 -1 -1 -10 -3 -19 -6z m52 -43 c0 -27 -3 -30 -30 -30 -27
0 -30 3 -30 30 0 27 3 30 30 30 27 0 30 -3 30 -30z"/>
<path d="M1222 5119 c-16 -6 -22 -17 -22 -37 0 -37 20 -54 57 -50 25 3 28 7
31 44 3 37 0 42 -21 46 -13 3 -34 1 -45 -3z m58 -38 c0 -33 -28 -47 -56 -27
-27 20 -9 56 27 56 25 0 29 -4 29 -29z"/>
<path d="M21316 5082 c-9 -14 -88 -17 -208 -7 -45 3 -68 1 -68 -6 0 -5 -5 -7
-12 -3 -16 10 -549 11 -555 1 -2 -4 -12 -3 -21 1 -9 4 -75 6 -147 4 -71 -2
-146 -3 -165 -3 -83 3 -198 2 -580 -3 -568 -8 -623 -8 -643 0 -12 4 -23 0 -32
-12 -10 -13 -17 -15 -22 -8 -6 8 -70 10 -218 8 -250 -5 -211 -5 -320 1 -109 5
-146 -1 -138 -21 3 -8 17 -14 32 -13 14 0 38 -2 54 -4 15 -2 27 -1 27 2 0 9
134 8 141 -1 3 -4 20 -3 38 2 19 5 38 7 42 4 5 -3 9 0 9 7 0 8 4 8 15 -1 8 -7
15 -9 15 -5 0 4 7 2 15 -5 11 -9 20 -9 44 3 22 11 31 12 34 3 5 -12 195 -13
226 -1 7 3 19 0 27 -6 9 -7 19 -7 30 -1 11 6 27 6 45 0 18 -6 34 -6 46 1 11 5
24 6 31 2 15 -9 965 -6 981 3 6 4 11 3 11 -2 0 -10 870 -10 887 1 6 4 14 4 17
-1 2 -4 82 -7 178 -5 189 3 250 7 267 17 6 4 11 3 11 -2 0 -5 10 -12 23 -14
20 -4 22 -1 19 29 -2 18 -8 33 -13 33 -5 0 -9 -4 -9 -9 0 -15 -84 -8 -96 8 -7
9 -13 10 -18 3z"/>
<path d="M21460 5056 c0 -20 7 -23 63 -31 46 -7 47 -7 39 16 -7 19 -17 24 -55
26 -36 3 -47 0 -47 -11z"/>
<path d="M8908 5053 c7 -3 16 -2 19 1 4 3 -2 6 -13 5 -11 0 -14 -3 -6 -6z"/>
<path d="M17181 5046 c-10 -11 -10 -16 -2 -16 7 0 9 -5 5 -11 -4 -7 1 -7 16 1
12 6 33 9 46 6 19 -5 22 -3 17 10 -4 11 -14 14 -34 10 -16 -3 -29 -1 -31 5 -2
7 -9 5 -17 -5z"/>
<path d="M17534 5049 c-3 -6 -1 -16 5 -22 8 -8 11 -5 11 11 0 24 -5 28 -16 11z"/>
<path d="M17570 5046 c0 -10 7 -12 22 -8 16 4 19 2 13 -8 -6 -9 -4 -11 5 -5
10 6 9 11 -5 22 -24 17 -35 17 -35 -1z"/>
<path d="M17653 5048 c-33 -16 -28 -28 10 -25 19 1 32 8 32 16 0 19 -15 22
-42 9z"/>
<path d="M17900 5050 c0 -5 7 -10 16 -10 8 0 13 -4 10 -8 -3 -5 1 -9 8 -9 7 0
13 6 13 14 0 7 -2 11 -5 8 -3 -2 -13 0 -23 6 -13 6 -19 6 -19 -1z"/>
<path d="M17983 5046 c-13 -6 -23 -14 -23 -18 0 -14 48 -8 53 7 8 19 -3 23
-30 11z"/>
<path d="M18060 5045 c0 -15 8 -18 68 -20 25 0 32 3 32 18 0 16 -3 17 -14 8
-10 -9 -16 -9 -21 -1 -5 8 -10 8 -20 0 -9 -8 -15 -8 -20 0 -9 15 -25 12 -25
-5z"/>
<path d="M13520 5040 c0 -5 5 -10 10 -10 6 0 10 5 10 10 0 6 -4 10 -10 10 -5
0 -10 -4 -10 -10z"/>
<path d="M14634 5038 c-4 -7 -4 -10 1 -6 4 4 14 3 22 -4 7 -6 16 -8 19 -5 3 3
-3 10 -15 16 -15 8 -22 8 -27 -1z"/>
<path d="M14940 5038 c0 -8 7 -15 15 -15 18 0 15 19 -3 25 -7 2 -12 -3 -12
-10z"/>
<path d="M15477 5035 c-5 -11 0 -15 16 -15 12 0 18 4 12 8 -5 4 -13 11 -16 15
-4 4 -9 1 -12 -8z"/>
<path d="M16017 5036 c-4 -10 -1 -13 8 -9 8 3 12 9 9 14 -7 12 -11 11 -17 -5z"/>
<path d="M16115 5040 c-3 -5 -1 -10 4 -10 6 0 11 5 11 10 0 6 -2 10 -4 10 -3
0 -8 -4 -11 -10z"/>
<path d="M16249 5034 c-13 -16 -12 -16 6 -6 14 7 26 7 39 0 14 -8 17 -7 14 3
-7 21 -43 22 -59 3z"/>
<path d="M16370 5041 c0 -8 -8 -11 -20 -8 -11 3 -20 2 -20 -3 0 -16 39 -18 45
-2 3 8 3 17 0 20 -3 3 -5 0 -5 -7z"/>
<path d="M16440 5035 c0 -8 7 -15 15 -15 8 0 15 7 15 15 0 8 -7 15 -15 15 -8
0 -15 -7 -15 -15z"/>
<path d="M16636 5041 c-4 -7 -5 -15 -2 -18 9 -9 19 4 14 18 -4 11 -6 11 -12 0z"/>
<path d="M16728 5033 c-8 -10 -6 -13 5 -13 26 0 77 12 77 19 0 11 -72 6 -82
-6z"/>
<path d="M16912 5038 c3 -7 12 -14 21 -16 12 -2 15 1 11 12 -7 19 -38 22 -32
4z"/>
<path d="M17000 5039 c0 -5 5 -7 10 -4 6 3 10 8 10 11 0 2 -4 4 -10 4 -5 0
-10 -5 -10 -11z"/>
<path d="M17080 5040 c0 -5 5 -10 10 -10 6 0 10 5 10 10 0 6 -4 10 -10 10 -5
0 -10 -4 -10 -10z"/>
<path d="M17371 5034 c0 -11 3 -14 6 -6 3 7 2 16 -1 19 -3 4 -6 -2 -5 -13z"/>
<path d="M17440 5044 c0 -2 14 -11 31 -20 23 -11 30 -12 27 -3 -4 11 -58 33
-58 23z"/>
<path d="M17718 5032 c-9 -10 1 -12 46 -11 31 1 61 8 67 15 8 10 -2 12 -46 11
-32 -1 -61 -8 -67 -15z"/>
<path d="M17860 5035 c0 -10 10 -15 26 -15 22 0 25 2 14 15 -7 8 -19 15 -26
15 -8 0 -14 -7 -14 -15z"/>
<path d="M18030 5036 c0 -9 5 -16 10 -16 6 0 10 4 10 9 0 6 -4 13 -10 16 -5 3
-10 -1 -10 -9z"/>
<path d="M21585 5041 c-3 -5 -1 -12 5 -16 12 -7 30 2 30 16 0 12 -27 12 -35 0z"/>
<path d="M13657 5029 c7 -7 15 -10 18 -7 3 3 -2 9 -12 12 -14 6 -15 5 -6 -5z"/>
<path d="M13805 5030 c-3 -5 -1 -10 4 -10 6 0 11 5 11 10 0 6 -2 10 -4 10 -3
0 -8 -4 -11 -10z"/>
<path d="M14275 5030 c3 -5 11 -10 16 -10 6 0 7 5 4 10 -3 6 -11 10 -16 10 -6
0 -7 -4 -4 -10z"/>
<path d="M14775 5030 c-3 -5 1 -10 9 -10 9 0 16 5 16 10 0 6 -4 10 -9 10 -6 0
-13 -4 -16 -10z"/>
<path d="M15410 5030 c0 -5 7 -10 16 -10 8 0 12 5 9 10 -3 6 -10 10 -16 10 -5
0 -9 -4 -9 -10z"/>
<path d="M15530 5030 c0 -5 5 -10 10 -10 6 0 10 5 10 10 0 6 -4 10 -10 10 -5
0 -10 -4 -10 -10z"/>
<path d="M15728 5033 c7 -3 16 -2 19 1 4 3 -2 6 -13 5 -11 0 -14 -3 -6 -6z"/>
<path d="M15788 5028 c9 -9 15 -9 24 0 9 9 7 12 -12 12 -19 0 -21 -3 -12 -12z"/>
<path d="M15870 5030 c0 -5 5 -10 11 -10 5 0 7 5 4 10 -3 6 -8 10 -11 10 -2 0
-4 -4 -4 -10z"/>
<path d="M16400 5030 c0 -5 5 -10 10 -10 6 0 10 5 10 10 0 6 -4 10 -10 10 -5
0 -10 -4 -10 -10z"/>
<path d="M16535 5030 c3 -5 10 -10 16 -10 5 0 9 5 9 10 0 6 -7 10 -16 10 -8 0
-12 -4 -9 -10z"/>
<path d="M16578 5033 c6 -2 18 -2 25 0 6 3 1 5 -13 5 -14 0 -19 -2 -12 -5z"/>
<path d="M16680 5029 c0 -5 5 -7 10 -4 6 3 10 8 10 11 0 2 -4 4 -10 4 -5 0
-10 -5 -10 -11z"/>
<path d="M16872 5024 c-7 -8 -8 -14 -3 -14 10 0 25 19 20 25 -2 1 -10 -3 -17
-11z"/>
<path d="M17285 5030 c-3 -5 -1 -10 4 -10 6 0 11 5 11 10 0 6 -2 10 -4 10 -3
0 -8 -4 -11 -10z"/>
<path d="M19769 4836 c6 -7 9 -20 6 -29 -4 -9 3 -21 17 -31 20 -14 83 -16 560
-16 l537 0 15 22 c8 12 13 25 10 29 -2 4 0 10 6 14 20 12 9 25 -21 25 -18 0
-48 -10 -67 -22 -35 -22 -41 -22 -466 -22 -430 -1 -431 -1 -467 22 -43 26
-151 33 -130 8z"/>
<path d="M4988 4743 c7 -3 16 -2 19 1 4 3 -2 6 -13 5 -11 0 -14 -3 -6 -6z"/>
<path d="M5307 4700 c9 -8 100 -24 92 -15 -3 3 -27 9 -53 14 -26 5 -44 5 -39
1z"/>
<path d="M5450 4681 c8 -5 37 -13 65 -16 27 -4 58 -9 68 -11 9 -3 17 -1 17 5
0 5 -26 12 -57 16 -32 3 -69 8 -83 11 -18 3 -21 2 -10 -5z"/>
<path d="M2161 4646 c-9 -11 -8 -18 4 -30 15 -14 91 -16 769 -16 658 0 755 2
766 15 10 12 10 18 0 30 -11 13 -109 15 -770 15 -636 0 -759 -2 -769 -14z"/>
<path d="M5618 4653 c7 -3 16 -2 19 1 4 3 -2 6 -13 5 -11 0 -14 -3 -6 -6z"/>
<path d="M5720 4640 c8 -4 42 -11 75 -14 40 -4 53 -3 39 3 -26 12 -134 22
-114 11z"/>
<path d="M6050 4597 c3 -4 32 -10 63 -15 32 -5 55 -6 50 -2 -9 9 -121 25 -113
17z"/>
<path d="M6310 4555 c40 -8 69 -10 75 -4 5 6 2 9 -10 9 -11 0 -45 2 -75 5
l-55 4 65 -14z"/>
<path d="M6450 4539 c40 -15 289 -46 302 -38 9 6 6 8 -7 8 -11 -1 -38 2 -60 5
-22 3 -69 10 -105 15 -122 18 -158 21 -130 10z"/>
<path d="M7240 4505 c-24 -64 -23 -73 7 -79 74 -15 207 -26 215 -18 5 5 8 29
6 53 l-3 44 -90 12 c-126 16 -124 16 -135 -12z"/>
<path d="M7115 4450 c27 -12 43 -12 25 0 -8 5 -22 9 -30 9 -10 0 -8 -3 5 -9z"/>
<path d="M5247 4129 c7 -7 15 -10 18 -7 3 3 -2 9 -12 12 -14 6 -15 5 -6 -5z"/>
<path d="M5468 4093 c7 -3 16 -2 19 1 4 3 -2 6 -13 5 -11 0 -14 -3 -6 -6z"/>
<path d="M5610 4076 c0 -2 7 -7 16 -10 8 -3 12 -2 9 4 -6 10 -25 14 -25 6z"/>
<path d="M5830 4040 c8 -5 20 -10 25 -10 6 0 3 5 -5 10 -8 5 -19 10 -25 10 -5
0 -3 -5 5 -10z"/>
<path d="M6035 4010 c27 -12 43 -12 25 0 -8 5 -22 9 -30 9 -10 0 -8 -3 5 -9z"/>
<path d="M6385 3960 c-3 -6 1 -7 9 -4 18 7 21 14 7 14 -6 0 -13 -4 -16 -10z"/>
<path d="M6531 3936 c2 -2 22 -6 44 -9 27 -4 35 -3 25 3 -14 9 -79 15 -69 6z"/>
<path d="M6843 3893 c9 -2 23 -2 30 0 6 3 -1 5 -18 5 -16 0 -22 -2 -12 -5z"/>
<path d="M6891 3886 c3 -3 18 -7 34 -10 17 -3 145 -24 285 -47 140 -23 259
-45 264 -49 4 -5 -14 -6 -40 -3 -110 11 -484 6 -484 -7 0 -6 3 -10 8 -11 4 0
16 -3 27 -5 11 -3 76 -14 145 -24 69 -11 179 -29 245 -41 174 -32 346 -32 443
1 39 13 72 28 72 34 0 14 -189 106 -218 106 -12 0 -22 3 -22 8 0 4 -14 15 -31
25 -37 21 -95 23 -102 3 -7 -19 1 -26 30 -26 12 0 23 -4 23 -10 0 -17 -99 -11
-383 25 -286 36 -303 38 -296 31z"/>
<path d="M8910 3850 c-8 -5 -40 -13 -71 -20 -33 -6 -88 -30 -135 -58 -72 -43
-88 -48 -179 -60 -55 -6 -144 -15 -198 -18 -54 -4 -100 -11 -103 -16 -4 -6 23
-8 67 -5 61 4 70 2 55 -9 -16 -12 -15 -13 15 -19 19 -3 50 -5 69 -5 19 1 64
-6 100 -14 37 -9 85 -14 110 -11 25 3 128 -6 230 -19 102 -13 188 -21 192 -18
4 4 -9 25 -28 47 -40 46 -68 102 -86 171 -14 59 -18 64 -38 54z"/>
<path d="M12378 3705 c-3 -3 -38 -8 -79 -11 -179 -13 -589 -52 -769 -73 -47
-6 -123 -13 -170 -16 -47 -3 -103 -10 -125 -15 -22 -5 -80 -12 -129 -16 -142
-10 -85 -21 69 -13 77 4 203 10 280 13 219 10 470 26 580 37 55 5 147 14 205
19 272 24 280 25 280 42 0 9 -3 9 -12 0 -20 -20 -54 -14 -74 13 -17 23 -43 32
-56 20z"/>
</g>
</svg>
