<?xml version="1.0" standalone="no"?>
<!DOCTYPE svg PUBLIC "-//W3C//DTD SVG 20010904//EN"
 "http://www.w3.org/TR/2001/REC-SVG-20010904/DTD/svg10.dtd">
<svg version="1.0" xmlns="http://www.w3.org/2000/svg"
 width="110.000000pt" height="107.000000pt" viewBox="0 0 110.000000 107.000000"
 preserveAspectRatio="xMidYMid meet">

<g transform="translate(0.000000,107.000000) scale(0.100000,-0.100000)"
fill="#000000" stroke="none">
<path d="M507 782 c-32 -33 -35 -52 -7 -52 17 0 20 -7 20 -39 0 -43 19 -68 38
-49 7 7 12 29 12 50 0 31 4 38 20 38 28 0 25 22 -8 53 -35 34 -42 34 -75 -1z"/>
<path d="M706 651 c-28 -29 -28 -51 0 -51 8 0 14 -10 14 -24 0 -31 22 -50 38
-34 7 7 12 22 12 35 0 13 6 23 14 23 28 0 28 22 0 51 -15 16 -33 29 -39 29 -6
0 -24 -13 -39 -29z"/>
<path d="M306 601 c-28 -29 -28 -51 0 -51 9 0 14 -10 14 -29 0 -39 9 -61 25
-61 16 0 25 22 25 61 0 19 5 29 14 29 28 0 28 22 0 51 -15 16 -33 29 -39 29
-6 0 -24 -13 -39 -29z"/>
<path d="M482 558 c-8 -8 -12 -55 -12 -144 0 -153 5 -164 75 -164 70 0 75 11
75 164 0 89 -4 136 -12 144 -7 7 -35 12 -63 12 -28 0 -56 -5 -63 -12z"/>
<path d="M682 458 c-19 -19 -16 -173 4 -192 21 -21 97 -21 118 0 20 19 23 173
4 192 -7 7 -35 12 -63 12 -28 0 -56 -5 -63 -12z"/>
<path d="M286 384 c-21 -21 -21 -97 0 -118 21 -21 97 -21 118 0 21 21 21 97 0
118 -21 21 -97 21 -118 0z"/>
</g>
</svg>
