<?xml version="1.0" standalone="no"?>
<!DOCTYPE svg PUBLIC "-//W3C//DTD SVG 20010904//EN"
 "http://www.w3.org/TR/2001/REC-SVG-20010904/DTD/svg10.dtd">
<svg version="1.0" xmlns="http://www.w3.org/2000/svg"
 width="625.000000pt" height="428.000000pt" viewBox="0 0 625.000000 428.000000"
 preserveAspectRatio="xMidYMid meet">

<g transform="translate(0.000000,428.000000) scale(0.100000,-0.100000)"
fill="#000000" stroke="none">
<path d="M225 4230 c-60 -7 -97 -29 -127 -79 l-23 -36 4 -905 c2 -497 7 -914
11 -925 4 -11 20 -33 34 -48 54 -59 32 -57 801 -57 l705 0 0 25 0 25 -712 0
c-771 1 -741 -1 -779 56 -18 28 -19 56 -19 930 0 881 0 902 20 926 10 14 32
30 47 37 21 8 397 11 1450 9 l1423 -3 32 -33 33 -32 3 -470 c3 -460 3 -470 22
-470 20 0 20 9 20 454 0 311 -4 464 -11 487 -14 41 -52 84 -88 98 -27 11
-2749 21 -2846 11z"/>
<path d="M1203 3987 l-73 -32 0 -66 0 -66 102 -54 c152 -81 150 -80 184 -63
16 8 42 14 59 14 50 -3 55 -1 55 25 0 14 7 28 15 31 11 5 15 23 15 73 0 78 14
65 -149 132 -52 22 -104 39 -115 38 -12 0 -54 -15 -93 -32z"/>
<path d="M262 3358 c-21 -21 -14 -57 14 -70 36 -17 59 0 59 43 0 30 -3 34 -30
37 -17 2 -36 -3 -43 -10z m58 -34 c0 -21 -4 -25 -22 -22 -15 2 -24 11 -26 26
-3 18 1 22 22 22 21 0 26 -5 26 -26z"/>
<path d="M285 3320 c4 -6 11 -8 16 -5 14 9 11 15 -7 15 -8 0 -12 -5 -9 -10z"/>
<path d="M394 3316 c-4 -10 -2 -22 4 -28 8 -8 13 -7 18 6 4 10 2 22 -4 28 -8
8 -13 7 -18 -6z m13 -18 c-3 -8 -6 -5 -6 6 -1 11 2 17 5 13 3 -3 4 -12 1 -19z"/>
<path d="M492 3305 c0 -16 2 -22 5 -12 2 9 2 23 0 30 -3 6 -5 -1 -5 -18z"/>
<path d="M1337 3310 c3 -11 7 -20 9 -20 2 0 4 9 4 20 0 11 -4 20 -9 20 -5 0
-7 -9 -4 -20z"/>
<path d="M1365 3320 c-7 -12 2 -30 16 -30 5 0 9 9 9 20 0 21 -15 27 -25 10z"/>
<path d="M1400 3310 c0 -11 7 -20 15 -20 8 0 15 9 15 20 0 11 -7 20 -15 20 -8
0 -15 -9 -15 -20z"/>
<path d="M1450 3326 c0 -2 7 -7 16 -10 8 -3 12 -2 9 4 -6 10 -25 14 -25 6z"/>
<path d="M2280 3311 c0 -12 6 -21 16 -21 9 0 14 7 12 17 -5 25 -28 28 -28 4z"/>
<path d="M562 3300 c0 -14 2 -19 5 -12 2 6 2 18 0 25 -3 6 -5 1 -5 -13z"/>
<path d="M2346 3305 c4 -8 7 -15 9 -15 2 0 5 7 9 15 3 9 0 15 -9 15 -9 0 -12
-6 -9 -15z"/>
<path d="M2376 3311 c-4 -7 -5 -15 -2 -18 9 -9 19 4 14 18 -4 11 -6 11 -12 0z"/>
<path d="M2401 3303 c0 -13 2 -14 6 -4 5 11 7 11 14 0 7 -11 9 -10 9 4 0 9 -7
17 -15 17 -8 0 -15 -8 -14 -17z"/>
<path d="M526 3293 c-6 -14 -5 -15 5 -6 7 7 10 15 7 18 -3 3 -9 -2 -12 -12z"/>
<path d="M1752 3115 c-19 -8 -42 -25 -52 -37 -19 -22 -19 -56 -20 -935 l0
-913 29 -32 29 -33 664 -5 663 -5 6 -495 c3 -272 6 -496 7 -497 1 -1 16 -18
33 -38 61 -70 -46 -65 1511 -65 1382 0 1410 0 1447 20 48 24 79 62 85 104 11
63 14 1766 5 1801 -14 49 -64 103 -107 115 -24 6 -279 10 -694 10 l-658 0 0
294 c0 226 -3 296 -12 300 -10 5 -10 7 0 12 9 4 12 47 12 166 0 175 -7 203
-59 230 -41 21 -2842 24 -2889 3z m285 -111 c-3 -3 -12 -4 -19 -1 -8 3 -5 6 6
6 11 1 17 -2 13 -5z m776 -50 c8 20 62 16 62 -4 0 -11 -12 -15 -41 -16 -48 -2
-70 8 -59 26 6 10 11 9 20 -4 11 -14 13 -14 18 -2z m108 4 c0 -10 2 -10 6 0 4
10 8 10 19 1 8 -6 14 -17 14 -23 0 -6 -5 -4 -10 4 -5 8 -10 10 -10 4 0 -9 -50
-16 -50 -7 0 24 29 44 31 21z m-1004 -20 c-3 -8 -6 -5 -6 6 -1 11 2 17 5 13 3
-3 4 -12 1 -19z m47 8 c-3 -8 -12 -17 -20 -20 -11 -4 -12 -2 -1 14 14 23 29
27 21 6z m56 4 c-9 -6 -8 -9 6 -12 10 -3 2 -5 -18 -5 -35 -1 -46 6 -33 19 3 3
17 6 31 6 17 0 22 -3 14 -8z m50 -2 c0 6 9 12 20 12 11 0 20 -7 20 -15 0 -8
-5 -15 -11 -15 -5 0 -7 6 -3 13 6 10 4 10 -7 0 -19 -18 -39 -16 -39 5 0 14 2
15 10 2 6 -10 10 -11 10 -2z m90 -7 c0 -4 -7 -8 -15 -8 -16 0 -20 9 -9 20 8 8
24 -1 24 -12z m30 4 c0 -8 -4 -15 -10 -15 -5 0 -10 7 -10 15 0 8 5 15 10 15 6
0 10 -7 10 -15z m3855 -885 c14 -5 37 -22 50 -36 l25 -27 0 -909 0 -908 -34
-38 -34 -37 -1430 0 -1430 0 -27 25 c-57 52 -55 16 -55 967 0 863 0 879 20
911 40 65 -53 61 1487 62 902 0 1411 -4 1428 -10z"/>
<path d="M2820 2950 c0 -5 5 -10 10 -10 6 0 10 5 10 10 0 6 -4 10 -10 10 -5 0
-10 -4 -10 -10z"/>
<path d="M3240 1895 c-21 -25 3 -67 37 -63 34 4 52 31 37 56 -15 23 -57 27
-74 7z m50 -20 c0 -16 -6 -25 -15 -25 -16 0 -19 9 -9 34 9 25 24 19 24 -9z"/>
<path d="M3412 1850 c0 -14 2 -19 5 -12 2 6 2 18 0 25 -3 6 -5 1 -5 -13z"/>
<path d="M3440 1851 c0 -25 6 -27 13 -6 4 8 2 17 -3 20 -6 4 -10 -3 -10 -14z"/>
<path d="M4326 1855 c-3 -9 0 -15 9 -15 9 0 12 6 9 15 -4 8 -7 15 -9 15 -2 0
-5 -7 -9 -15z"/>
<path d="M4360 1860 c0 -5 5 -10 10 -10 6 0 10 5 10 10 0 6 -4 10 -10 10 -5 0
-10 -4 -10 -10z"/>
<path d="M4475 1840 c3 -5 8 -10 11 -10 2 0 4 5 4 10 0 6 -5 10 -11 10 -5 0
-7 -4 -4 -10z"/>
<path d="M480 2774 c-21 -24 -1 -68 33 -72 20 -3 29 2 38 21 23 50 -37 93 -71
51z m50 -29 c0 -16 -6 -25 -15 -25 -9 0 -15 9 -15 25 0 16 6 25 15 25 9 0 15
-9 15 -25z"/>
</g>
</svg>
