<?xml version="1.0" standalone="no"?>
<!DOCTYPE svg PUBLIC "-//W3C//DTD SVG 20010904//EN"
 "http://www.w3.org/TR/2001/REC-SVG-20010904/DTD/svg10.dtd">
<svg version="1.0" xmlns="http://www.w3.org/2000/svg"
 width="107.000000pt" height="107.000000pt" viewBox="0 0 107.000000 107.000000"
 preserveAspectRatio="xMidYMid meet">

<g transform="translate(0.000000,107.000000) scale(0.100000,-0.100000)"
fill="#000000" stroke="none">
<path d="M270 774 c-15 -7 -30 -20 -34 -30 -9 -23 -9 -364 0 -387 6 -16 3 -18
-35 -21 -20 -2 -23 -18 -6 -41 12 -14 31 -20 80 -23 l65 -4 0 46 c0 46 0 46
-34 46 -30 0 -34 4 -40 31 -10 49 -7 322 4 339 8 13 49 15 265 15 248 0 255 1
255 20 0 19 -7 20 -246 20 -162 0 -256 -4 -274 -11z"/>
<path d="M607 675 c-11 -5 -24 -20 -28 -32 -7 -20 -5 -23 15 -23 13 0 26 7 30
15 8 21 228 22 245 1 8 -9 11 -63 9 -167 l-3 -154 -52 -3 c-29 -2 -53 -7 -53
-13 0 -5 -11 -9 -25 -9 -14 0 -25 5 -25 10 0 6 -4 10 -10 10 -5 0 -10 -15 -10
-32 l0 -33 91 2 c134 3 129 -5 129 218 0 229 10 215 -166 218 -70 1 -137 -2
-147 -8z"/>
<path d="M416 544 c-13 -12 -16 -41 -16 -154 0 -173 -2 -170 120 -170 122 0
120 -3 120 170 0 173 2 170 -120 170 -67 0 -92 -4 -104 -16z m184 -154 c0
-124 -1 -130 -20 -130 -11 0 -29 -6 -40 -12 -16 -10 -24 -10 -40 0 -11 6 -29
12 -40 12 -19 0 -20 6 -20 130 l0 130 80 0 80 0 0 -130z"/>
</g>
</svg>
