<?xml version="1.0" standalone="no"?>
<!DOCTYPE svg PUBLIC "-//W3C//DTD SVG 20010904//EN"
 "http://www.w3.org/TR/2001/REC-SVG-20010904/DTD/svg10.dtd">
<svg version="1.0" xmlns="http://www.w3.org/2000/svg"
 width="613.000000pt" height="585.000000pt" viewBox="0 0 613.000000 585.000000"
 preserveAspectRatio="xMidYMid meet">

<g transform="translate(0.000000,585.000000) scale(0.100000,-0.100000)"
fill="#000000" stroke="none">
<path d="M2110 5279 c-51 -31 -110 -79 -110 -90 0 -5 15 5 33 22 17 17 55 44
82 60 28 16 46 29 40 29 -5 0 -26 -10 -45 -21z"/>
<path d="M1966 5154 c-5 -14 -4 -15 9 -4 17 14 19 20 6 20 -5 0 -12 -7 -15
-16z"/>
<path d="M2510 5150 c-9 -6 -10 -10 -3 -10 6 0 15 5 18 10 8 12 4 12 -15 0z"/>
<path d="M2149 5063 c-13 -16 -12 -17 4 -4 9 7 17 15 17 17 0 8 -8 3 -21 -13z"/>
<path d="M2390 5030 c-13 -11 -21 -22 -18 -25 2 -3 15 6 28 20 28 30 22 33
-10 5z"/>
<path d="M2601 4908 c1 -22 3 -26 6 -13 3 11 10 26 15 33 8 9 6 12 -6 12 -12
0 -16 -9 -15 -32z"/>
<path d="M2621 4723 c-10 -26 -10 -27 4 -9 8 11 15 23 15 28 0 15 -7 8 -19
-19z"/>
<path d="M2519 4693 c-13 -16 -12 -17 4 -4 9 7 17 15 17 17 0 8 -8 3 -21 -13z"/>
<path d="M2660 4567 l-64 -72 58 55 c47 45 87 93 74 89 -2 0 -32 -33 -68 -72z"/>
<path d="M2535 4470 c-3 -6 1 -7 9 -4 18 7 21 14 7 14 -6 0 -13 -4 -16 -10z"/>
<path d="M4460 4219 c-163 -18 -299 -56 -446 -124 -190 -87 -397 -268 -517
-450 -75 -115 -141 -253 -168 -350 -4 -16 -16 -59 -25 -95 -26 -94 -27 -443
-1 -548 62 -256 174 -459 352 -638 261 -262 559 -385 930 -385 167 0 257 15
415 69 430 145 758 519 849 969 26 127 29 354 5 488 -55 319 -242 620 -506
816 -184 136 -388 215 -633 244 -131 16 -144 16 -255 4z m296 -79 c139 -24
236 -55 362 -117 135 -66 320 -202 306 -225 -7 -11 -1691 -10 -1699 1 -7 12
95 98 180 154 133 86 311 156 459 181 98 17 310 20 392 6z m-1018 -429 c5 -30
-10 -45 -37 -36 -21 6 -29 43 -14 59 15 15 48 1 51 -23z m130 0 c5 -30 -10
-45 -37 -36 -21 6 -29 43 -14 59 15 15 48 1 51 -23z m130 0 c5 -30 -10 -45
-37 -36 -21 6 -29 43 -14 59 15 15 48 1 51 -23z m1585 -87 c128 -182 193 -364
217 -605 35 -344 -99 -709 -355 -964 -194 -195 -423 -309 -705 -350 -122 -18
-192 -18 -321 0 -387 54 -704 262 -901 590 -116 194 -168 387 -168 629 0 167
14 257 62 401 36 107 167 344 191 345 4 0 7 -11 7 -24 0 -13 7 -27 16 -30 9
-3 436 -6 950 -6 l934 0 0 46 c0 61 13 55 73 -32z"/>
<path d="M3612 3088 l3 -453 379 -3 c358 -2 378 -1 371 15 -20 53 -35 148 -35
226 l0 87 -331 0 -330 0 3 250 c3 263 5 275 48 267 13 -2 15 -36 18 -224 2
-219 3 -221 25 -227 12 -3 25 -6 29 -6 3 0 8 41 10 90 3 93 12 114 48 107 12
-2 16 -22 18 -94 3 -89 3 -91 29 -98 14 -3 30 -2 34 2 5 5 10 62 11 128 l3
120 28 3 27 3 0 -124 0 -125 25 -6 c14 -4 30 -4 35 -1 6 4 10 73 10 159 0 149
1 154 22 159 12 3 25 4 30 1 4 -3 8 -74 8 -158 0 -151 0 -154 23 -160 47 -13
46 -16 49 187 l3 192 28 3 27 3 0 -190 0 -189 31 -7 c18 -4 33 -15 36 -26 4
-13 19 9 51 74 79 161 222 280 387 322 399 102 767 -279 656 -680 -11 -38 -17
-73 -15 -77 3 -4 27 -8 55 -8 l49 0 0 433 c0 237 -3 442 -6 455 l-6 22 -944 0
-944 0 2 -452z"/>
<path d="M4785 3338 c-129 -24 -274 -133 -333 -250 -18 -35 -40 -99 -49 -144
-16 -74 -16 -87 -1 -162 21 -105 59 -181 130 -257 62 -67 147 -119 232 -141
68 -18 188 -18 261 1 356 93 469 551 201 819 -114 114 -281 165 -441 134z
m277 -95 c276 -129 333 -490 111 -693 -171 -156 -420 -157 -581 -2 -234 225
-142 600 173 711 90 32 208 26 297 -16z"/>
<path d="M4765 3198 c-222 -80 -308 -349 -174 -544 109 -159 345 -203 503 -95
84 58 125 126 146 239 12 67 -1 143 -37 221 -29 61 -121 145 -186 169 -64 24
-197 29 -252 10z m347 -203 c3 -13 3 -27 0 -30 -3 -3 -106 -5 -229 -5 l-223 0
0 23 c0 13 3 27 7 30 3 4 104 7 224 7 l217 0 4 -25z m-394 -137 c3 -25 0 -28
-27 -28 -26 0 -31 4 -31 23 0 30 9 39 35 35 13 -2 21 -12 23 -30z m132 2 c0
-27 -3 -30 -30 -30 -25 0 -30 4 -30 23 0 13 3 27 7 30 3 4 17 7 30 7 19 0 23
-5 23 -30z m130 0 c0 -27 -3 -30 -30 -30 -22 0 -30 5 -30 18 0 10 5 23 12 30
7 7 20 12 30 12 13 0 18 -8 18 -30z m132 5 c6 -30 2 -35 -34 -35 -20 0 -28 5
-28 18 0 43 55 58 62 17z m1 -132 c3 -16 2 -31 -2 -36 -4 -4 -106 -6 -227 -5
-202 3 -219 4 -222 21 -9 46 -6 47 227 47 l219 0 5 -27z"/>
<path d="M4412 2469 l-34 -31 34 -37 c18 -20 34 -37 35 -40 7 -13 55 14 67 38
14 27 14 29 -22 64 -21 21 -40 37 -42 37 -3 0 -20 -14 -38 -31z"/>
<path d="M4265 2390 c-18 -20 -18 -22 50 -90 72 -73 99 -85 110 -49 6 17 -6
35 -61 90 -38 38 -71 69 -75 69 -3 0 -14 -9 -24 -20z"/>
<path d="M4067 2192 c-123 -124 -127 -130 -127 -171 0 -36 6 -49 34 -77 36
-36 74 -44 118 -24 27 13 248 232 248 246 0 5 -33 42 -73 82 l-73 72 -127
-128z m-9 -185 c3 -23 0 -27 -23 -27 -30 0 -43 24 -25 46 19 22 45 13 48 -19z"/>
<path d="M2602 4180 c0 -14 2 -19 5 -12 2 6 2 18 0 25 -3 6 -5 1 -5 -13z"/>
<path d="M2549 3793 c-13 -16 -12 -17 4 -4 16 13 21 21 13 21 -2 0 -10 -8 -17
-17z"/>
<path d="M1670 2705 c-542 -92 -959 -493 -1077 -1037 -24 -112 -24 -378 0
-496 44 -217 133 -407 276 -584 33 -42 61 -81 61 -87 0 -6 4 -11 9 -11 5 0 40
-25 78 -56 189 -156 368 -245 588 -294 119 -27 355 -32 475 -11 233 40 447
138 620 282 243 204 389 447 456 759 27 127 24 381 -6 514 -43 192 -121 364
-235 518 -37 50 -65 99 -69 121 -6 33 -10 37 -37 37 -21 0 -47 14 -90 50 -250
208 -538 312 -859 309 -63 -1 -149 -7 -190 -14z m510 -103 c63 -16 155 -49
205 -72 92 -42 255 -146 255 -161 0 -5 -36 -9 -80 -9 l-80 0 0 -29 c0 -25 4
-29 38 -35 20 -3 75 -6 122 -6 l85 0 -105 -105 -105 -105 -95 95 c-52 52 -98
95 -101 95 -5 0 -187 -179 -297 -292 l-52 -54 24 -23 24 -22 146 145 c80 80
152 146 158 146 7 0 54 -41 105 -92 l92 -92 124 122 c67 67 126 122 130 122 3
0 8 -51 9 -112 l3 -113 32 -3 32 -3 3 73 3 73 37 -50 c78 -105 150 -279 185
-445 25 -119 24 -363 -1 -480 -92 -425 -395 -770 -801 -911 -382 -132 -816
-65 -1134 175 l-55 41 155 5 154 5 3 140 c2 77 0 159 -3 181 -5 38 -9 42 -41
47 -49 8 -113 41 -162 83 -58 49 -66 67 -47 103 20 39 20 39 -12 43 -23 2 -31
12 -50 62 -12 32 -25 61 -28 64 -6 7 -91 -74 -108 -103 -8 -13 -14 -100 -17
-245 l-5 -224 -38 52 c-234 326 -300 744 -177 1114 143 429 505 740 955 823
55 10 129 13 240 11 140 -3 175 -7 275 -34z m-1116 -1684 c10 -38 7 -418 -3
-418 -6 0 -21 15 -35 33 -26 33 -26 36 -26 214 0 99 3 183 7 186 15 16 51 6
57 -15z"/>
<path d="M1365 2389 c-256 -39 -426 -317 -344 -562 36 -107 117 -210 202 -253
41 -22 50 -10 44 55 -5 42 -12 60 -29 74 -91 72 -116 121 -98 189 11 40 66 94
104 104 17 4 26 15 30 38 4 18 20 46 37 62 l30 29 218 5 c241 6 254 9 285 73
20 44 20 70 0 113 -27 57 -75 81 -151 76 -32 -3 -82 -49 -91 -85 -7 -27 -14
-33 -40 -35 -37 -4 -39 5 -17 68 8 24 14 45 12 47 -10 9 -138 11 -192 2z"/>
<path d="M1375 2060 c-32 -12 -43 -32 -47 -80 l-3 -45 -49 -6 c-53 -6 -76 -26
-76 -67 0 -36 14 -55 75 -101 l55 -42 0 -183 0 -183 49 -61 48 -61 30 32 c54
59 73 89 73 121 0 40 -9 51 -43 60 -33 8 -77 48 -77 70 0 25 36 28 77 6 66
-35 176 -25 210 19 20 25 15 31 -22 31 -73 0 -124 37 -140 103 -6 24 -5 27 19
27 16 0 37 -11 54 -30 21 -23 37 -30 72 -32 l45 -3 5 42 c4 30 13 47 33 63 34
27 34 38 -3 103 -23 42 -30 66 -30 109 0 31 -3 70 -6 87 l-6 31 -162 -1 c-88
0 -170 -4 -181 -9z"/>
<path d="M2220 1813 l0 -188 65 0 65 0 0 188 0 187 -65 0 -65 0 0 -187z"/>
<path d="M2480 1720 l0 -150 -50 0 c-50 0 -50 0 -44 -27 4 -16 9 -30 11 -33 3
-3 67 -6 144 -8 l139 -4 0 36 c0 30 -3 35 -27 38 l-28 3 -6 145 c-4 80 -7 146
-8 148 0 1 -30 2 -66 2 l-65 0 0 -150z"/>
<path d="M1960 1685 l0 -115 -35 0 c-32 0 -35 -2 -35 -29 0 -27 4 -30 43 -36
23 -3 89 -5 147 -3 l105 3 3 32 c3 31 3 32 -45 35 l-48 3 -5 110 -5 110 -62 3
-63 3 0 -116z"/>
<path d="M2262 1558 c-7 -7 -12 -35 -12 -63 0 -49 1 -50 35 -61 l35 -11 0 61
c0 59 -11 86 -35 86 -6 0 -16 -5 -23 -12z"/>
<path d="M2167 1349 c-12 -16 -13 -29 -5 -57 13 -50 22 -57 102 -86 64 -23 71
-24 87 -10 24 22 38 65 28 91 -12 33 -28 37 -49 10 -23 -29 -73 -52 -95 -43
-27 10 -18 50 15 63 20 8 30 18 30 32 0 18 -6 21 -49 21 -39 0 -53 -5 -64 -21z"/>
<path d="M1254 1303 l-22 -4 19 -50 c11 -28 33 -78 50 -111 l30 -59 19 24 c39
50 36 71 -20 142 -28 36 -52 64 -53 64 -1 -1 -12 -4 -23 -6z"/>
<path d="M1548 1273 c-13 -16 -37 -45 -52 -65 l-27 -37 23 -40 c13 -23 28 -40
33 -38 12 3 81 142 89 180 6 23 3 27 -17 27 -13 0 -35 -12 -49 -27z"/>
<path d="M1133 1263 c-18 -7 -16 -24 7 -77 17 -40 23 -46 50 -46 16 0 30 3 30
6 0 4 -12 33 -26 65 -26 57 -34 64 -61 52z"/>
<path d="M1663 1213 c-24 -61 -20 -73 23 -73 16 0 24 12 38 56 15 47 16 58 4
65 -29 19 -43 8 -65 -48z"/>
<path d="M1791 1188 c-41 -106 -42 -108 -73 -108 l-30 0 23 -37 23 -36 -61
-58 c-59 -55 -145 -99 -193 -99 -19 0 -20 -8 -20 -179 0 -154 2 -180 16 -185
9 -3 83 -6 165 -6 l149 0 2 215 3 215 97 -89 c111 -103 152 -122 218 -102 24
7 49 24 63 44 25 33 114 273 124 331 5 32 4 32 -56 51 -37 11 -65 15 -70 9 -4
-5 -29 -61 -56 -124 -96 -234 -94 -230 -121 -218 -26 12 -29 24 -14 62 19 51
-35 192 -105 274 -51 59 -73 69 -84 40z"/>
<path d="M1398 1058 l-24 -44 24 -37 c14 -20 28 -37 33 -37 4 0 17 16 29 36
24 38 22 49 -19 103 l-18 23 -25 -44z"/>
<path d="M1557 1007 c-25 -39 -44 -73 -42 -75 8 -8 91 37 112 60 l23 24 -23
32 -24 31 -46 -72z"/>
<path d="M1225 1044 c-16 -25 -16 -27 10 -54 30 -31 91 -67 100 -58 7 7 -74
138 -85 138 -4 0 -15 -12 -25 -26z"/>
</g>
</svg>
