<?xml version="1.0" standalone="no"?>
<!DOCTYPE svg PUBLIC "-//W3C//DTD SVG 20010904//EN"
 "http://www.w3.org/TR/2001/REC-SVG-20010904/DTD/svg10.dtd">
<svg version="1.0" xmlns="http://www.w3.org/2000/svg"
 width="107.000000pt" height="95.000000pt" viewBox="0 0 107.000000 95.000000"
 preserveAspectRatio="xMidYMid meet">

<g transform="translate(0.000000,95.000000) scale(0.100000,-0.100000)"
fill="#000000" stroke="none">
<path d="M266 714 c-14 -13 -16 -47 -16 -213 0 -234 -1 -233 88 -239 l61 -4 3
-56 c2 -30 8 -57 14 -59 6 -2 31 23 57 56 l46 60 146 3 c131 3 148 5 161 22
22 30 20 408 -2 430 -23 24 -535 24 -558 0z m150 -50 c19 -15 34 -32 34 -38 0
-19 67 -79 79 -72 6 4 11 25 11 46 0 49 44 90 96 90 19 0 34 -3 34 -7 0 -4
-14 -22 -32 -40 -31 -32 -31 -33 -13 -53 l19 -21 38 38 38 37 0 -41 c0 -57
-30 -93 -78 -93 -32 0 -46 -10 -128 -91 -71 -69 -98 -90 -116 -87 -17 2 -24
11 -26 32 -3 24 6 39 54 87 l58 59 -34 35 c-19 19 -39 35 -46 35 -12 0 -64 62
-64 77 0 12 21 33 33 33 4 0 24 -12 43 -26z m258 -248 c29 -38 32 -56 14 -74
-18 -18 -36 -15 -74 16 -38 30 -42 47 -17 74 24 27 48 22 77 -16z"/>
</g>
</svg>
